<svg width="1880" height="1368" viewBox="0 0 1880 1368" fill="none" xmlns="http://www.w3.org/2000/svg">
<g filter="url(#filter0_d)">
<rect x="344" y="64" width="1456" height="336" rx="20" fill="white"/>
</g>
<path d="M942 64H1780C1791.05 64 1800 72.9543 1800 84V380C1800 391.046 1791.05 400 1780 400H942V64Z" fill="#196AFF"/>
<path d="M1068.68 258V206.88H1077.97L1101.66 240.72V206.88H1112.02V258H1102.74L1079.05 224.16V258H1068.68ZM1139.05 259.08C1136.22 259.08 1133.61 258.576 1131.21 257.568C1128.81 256.56 1126.72 255.168 1124.94 253.392C1123.17 251.568 1121.77 249.432 1120.77 246.984C1119.81 244.536 1119.33 241.872 1119.33 238.992C1119.33 236.112 1119.83 233.472 1120.84 231.072C1121.85 228.624 1123.24 226.488 1125.01 224.664C1126.84 222.84 1128.95 221.424 1131.35 220.416C1133.8 219.408 1136.46 218.904 1139.34 218.904C1142.17 218.904 1144.79 219.408 1147.19 220.416C1149.59 221.424 1151.68 222.84 1153.45 224.664C1155.23 226.44 1156.6 228.552 1157.56 231C1158.57 233.4 1159.07 236.04 1159.07 238.92C1159.07 241.8 1158.57 244.464 1157.56 246.912C1156.55 249.36 1155.13 251.496 1153.31 253.32C1151.53 255.144 1149.42 256.56 1146.97 257.568C1144.57 258.576 1141.93 259.08 1139.05 259.08ZM1139.2 250.008C1141.02 250.008 1142.65 249.528 1144.09 248.568C1145.53 247.608 1146.66 246.312 1147.48 244.68C1148.34 243 1148.77 241.104 1148.77 238.992C1148.77 236.88 1148.34 235.008 1147.48 233.376C1146.66 231.696 1145.53 230.376 1144.09 229.416C1142.65 228.456 1141.02 227.976 1139.2 227.976C1137.37 227.976 1135.74 228.456 1134.3 229.416C1132.86 230.376 1131.71 231.696 1130.85 233.376C1130.03 235.008 1129.62 236.88 1129.62 238.992C1129.62 241.104 1130.03 243 1130.85 244.68C1131.71 246.312 1132.86 247.608 1134.3 248.568C1135.74 249.528 1137.37 250.008 1139.2 250.008ZM1184.49 258V228.12H1178.01V219.984H1184.49V217.824C1184.49 215.76 1184.82 213.864 1185.49 212.136C1186.21 210.36 1187.2 208.848 1188.45 207.6C1189.74 206.304 1191.25 205.32 1192.98 204.648C1194.76 203.928 1196.68 203.568 1198.74 203.568C1200.33 203.568 1201.74 203.76 1202.99 204.144C1204.29 204.528 1205.39 204.96 1206.3 205.44L1204.29 213.144C1203.71 212.856 1203.04 212.616 1202.27 212.424C1201.55 212.184 1200.85 212.064 1200.18 212.064C1198.26 212.064 1196.85 212.64 1195.93 213.792C1195.02 214.896 1194.57 216.456 1194.57 218.472V219.984H1204.65V228.12H1194.57V258H1184.49ZM1227.22 259.08C1224.39 259.08 1221.77 258.6 1219.37 257.64C1217.02 256.632 1214.98 255.24 1213.25 253.464C1211.52 251.64 1210.18 249.504 1209.22 247.056C1208.26 244.56 1207.78 241.848 1207.78 238.92C1207.78 236.088 1208.26 233.448 1209.22 231C1210.18 228.552 1211.5 226.44 1213.18 224.664C1214.91 222.84 1216.92 221.424 1219.23 220.416C1221.53 219.408 1224.03 218.904 1226.72 218.904C1229.5 218.904 1232.02 219.384 1234.28 220.344C1236.58 221.304 1238.55 222.672 1240.18 224.448C1241.81 226.224 1243.06 228.336 1243.92 230.784C1244.84 233.232 1245.29 235.968 1245.29 238.992V241.512H1218C1218.44 244.344 1219.47 246.576 1221.1 248.208C1222.73 249.792 1224.8 250.584 1227.29 250.584C1229.02 250.584 1230.58 250.176 1231.97 249.36C1233.41 248.544 1234.59 247.368 1235.5 245.832L1244.5 248.712C1243.64 250.872 1242.34 252.72 1240.61 254.256C1238.88 255.792 1236.87 256.992 1234.56 257.856C1232.26 258.672 1229.81 259.08 1227.22 259.08ZM1226.72 226.68C1224.51 226.68 1222.64 227.4 1221.1 228.84C1219.61 230.28 1218.63 232.248 1218.15 234.744H1234.92C1234.54 232.248 1233.6 230.28 1232.12 228.84C1230.68 227.4 1228.88 226.68 1226.72 226.68ZM1269.9 259.08C1267.07 259.08 1264.45 258.6 1262.05 257.64C1259.7 256.632 1257.66 255.24 1255.93 253.464C1254.2 251.64 1252.86 249.504 1251.9 247.056C1250.94 244.56 1250.46 241.848 1250.46 238.92C1250.46 236.088 1250.94 233.448 1251.9 231C1252.86 228.552 1254.18 226.44 1255.86 224.664C1257.59 222.84 1259.6 221.424 1261.91 220.416C1264.21 219.408 1266.71 218.904 1269.4 218.904C1272.18 218.904 1274.7 219.384 1276.96 220.344C1279.26 221.304 1281.23 222.672 1282.86 224.448C1284.49 226.224 1285.74 228.336 1286.6 230.784C1287.52 233.232 1287.97 235.968 1287.97 238.992V241.512H1260.68C1261.12 244.344 1262.15 246.576 1263.78 248.208C1265.41 249.792 1267.48 250.584 1269.97 250.584C1271.7 250.584 1273.26 250.176 1274.65 249.36C1276.09 248.544 1277.27 247.368 1278.18 245.832L1287.18 248.712C1286.32 250.872 1285.02 252.72 1283.29 254.256C1281.56 255.792 1279.55 256.992 1277.24 257.856C1274.94 258.672 1272.49 259.08 1269.9 259.08ZM1269.4 226.68C1267.19 226.68 1265.32 227.4 1263.78 228.84C1262.29 230.28 1261.31 232.248 1260.83 234.744H1277.6C1277.22 232.248 1276.28 230.28 1274.8 228.84C1273.36 227.4 1271.56 226.68 1269.4 226.68ZM1308.33 259.08C1305.64 259.08 1303.19 258.648 1300.99 257.784C1298.83 256.92 1296.98 255.696 1295.44 254.112C1293.95 252.528 1292.92 250.656 1292.35 248.496L1301.42 246.552C1301.9 248.04 1302.76 249.216 1304.01 250.08C1305.26 250.944 1306.75 251.376 1308.47 251.376C1310.11 251.376 1311.45 251.016 1312.51 250.296C1313.56 249.576 1314.09 248.592 1314.09 247.344C1314.09 246.288 1313.61 245.424 1312.65 244.752C1311.74 244.032 1310.2 243.48 1308.04 243.096L1306.03 242.736C1301.9 242.016 1298.75 240.672 1296.59 238.704C1294.48 236.736 1293.43 234.24 1293.43 231.216C1293.43 228.816 1294.05 226.704 1295.3 224.88C1296.55 223.008 1298.27 221.544 1300.48 220.488C1302.69 219.432 1305.23 218.904 1308.11 218.904C1310.66 218.904 1312.96 219.336 1315.03 220.2C1317.14 221.016 1318.89 222.192 1320.28 223.728C1321.67 225.264 1322.63 227.112 1323.16 229.272L1314.16 231.144C1313.68 229.704 1312.89 228.576 1311.79 227.76C1310.73 226.944 1309.48 226.536 1308.04 226.536C1306.55 226.536 1305.33 226.896 1304.37 227.616C1303.41 228.336 1302.93 229.248 1302.93 230.352C1302.93 231.312 1303.39 232.128 1304.3 232.8C1305.26 233.424 1306.87 233.928 1309.12 234.312L1311.14 234.672C1315.22 235.392 1318.34 236.76 1320.5 238.776C1322.66 240.744 1323.74 243.264 1323.74 246.336C1323.74 248.208 1323.35 249.912 1322.59 251.448C1321.87 252.984 1320.81 254.328 1319.42 255.48C1318.03 256.632 1316.39 257.52 1314.52 258.144C1312.65 258.768 1310.59 259.08 1308.33 259.08ZM1363.35 259.08C1360.52 259.08 1357.9 258.576 1355.5 257.568C1353.1 256.56 1351.02 255.168 1349.24 253.392C1347.46 251.568 1346.07 249.432 1345.06 246.984C1344.1 244.536 1343.62 241.872 1343.62 238.992C1343.62 236.112 1344.13 233.472 1345.14 231.072C1346.14 228.624 1347.54 226.488 1349.31 224.664C1351.14 222.84 1353.25 221.424 1355.65 220.416C1358.1 219.408 1360.76 218.904 1363.64 218.904C1366.47 218.904 1369.09 219.408 1371.49 220.416C1373.89 221.424 1375.98 222.84 1377.75 224.664C1379.53 226.44 1380.9 228.552 1381.86 231C1382.86 233.4 1383.37 236.04 1383.37 238.92C1383.37 241.8 1382.86 244.464 1381.86 246.912C1380.85 249.36 1379.43 251.496 1377.61 253.32C1375.83 255.144 1373.72 256.56 1371.27 257.568C1368.87 258.576 1366.23 259.08 1363.35 259.08ZM1363.5 250.008C1365.32 250.008 1366.95 249.528 1368.39 248.568C1369.83 247.608 1370.96 246.312 1371.78 244.68C1372.64 243 1373.07 241.104 1373.07 238.992C1373.07 236.88 1372.64 235.008 1371.78 233.376C1370.96 231.696 1369.83 230.376 1368.39 229.416C1366.95 228.456 1365.32 227.976 1363.5 227.976C1361.67 227.976 1360.04 228.456 1358.6 229.416C1357.16 230.376 1356.01 231.696 1355.14 233.376C1354.33 235.008 1353.92 236.88 1353.92 238.992C1353.92 241.104 1354.33 243 1355.14 244.68C1356.01 246.312 1357.16 247.608 1358.6 248.568C1360.04 249.528 1361.67 250.008 1363.5 250.008ZM1389.99 258V219.984H1399.28L1399.57 224.88C1400.67 223.056 1402.18 221.616 1404.1 220.56C1406.07 219.456 1408.3 218.904 1410.8 218.904C1413.58 218.904 1416.01 219.576 1418.07 220.92C1420.18 222.216 1421.82 224.088 1422.97 226.536C1424.12 228.984 1424.7 231.864 1424.7 235.176V258H1414.62V236.472C1414.62 233.832 1414.02 231.768 1412.82 230.28C1411.62 228.744 1409.96 227.976 1407.85 227.976C1406.31 227.976 1404.97 228.336 1403.82 229.056C1402.66 229.728 1401.75 230.688 1401.08 231.936C1400.41 233.184 1400.07 234.6 1400.07 236.184V258H1389.99ZM1446.85 258V250.512C1448.77 248.88 1450.45 247.464 1451.89 246.264C1453.33 245.016 1454.61 243.912 1455.71 242.952C1456.81 241.944 1457.8 241.032 1458.66 240.216C1459.53 239.4 1460.39 238.56 1461.25 237.696C1463.27 235.68 1464.93 233.88 1466.22 232.296C1467.52 230.712 1468.48 229.224 1469.1 227.832C1469.77 226.44 1470.11 225 1470.11 223.512C1470.11 221.304 1469.49 219.576 1468.24 218.328C1467.04 217.032 1465.48 216.384 1463.56 216.384C1461.69 216.384 1460.08 216.984 1458.73 218.184C1457.44 219.384 1456.55 221.016 1456.07 223.08L1446.35 221.424C1446.93 218.544 1448.03 216.048 1449.66 213.936C1451.34 211.824 1453.41 210.192 1455.85 209.04C1458.3 207.84 1460.99 207.24 1463.92 207.24C1466.37 207.24 1468.6 207.648 1470.61 208.464C1472.68 209.28 1474.45 210.408 1475.94 211.848C1477.43 213.288 1478.58 214.992 1479.4 216.96C1480.26 218.928 1480.69 221.064 1480.69 223.368C1480.69 225.528 1480.31 227.568 1479.54 229.488C1478.77 231.408 1477.55 233.4 1475.87 235.464C1474.24 237.528 1472.13 239.832 1469.53 242.376C1468.38 243.48 1467.18 244.584 1465.93 245.688C1464.73 246.744 1463.49 247.824 1462.19 248.928H1481.56V258H1446.85ZM1506.92 259.08C1504 259.08 1501.36 258.48 1499 257.28C1496.7 256.08 1494.71 254.352 1493.03 252.096C1491.4 249.84 1490.15 247.128 1489.28 243.96C1488.42 240.792 1487.99 237.216 1487.99 233.232C1487.99 229.248 1488.42 225.648 1489.28 222.432C1490.2 219.216 1491.47 216.48 1493.1 214.224C1494.78 211.968 1496.8 210.24 1499.15 209.04C1501.55 207.84 1504.24 207.24 1507.21 207.24C1510.14 207.24 1512.76 207.84 1515.06 209.04C1517.41 210.24 1519.4 211.968 1521.04 214.224C1522.72 216.48 1523.99 219.192 1524.85 222.36C1525.72 225.528 1526.15 229.104 1526.15 233.088C1526.15 237.072 1525.69 240.672 1524.78 243.888C1523.92 247.104 1522.64 249.84 1520.96 252.096C1519.33 254.352 1517.32 256.08 1514.92 257.28C1512.56 258.48 1509.9 259.08 1506.92 259.08ZM1507.07 249.648C1509.85 249.648 1511.99 248.232 1513.48 245.4C1515.01 242.52 1515.78 238.44 1515.78 233.16C1515.78 227.88 1515.01 223.824 1513.48 220.992C1511.99 218.112 1509.85 216.672 1507.07 216.672C1504.28 216.672 1502.12 218.112 1500.59 220.992C1499.1 223.824 1498.36 227.88 1498.36 233.16C1498.36 238.44 1499.1 242.52 1500.59 245.4C1502.12 248.232 1504.28 249.648 1507.07 249.648ZM1533.36 258V204.288H1543.22V235.464L1557.34 219.984H1569.14L1553.3 236.832L1570.87 258H1558.13L1543.22 239.064V258H1533.36Z" fill="white"/>
<path fill-rule="evenodd" clip-rule="evenodd" d="M820 234.4C820 208.8 807.6 188.6 783.9 188.6C760.1 188.6 745.7 208.8 745.7 234.2C745.7 264.3 762.7 279.5 787.1 279.5C799 279.5 808 276.8 814.8 273V253C808 256.4 800.2 258.5 790.3 258.5C780.6 258.5 772 255.1 770.9 243.3H819.8C819.8 242 820 236.8 820 234.4ZM770.6 224.9C770.6 213.6 777.5 208.9 783.8 208.9C789.9 208.9 796.4 213.6 796.4 224.9H770.6Z" fill="#1A202C"/>
<path fill-rule="evenodd" clip-rule="evenodd" d="M707.1 188.6C697.3 188.6 691 193.2 687.5 196.4L686.2 190.2H664.2V306.8L689.2 301.5L689.3 273.2C692.9 275.8 698.2 279.5 707 279.5C724.9 279.5 741.2 265.1 741.2 233.4C741.1 204.4 724.6 188.6 707.1 188.6ZM701.1 257.5C695.2 257.5 691.7 255.4 689.3 252.8L689.2 215.7C691.8 212.8 695.4 210.8 701.1 210.8C710.2 210.8 716.5 221 716.5 234.1C716.5 247.5 710.3 257.5 701.1 257.5Z" fill="#1A202C"/>
<path fill-rule="evenodd" clip-rule="evenodd" d="M629.8 182.7L654.9 177.3V157L629.8 162.3V182.7Z" fill="#1A202C"/>
<path d="M654.9 190.301H629.8V277.801H654.9V190.301Z" fill="#1A202C"/>
<path fill-rule="evenodd" clip-rule="evenodd" d="M602.9 197.699L601.3 190.299H579.7V277.799H604.7V218.499C610.6 210.799 620.6 212.199 623.7 213.299V190.299C620.5 189.099 608.8 186.899 602.9 197.699Z" fill="#1A202C"/>
<path fill-rule="evenodd" clip-rule="evenodd" d="M552.9 168.6L528.5 173.8L528.4 253.9C528.4 268.7 539.5 279.6 554.3 279.6C562.5 279.6 568.5 278.1 571.8 276.3V256C568.6 257.3 552.8 261.9 552.8 247.1V211.6H571.8V190.3H552.8L552.9 168.6Z" fill="#1A202C"/>
<path fill-rule="evenodd" clip-rule="evenodd" d="M485.3 215.7C485.3 211.8 488.5 210.3 493.8 210.3C501.4 210.3 511 212.6 518.6 216.7V193.2C510.3 189.9 502.1 188.6 493.8 188.6C473.5 188.6 460 199.2 460 216.9C460 244.5 498 240.1 498 252C498 256.6 494 258.1 488.4 258.1C480.1 258.1 469.5 254.7 461.1 250.1V273.9C470.4 277.9 479.8 279.6 488.4 279.6C509.2 279.6 523.5 269.3 523.5 251.4C523.4 221.6 485.3 226.9 485.3 215.7Z" fill="#1A202C"/>
<g filter="url(#filter1_d)">
<rect x="80" y="500" width="1456" height="336" rx="20" fill="white"/>
</g>
<path d="M802 500H1516C1527.05 500 1536 508.954 1536 520V816C1536 827.046 1527.05 836 1516 836H802V500Z" fill="#196AFF"/>
<path d="M944.016 690.08C941.184 690.08 938.496 689.576 935.952 688.568C933.456 687.56 931.296 686.048 929.472 684.032C927.696 682.016 926.448 679.52 925.728 676.544L935.232 674.888C935.856 676.856 936.912 678.392 938.4 679.496C939.888 680.6 941.688 681.152 943.8 681.152C945.336 681.152 946.68 680.864 947.832 680.288C949.032 679.712 949.968 678.944 950.64 677.984C951.312 676.976 951.648 675.8 951.648 674.456C951.648 673.16 951.312 672.032 950.64 671.072C949.968 670.064 949.008 669.296 947.76 668.768C946.56 668.192 945.168 667.904 943.584 667.904H938.328V659.12H943.08C944.616 659.12 945.936 658.856 947.04 658.328C948.192 657.8 949.08 657.08 949.704 656.168C950.328 655.208 950.64 654.128 950.64 652.928C950.64 651.248 950.016 649.88 948.768 648.824C947.568 647.72 945.984 647.168 944.016 647.168C942.192 647.168 940.56 647.696 939.12 648.752C937.728 649.76 936.744 651.272 936.168 653.288L926.664 651.632C927.192 648.992 928.272 646.664 929.904 644.648C931.584 642.632 933.672 641.072 936.168 639.968C938.664 638.816 941.424 638.24 944.448 638.24C946.752 638.24 948.888 638.576 950.856 639.248C952.872 639.92 954.624 640.88 956.112 642.128C957.6 643.328 958.752 644.768 959.568 646.448C960.384 648.128 960.792 649.976 960.792 651.992C960.792 654.44 960.192 656.624 958.992 658.544C957.792 660.416 956.064 661.904 953.808 663.008C956.352 663.968 958.344 665.48 959.784 667.544C961.272 669.608 962.016 672.032 962.016 674.816C962.016 676.976 961.56 678.992 960.648 680.864C959.736 682.736 958.464 684.368 956.832 685.76C955.2 687.104 953.28 688.16 951.072 688.928C948.912 689.696 946.56 690.08 944.016 690.08ZM986.956 690.08C984.028 690.08 981.388 689.48 979.036 688.28C976.732 687.08 974.74 685.352 973.06 683.096C971.428 680.84 970.18 678.128 969.316 674.96C968.452 671.792 968.02 668.216 968.02 664.232C968.02 660.248 968.452 656.648 969.316 653.432C970.228 650.216 971.5 647.48 973.132 645.224C974.812 642.968 976.828 641.24 979.18 640.04C981.58 638.84 984.268 638.24 987.244 638.24C990.172 638.24 992.788 638.84 995.092 640.04C997.444 641.24 999.436 642.968 1001.07 645.224C1002.75 647.48 1004.02 650.192 1004.88 653.36C1005.75 656.528 1006.18 660.104 1006.18 664.088C1006.18 668.072 1005.72 671.672 1004.81 674.888C1003.95 678.104 1002.68 680.84 1001 683.096C999.364 685.352 997.348 687.08 994.948 688.28C992.596 689.48 989.932 690.08 986.956 690.08ZM987.1 680.648C989.884 680.648 992.02 679.232 993.508 676.4C995.044 673.52 995.812 669.44 995.812 664.16C995.812 658.88 995.044 654.824 993.508 651.992C992.02 649.112 989.884 647.672 987.1 647.672C984.316 647.672 982.156 649.112 980.62 651.992C979.132 654.824 978.388 658.88 978.388 664.16C978.388 669.44 979.132 673.52 980.62 676.4C982.156 679.232 984.316 680.648 987.1 680.648ZM1023.18 661.28C1020.98 661.28 1019.01 660.8 1017.28 659.84C1015.6 658.832 1014.26 657.488 1013.25 655.808C1012.24 654.128 1011.74 652.208 1011.74 650.048C1011.74 648.416 1012.02 646.928 1012.6 645.584C1013.18 644.192 1013.99 642.992 1015.05 641.984C1016.1 640.928 1017.33 640.112 1018.72 639.536C1020.16 638.96 1021.72 638.672 1023.4 638.672C1025.03 638.672 1026.54 638.96 1027.94 639.536C1029.33 640.112 1030.55 640.904 1031.61 641.912C1032.66 642.92 1033.48 644.12 1034.06 645.512C1034.63 646.856 1034.92 648.344 1034.92 649.976C1034.92 651.608 1034.61 653.12 1033.98 654.512C1033.41 655.856 1032.59 657.032 1031.54 658.04C1030.48 659.048 1029.23 659.84 1027.79 660.416C1026.4 660.992 1024.86 661.28 1023.18 661.28ZM1025.06 689H1016.99L1048.1 639.32H1056.16L1025.06 689ZM1019.22 649.976C1019.22 651.32 1019.61 652.448 1020.38 653.36C1021.19 654.272 1022.18 654.728 1023.33 654.728C1024.48 654.728 1025.44 654.272 1026.21 653.36C1027.02 652.448 1027.43 651.32 1027.43 649.976C1027.43 648.632 1027.02 647.504 1026.21 646.592C1025.44 645.68 1024.48 645.224 1023.33 645.224C1022.18 645.224 1021.19 645.68 1020.38 646.592C1019.61 647.504 1019.22 648.632 1019.22 649.976ZM1049.75 689.648C1047.59 689.648 1045.65 689.168 1043.92 688.208C1042.19 687.2 1040.82 685.856 1039.82 684.176C1038.81 682.496 1038.3 680.576 1038.3 678.416C1038.3 676.784 1038.59 675.296 1039.17 673.952C1039.74 672.56 1040.56 671.36 1041.62 670.352C1042.67 669.296 1043.9 668.48 1045.29 667.904C1046.73 667.328 1048.29 667.04 1049.97 667.04C1051.6 667.04 1053.11 667.328 1054.5 667.904C1055.9 668.48 1057.12 669.272 1058.18 670.28C1059.23 671.288 1060.05 672.488 1060.62 673.88C1061.2 675.224 1061.49 676.712 1061.49 678.344C1061.49 679.976 1061.18 681.488 1060.55 682.88C1059.98 684.224 1059.16 685.4 1058.1 686.408C1057.05 687.416 1055.8 688.208 1054.36 688.784C1052.97 689.36 1051.43 689.648 1049.75 689.648ZM1049.9 683.096C1051.05 683.096 1052.01 682.64 1052.78 681.728C1053.59 680.816 1054 679.688 1054 678.344C1054 677 1053.59 675.872 1052.78 674.96C1052.01 674.048 1051.05 673.592 1049.9 673.592C1048.74 673.592 1047.76 674.048 1046.94 674.96C1046.18 675.872 1045.79 677 1045.79 678.344C1045.79 679.688 1046.18 680.816 1046.94 681.728C1047.76 682.64 1048.74 683.096 1049.9 683.096ZM1101.22 690.08C1098.39 690.08 1095.77 689.576 1093.37 688.568C1090.97 687.56 1088.88 686.168 1087.11 684.392C1085.33 682.568 1083.94 680.432 1082.93 677.984C1081.97 675.536 1081.49 672.872 1081.49 669.992C1081.49 667.112 1081.99 664.472 1083 662.072C1084.01 659.624 1085.4 657.488 1087.18 655.664C1089 653.84 1091.11 652.424 1093.51 651.416C1095.96 650.408 1098.63 649.904 1101.51 649.904C1104.34 649.904 1106.95 650.408 1109.35 651.416C1111.75 652.424 1113.84 653.84 1115.62 655.664C1117.39 657.44 1118.76 659.552 1119.72 662C1120.73 664.4 1121.23 667.04 1121.23 669.92C1121.23 672.8 1120.73 675.464 1119.72 677.912C1118.71 680.36 1117.3 682.496 1115.47 684.32C1113.7 686.144 1111.59 687.56 1109.14 688.568C1106.74 689.576 1104.1 690.08 1101.22 690.08ZM1101.36 681.008C1103.19 681.008 1104.82 680.528 1106.26 679.568C1107.7 678.608 1108.83 677.312 1109.64 675.68C1110.51 674 1110.94 672.104 1110.94 669.992C1110.94 667.88 1110.51 666.008 1109.64 664.376C1108.83 662.696 1107.7 661.376 1106.26 660.416C1104.82 659.456 1103.19 658.976 1101.36 658.976C1099.54 658.976 1097.91 659.456 1096.47 660.416C1095.03 661.376 1093.87 662.696 1093.01 664.376C1092.19 666.008 1091.79 667.88 1091.79 669.992C1091.79 672.104 1092.19 674 1093.01 675.68C1093.87 677.312 1095.03 678.608 1096.47 679.568C1097.91 680.528 1099.54 681.008 1101.36 681.008ZM1130.48 689V658.904H1124V650.984H1130.48V648.824C1130.48 646.76 1130.82 644.864 1131.49 643.136C1132.21 641.36 1133.19 639.848 1134.44 638.6C1135.74 637.304 1137.25 636.32 1138.98 635.648C1140.75 634.928 1142.67 634.568 1144.74 634.568C1146.32 634.568 1147.74 634.76 1148.98 635.144C1150.28 635.528 1151.38 635.96 1152.3 636.44L1150.28 644.144C1149.7 643.856 1149.03 643.616 1148.26 643.424C1147.54 643.184 1146.85 643.064 1146.18 643.064C1144.26 643.064 1142.84 643.64 1141.93 644.792C1141.02 645.896 1140.56 647.456 1140.56 649.472V650.984H1155.1V648.824C1155.1 646.76 1155.44 644.864 1156.11 643.136C1156.83 641.36 1157.82 639.848 1159.06 638.6C1160.36 637.304 1161.87 636.32 1163.6 635.648C1165.38 634.928 1167.3 634.568 1169.36 634.568C1170.94 634.568 1172.36 634.76 1173.61 635.144C1174.9 635.528 1176.01 635.96 1176.92 636.44L1174.9 644.144C1174.33 643.856 1173.66 643.616 1172.89 643.424C1172.17 643.184 1171.47 643.064 1170.8 643.064C1168.88 643.064 1167.46 643.64 1166.55 644.792C1165.64 645.896 1165.18 647.456 1165.18 649.472V650.984H1175.26V658.904H1165.18V689H1155.1V658.904H1140.56V689H1130.48Z" fill="white"/>
<path d="M573.537 724.004C572.022 723.689 570.54 723.311 569.026 723.059C553.476 720.507 543.761 711.372 539.471 696.565C535.907 684.248 536.348 671.93 542.12 660.274C548.776 646.791 559.91 639.924 575.019 639.546C594.607 639.073 610.473 652.21 613.406 672.592C614.068 677.16 613.784 681.885 613.816 686.547C613.816 688.28 612.207 689.792 610.473 689.981C609.842 690.044 609.211 690.044 608.58 690.044C592.241 690.044 575.871 690.044 559.532 690.044C557.198 690.044 557.103 690.17 557.545 692.501C558.712 698.644 563.538 703.307 570.508 704.567C577.385 705.827 583.977 705.197 589.907 700.944C591.169 700.031 592.998 699.558 594.575 699.495C598.613 699.306 602.682 699.401 606.719 699.432C610.409 699.464 612.081 701.858 610.756 705.323C609.305 709.103 606.687 712.065 603.565 714.522C596.783 719.877 589.024 722.744 580.413 723.374C579.687 723.437 578.993 723.815 578.268 724.036C576.691 724.004 575.114 724.004 573.537 724.004ZM592.967 672.466C592.714 665.976 588.771 660.81 582.81 658.92C579.656 657.912 576.407 657.786 573.158 658.038C566.345 658.573 561.424 661.975 558.554 668.15C557.955 669.442 557.702 670.891 557.198 672.466C569.31 672.466 581.107 672.466 592.967 672.466Z" fill="#1A202C"/>
<path d="M324.037 724.005C323.154 723.785 322.302 723.407 321.419 723.312C315.836 722.777 310.569 721.422 305.964 718.051C300.444 714.019 297.416 708.286 295.807 701.859C294.735 697.48 294.009 692.912 293.946 688.407C293.725 674.168 293.851 659.929 293.851 645.69C293.851 642.634 295.397 641.09 298.52 641.059C302.147 641.059 305.774 641.027 309.402 641.059C312.304 641.09 313.849 642.634 313.849 645.532C313.849 658.574 313.849 671.616 313.849 684.627C313.849 688.344 314.259 692.03 315.616 695.559C318.013 701.859 322.776 705.23 329.526 705.482C340.092 705.86 346.748 700.095 348.073 689.352C348.293 687.651 348.356 685.919 348.356 684.186C348.388 671.522 348.356 658.858 348.356 646.194C348.356 642.414 349.713 641.059 353.435 641.059C356.967 641.059 360.469 641.027 364.001 641.059C366.651 641.09 368.354 642.729 368.354 645.343C368.354 669.411 368.354 693.511 368.354 717.579C368.354 720.194 366.619 721.895 364.001 721.926C360.216 721.958 356.431 721.958 352.646 721.926C349.997 721.895 348.388 720.225 348.356 717.547C348.325 716.539 348.356 715.5 348.356 714.177C347.757 714.618 347.442 714.775 347.221 714.996C342.237 719.721 336.433 722.682 329.463 723.281C328.989 723.312 328.548 723.69 328.106 723.911C326.781 724.005 325.394 724.005 324.037 724.005Z" fill="#1A202C"/>
<path d="M679.204 656.148C678.983 656.337 678.636 656.463 678.541 656.715C677.689 658.794 676.049 659.518 673.904 659.518C670.214 659.487 666.555 659.392 662.865 659.581C660.688 659.676 658.449 659.991 656.367 660.558C651.825 661.818 648.734 664.811 647.661 669.41C646.999 672.34 646.652 675.396 646.652 678.42C646.557 691.242 646.62 704.063 646.62 716.885C646.62 720.665 645.201 722.051 641.353 722.051C638.041 722.051 634.729 722.051 631.417 722.051C628.263 722.051 626.623 720.476 626.623 717.357C626.623 693.51 626.623 669.631 626.623 645.783C626.623 642.696 628.168 641.152 631.259 641.152C634.887 641.152 638.514 641.121 642.141 641.152C645.043 641.184 646.589 642.728 646.62 645.626C646.62 646.571 646.62 647.484 646.62 648.839C647.314 648.367 647.724 648.115 648.071 647.799C653.023 643.326 658.89 641.31 665.483 641.152C668.321 641.089 671.16 641.152 673.999 641.089C676.175 641.026 677.753 641.814 678.573 643.925C678.667 644.177 679.014 644.334 679.235 644.523C679.204 648.398 679.204 652.273 679.204 656.148Z" fill="#1A202C"/>
<path d="M222.534 648.587C222.881 648.304 223.26 648.02 223.575 647.705C230.861 641.027 239.567 638.696 249.219 639.767C253.004 640.176 256.821 640.995 260.353 642.287C268.397 645.248 272.812 651.706 275.62 659.424C277.26 663.992 278.08 668.749 278.112 673.569C278.206 688.218 278.143 702.898 278.143 717.547C278.143 720.288 276.471 721.989 273.759 721.989C270.037 722.02 266.283 722.02 262.561 721.989C259.817 721.957 258.177 720.288 258.177 717.547C258.177 704.41 258.24 691.274 258.114 678.137C258.082 675.207 257.704 672.151 256.852 669.348C254.171 660.212 246.979 656.81 238.337 657.471C229 658.196 223.449 665.473 222.376 673.821C222.187 675.365 222.092 676.94 222.061 678.515C222.029 691.274 222.061 704.064 222.061 716.822C222.061 720.54 220.641 721.957 216.951 721.989C213.544 721.989 210.106 721.989 206.7 721.989C203.703 721.989 202.032 720.319 202.032 717.295C202.032 683.524 202.063 649.753 202 616.014C202 613.021 204.744 610.942 207.078 611.005C210.233 611.068 213.387 611.099 216.541 611.005C219.853 610.91 222.219 613.147 222.156 616.581C221.966 626.567 222.092 636.585 222.092 646.571C222.092 647.17 222.092 647.8 222.092 648.398C222.25 648.461 222.408 648.524 222.534 648.587Z" fill="#1A202C"/>
<path d="M405.637 648.966C407.151 647.706 408.192 646.761 409.296 645.91C416.172 640.555 424.121 638.853 432.606 639.798C436.422 640.239 440.333 640.996 443.929 642.35C451.783 645.248 456.168 651.549 458.975 659.11C461.025 664.591 461.688 670.293 461.688 676.058C461.751 689.73 461.719 703.371 461.719 717.043C461.719 720.571 460.174 722.083 456.609 722.083C453.203 722.083 449.765 722.083 446.358 722.083C443.298 722.083 441.721 720.508 441.721 717.421C441.721 704.599 441.784 691.778 441.658 678.956C441.627 675.743 441.28 672.435 440.365 669.379C437.684 660.37 430.555 656.904 421.944 657.566C411.945 658.322 407.025 666.135 405.952 673.695C405.668 675.648 405.605 677.665 405.605 679.649C405.574 692.093 405.605 704.568 405.605 717.011C405.605 720.666 404.123 722.083 400.432 722.083C397.057 722.083 393.714 722.083 390.339 722.083C387.248 722.083 385.639 720.508 385.639 717.452C385.639 693.542 385.639 669.6 385.639 645.689C385.639 642.697 387.185 641.185 390.213 641.153C393.746 641.122 397.247 641.153 400.779 641.153C404.123 641.153 405.605 642.634 405.605 645.91C405.637 646.761 405.637 647.611 405.637 648.966Z" fill="#1A202C"/>
<path d="M484.43 678.074C484.43 672.435 484.398 666.765 484.461 661.126C484.461 659.897 484.083 659.488 482.853 659.519C480.109 659.582 477.396 659.551 474.652 659.551C471.498 659.519 469.889 657.944 469.857 654.825C469.857 651.738 469.857 648.651 469.857 645.564C469.857 642.791 471.466 641.185 474.242 641.153C477.081 641.122 479.919 641.09 482.758 641.153C484.083 641.185 484.461 640.712 484.43 639.421C484.367 631.734 484.525 624.016 484.335 616.329C484.272 613.242 486.796 610.911 489.761 611.005C492.852 611.1 495.974 611.131 499.066 611.005C501.81 610.879 504.585 613.021 504.459 616.298C504.207 623.89 504.365 631.482 504.396 639.074C504.396 641.122 504.396 641.122 506.51 641.122C512.345 641.122 518.18 641.122 524.016 641.122C527.391 641.122 528.873 642.634 528.905 646.036C528.905 648.966 528.936 651.896 528.905 654.825C528.873 657.85 527.264 659.488 524.236 659.519C518.18 659.551 512.156 659.551 506.1 659.488C504.806 659.488 504.396 659.897 504.396 661.189C504.428 671.711 504.396 682.233 504.459 692.755C504.459 694.046 504.68 695.369 504.996 696.629C506.1 700.882 509.065 703.151 513.922 703.403C517.865 703.592 521.808 703.592 525.75 703.623C528.936 703.655 530.387 705.072 530.419 708.222C530.45 711.404 530.45 714.617 530.419 717.799C530.387 720.319 528.81 722.052 526.318 722.021C519.978 721.895 513.575 722.021 507.298 721.359C494.113 720.004 485.502 710.869 484.777 697.669C484.43 691.148 484.714 684.595 484.714 678.043C484.588 678.074 484.493 678.074 484.43 678.074Z" fill="#1A202C"/>
<g filter="url(#filter2_d)">
<rect x="344" y="936" width="1456" height="336" rx="20" fill="white"/>
</g>
<path d="M1043 936H1780C1791.05 936 1800 944.954 1800 956V1252C1800 1263.05 1791.05 1272 1780 1272H1043V936Z" fill="#196AFF"/>
<path d="M1181.63 1131.08C1177.12 1131.08 1173.06 1130 1169.46 1127.84L1172.2 1119.34C1173.26 1120.06 1174.58 1120.64 1176.16 1121.07C1177.79 1121.5 1179.47 1121.72 1181.2 1121.72C1185.18 1121.72 1188.3 1120.52 1190.56 1118.12C1192.86 1115.67 1194.21 1112.02 1194.59 1107.18C1193.44 1108.76 1191.9 1110.03 1189.98 1110.99C1188.11 1111.9 1185.9 1112.36 1183.36 1112.36C1181.01 1112.36 1178.82 1111.95 1176.81 1111.14C1174.84 1110.32 1173.11 1109.19 1171.62 1107.75C1170.14 1106.26 1168.96 1104.56 1168.1 1102.64C1167.28 1100.67 1166.87 1098.54 1166.87 1096.23C1166.87 1093.83 1167.33 1091.6 1168.24 1089.54C1169.15 1087.47 1170.42 1085.67 1172.06 1084.14C1173.74 1082.6 1175.68 1081.4 1177.89 1080.54C1180.1 1079.67 1182.5 1079.24 1185.09 1079.24C1187.97 1079.24 1190.61 1079.82 1193.01 1080.97C1195.46 1082.07 1197.57 1083.7 1199.34 1085.86C1201.12 1087.98 1202.49 1090.57 1203.45 1093.64C1204.41 1096.71 1204.89 1100.19 1204.89 1104.08C1204.89 1108.06 1204.36 1111.71 1203.3 1115.02C1202.25 1118.34 1200.71 1121.19 1198.7 1123.59C1196.68 1125.99 1194.23 1127.84 1191.35 1129.14C1188.52 1130.43 1185.28 1131.08 1181.63 1131.08ZM1185.09 1103.94C1186.58 1103.94 1187.92 1103.6 1189.12 1102.93C1190.32 1102.26 1191.26 1101.34 1191.93 1100.19C1192.65 1098.99 1193.01 1097.65 1193.01 1096.16C1193.01 1094.62 1192.65 1093.26 1191.93 1092.06C1191.26 1090.86 1190.32 1089.9 1189.12 1089.18C1187.92 1088.46 1186.6 1088.1 1185.16 1088.1C1183.67 1088.1 1182.33 1088.46 1181.13 1089.18C1179.93 1089.85 1178.97 1090.81 1178.25 1092.06C1177.58 1093.26 1177.24 1094.6 1177.24 1096.09C1177.24 1097.58 1177.58 1098.92 1178.25 1100.12C1178.97 1101.32 1179.9 1102.26 1181.06 1102.93C1182.26 1103.6 1183.6 1103.94 1185.09 1103.94ZM1230.14 1131.08C1227.21 1131.08 1224.57 1130.48 1222.22 1129.28C1219.91 1128.08 1217.92 1126.35 1216.24 1124.1C1214.61 1121.84 1213.36 1119.13 1212.5 1115.96C1211.63 1112.79 1211.2 1109.22 1211.2 1105.23C1211.2 1101.25 1211.63 1097.65 1212.5 1094.43C1213.41 1091.22 1214.68 1088.48 1216.31 1086.22C1217.99 1083.97 1220.01 1082.24 1222.36 1081.04C1224.76 1079.84 1227.45 1079.24 1230.42 1079.24C1233.35 1079.24 1235.97 1079.84 1238.27 1081.04C1240.62 1082.24 1242.62 1083.97 1244.25 1086.22C1245.93 1088.48 1247.2 1091.19 1248.06 1094.36C1248.93 1097.53 1249.36 1101.1 1249.36 1105.09C1249.36 1109.07 1248.9 1112.67 1247.99 1115.89C1247.13 1119.1 1245.86 1121.84 1244.18 1124.1C1242.54 1126.35 1240.53 1128.08 1238.13 1129.28C1235.78 1130.48 1233.11 1131.08 1230.14 1131.08ZM1230.28 1121.65C1233.06 1121.65 1235.2 1120.23 1236.69 1117.4C1238.22 1114.52 1238.99 1110.44 1238.99 1105.16C1238.99 1099.88 1238.22 1095.82 1236.69 1092.99C1235.2 1090.11 1233.06 1088.67 1230.28 1088.67C1227.5 1088.67 1225.34 1090.11 1223.8 1092.99C1222.31 1095.82 1221.57 1099.88 1221.57 1105.16C1221.57 1110.44 1222.31 1114.52 1223.8 1117.4C1225.34 1120.23 1227.5 1121.65 1230.28 1121.65ZM1266.36 1102.28C1264.16 1102.28 1262.19 1101.8 1260.46 1100.84C1258.78 1099.83 1257.44 1098.49 1256.43 1096.81C1255.42 1095.13 1254.92 1093.21 1254.92 1091.05C1254.92 1089.42 1255.2 1087.93 1255.78 1086.58C1256.36 1085.19 1257.17 1083.99 1258.23 1082.98C1259.28 1081.93 1260.51 1081.11 1261.9 1080.54C1263.34 1079.96 1264.9 1079.67 1266.58 1079.67C1268.21 1079.67 1269.72 1079.96 1271.12 1080.54C1272.51 1081.11 1273.73 1081.9 1274.79 1082.91C1275.84 1083.92 1276.66 1085.12 1277.24 1086.51C1277.81 1087.86 1278.1 1089.34 1278.1 1090.98C1278.1 1092.61 1277.79 1094.12 1277.16 1095.51C1276.59 1096.86 1275.77 1098.03 1274.72 1099.04C1273.66 1100.05 1272.41 1100.84 1270.97 1101.42C1269.58 1101.99 1268.04 1102.28 1266.36 1102.28ZM1268.24 1130H1260.17L1291.28 1080.32H1299.34L1268.24 1130ZM1262.4 1090.98C1262.4 1092.32 1262.79 1093.45 1263.56 1094.36C1264.37 1095.27 1265.36 1095.73 1266.51 1095.73C1267.66 1095.73 1268.62 1095.27 1269.39 1094.36C1270.2 1093.45 1270.61 1092.32 1270.61 1090.98C1270.61 1089.63 1270.2 1088.5 1269.39 1087.59C1268.62 1086.68 1267.66 1086.22 1266.51 1086.22C1265.36 1086.22 1264.37 1086.68 1263.56 1087.59C1262.79 1088.5 1262.4 1089.63 1262.4 1090.98ZM1292.93 1130.65C1290.77 1130.65 1288.83 1130.17 1287.1 1129.21C1285.37 1128.2 1284 1126.86 1283 1125.18C1281.99 1123.5 1281.48 1121.58 1281.48 1119.42C1281.48 1117.78 1281.77 1116.3 1282.35 1114.95C1282.92 1113.56 1283.74 1112.36 1284.8 1111.35C1285.85 1110.3 1287.08 1109.48 1288.47 1108.9C1289.91 1108.33 1291.47 1108.04 1293.15 1108.04C1294.78 1108.04 1296.29 1108.33 1297.68 1108.9C1299.08 1109.48 1300.3 1110.27 1301.36 1111.28C1302.41 1112.29 1303.23 1113.49 1303.8 1114.88C1304.38 1116.22 1304.67 1117.71 1304.67 1119.34C1304.67 1120.98 1304.36 1122.49 1303.73 1123.88C1303.16 1125.22 1302.34 1126.4 1301.28 1127.41C1300.23 1128.42 1298.98 1129.21 1297.54 1129.78C1296.15 1130.36 1294.61 1130.65 1292.93 1130.65ZM1293.08 1124.1C1294.23 1124.1 1295.19 1123.64 1295.96 1122.73C1296.77 1121.82 1297.18 1120.69 1297.18 1119.34C1297.18 1118 1296.77 1116.87 1295.96 1115.96C1295.19 1115.05 1294.23 1114.59 1293.08 1114.59C1291.92 1114.59 1290.94 1115.05 1290.12 1115.96C1289.36 1116.87 1288.97 1118 1288.97 1119.34C1288.97 1120.69 1289.36 1121.82 1290.12 1122.73C1290.94 1123.64 1291.92 1124.1 1293.08 1124.1ZM1344.4 1131.08C1341.57 1131.08 1338.95 1130.58 1336.55 1129.57C1334.15 1128.56 1332.06 1127.17 1330.29 1125.39C1328.51 1123.57 1327.12 1121.43 1326.11 1118.98C1325.15 1116.54 1324.67 1113.87 1324.67 1110.99C1324.67 1108.11 1325.17 1105.47 1326.18 1103.07C1327.19 1100.62 1328.58 1098.49 1330.36 1096.66C1332.18 1094.84 1334.29 1093.42 1336.69 1092.42C1339.14 1091.41 1341.81 1090.9 1344.69 1090.9C1347.52 1090.9 1350.13 1091.41 1352.53 1092.42C1354.93 1093.42 1357.02 1094.84 1358.8 1096.66C1360.57 1098.44 1361.94 1100.55 1362.9 1103C1363.91 1105.4 1364.41 1108.04 1364.41 1110.92C1364.41 1113.8 1363.91 1116.46 1362.9 1118.91C1361.89 1121.36 1360.48 1123.5 1358.65 1125.32C1356.88 1127.14 1354.77 1128.56 1352.32 1129.57C1349.92 1130.58 1347.28 1131.08 1344.4 1131.08ZM1344.54 1122.01C1346.37 1122.01 1348 1121.53 1349.44 1120.57C1350.88 1119.61 1352.01 1118.31 1352.82 1116.68C1353.69 1115 1354.12 1113.1 1354.12 1110.99C1354.12 1108.88 1353.69 1107.01 1352.82 1105.38C1352.01 1103.7 1350.88 1102.38 1349.44 1101.42C1348 1100.46 1346.37 1099.98 1344.54 1099.98C1342.72 1099.98 1341.09 1100.46 1339.65 1101.42C1338.21 1102.38 1337.05 1103.7 1336.19 1105.38C1335.37 1107.01 1334.97 1108.88 1334.97 1110.99C1334.97 1113.1 1335.37 1115 1336.19 1116.68C1337.05 1118.31 1338.21 1119.61 1339.65 1120.57C1341.09 1121.53 1342.72 1122.01 1344.54 1122.01ZM1373.66 1130V1099.9H1367.18V1091.98H1373.66V1089.82C1373.66 1087.76 1373.99 1085.86 1374.67 1084.14C1375.39 1082.36 1376.37 1080.85 1377.62 1079.6C1378.91 1078.3 1380.43 1077.32 1382.15 1076.65C1383.93 1075.93 1385.85 1075.57 1387.91 1075.57C1389.5 1075.57 1390.91 1075.76 1392.16 1076.14C1393.46 1076.53 1394.56 1076.96 1395.47 1077.44L1393.46 1085.14C1392.88 1084.86 1392.21 1084.62 1391.44 1084.42C1390.72 1084.18 1390.03 1084.06 1389.35 1084.06C1387.43 1084.06 1386.02 1084.64 1385.11 1085.79C1384.19 1086.9 1383.74 1088.46 1383.74 1090.47V1091.98H1398.28V1089.82C1398.28 1087.76 1398.62 1085.86 1399.29 1084.14C1400.01 1082.36 1400.99 1080.85 1402.24 1079.6C1403.54 1078.3 1405.05 1077.32 1406.78 1076.65C1408.55 1075.93 1410.47 1075.57 1412.54 1075.57C1414.12 1075.57 1415.54 1075.76 1416.79 1076.14C1418.08 1076.53 1419.19 1076.96 1420.1 1077.44L1418.08 1085.14C1417.51 1084.86 1416.83 1084.62 1416.07 1084.42C1415.35 1084.18 1414.65 1084.06 1413.98 1084.06C1412.06 1084.06 1410.64 1084.64 1409.73 1085.79C1408.82 1086.9 1408.36 1088.46 1408.36 1090.47V1091.98H1418.44V1099.9H1408.36V1130H1398.28V1099.9H1383.74V1130H1373.66Z" fill="white"/>
<path fill-rule="evenodd" clip-rule="evenodd" d="M522.971 1101.75C522.971 1079.67 515.475 1063.33 497.234 1063.33L487.737 1064.28V1142.09L497.984 1143.04C513.227 1143.04 522.971 1126.21 522.971 1101.75ZM460.002 1143.04L468.375 1142.09V1064.28L460.002 1063.33V1061.42H501.233C528.594 1061.42 543.587 1076.57 543.587 1101.27C543.587 1125.86 530.343 1143.04 500.859 1144.95H460V1143.04H460.002ZM589.289 1118.43C589.289 1097.78 583.583 1087.82 576.808 1087.82C570.629 1087.82 567.062 1095.02 567.062 1111.34C567.062 1131.03 572.53 1141.71 579.424 1141.71C585.721 1141.71 589.287 1134.27 589.287 1118.43H589.289ZM549.353 1116.15C549.353 1096.34 563.259 1088.66 580.375 1084.46C595.707 1084.46 606.998 1096.1 606.998 1113.14C606.998 1132.95 593.209 1140.87 575.857 1144.95C560.763 1144.95 549.353 1133.31 549.353 1116.15ZM615.645 1117.34C615.645 1098.14 631.07 1087.34 647.897 1084.46C653.888 1084.46 661.407 1087.34 666.508 1090.94V1104.14H652.102L647.768 1088.06C646.62 1087.58 645.601 1087.46 644.58 1087.46C638.334 1087.46 631.579 1092.62 631.579 1107.03C631.579 1121.79 640.248 1132.59 652.994 1132.59C658.476 1132.59 662.045 1131.39 666.889 1128.51L667.525 1129.59C659.878 1136.67 654.269 1140.63 645.22 1144.95C628.393 1144.95 615.645 1134.27 615.645 1117.34ZM670.408 1137.77V1115.87H672.272L678.565 1131.06C683.224 1136.59 688.934 1141.42 696.508 1141.42C705.015 1141.42 710.723 1136.24 710.723 1128.23C710.723 1121.76 707.694 1117.29 699.422 1112.1L684.041 1101.74C676.118 1096.45 670.759 1091.62 670.759 1081.96C670.759 1070.9 678.333 1062.19 698.954 1058.54C708.626 1058.54 713.519 1059.6 721.909 1062.77V1084.2H720.046L712.589 1067.13C708.977 1063.36 704.664 1061.13 699.305 1061.13C691.614 1061.13 686.021 1065.6 686.021 1073.25C686.021 1079.73 690.1 1083.49 696.625 1087.62L711.655 1097.74C721.093 1103.75 725.171 1109.52 725.171 1118.82C725.171 1130.71 717.016 1139.89 694.876 1144.95C685.321 1144.95 678.333 1142.71 670.41 1137.77L670.408 1137.77ZM748.955 1106.9V1108.7H767.753V1103.66C767.753 1093.7 765.8 1088.06 758.963 1088.06C752.373 1088.06 748.955 1094.06 748.955 1106.9ZM785.7 1129.11C777.884 1136.79 772.027 1140.75 762.748 1144.95C747.002 1144.95 733.819 1134.75 733.819 1117.34C733.819 1098.74 747.367 1087.58 763.359 1084.46C775.81 1084.46 785.575 1091.66 785.575 1106.06V1110.62H749.074C750.422 1123.59 758.353 1131.99 770.316 1131.99C775.81 1131.99 779.96 1130.31 784.599 1127.67L785.7 1129.11V1129.11ZM786.078 1142.97L792.744 1141.98V1090.77L785.951 1091.88L785.7 1089.78L808.213 1085.08H810.225V1097.94L832.488 1084.46C845.062 1084.46 847.58 1090.03 847.58 1102.52V1141.98L854.875 1142.97V1144.95H824.562V1142.97L829.342 1141.98V1101.9C829.342 1096.58 827.33 1094.36 823.557 1094.36C819.784 1094.36 817.394 1095.97 813.746 1098.07L810.225 1100.17V1141.98L815.003 1142.97V1144.95H786.076V1142.97L786.078 1142.97Z" fill="#1A202C"/>
<mask id="mask0" mask-type="alpha" maskUnits="userSpaceOnUse" x="855" y="1058" width="66" height="89">
<path d="M855.991 1058.88H920.966V1146.41H855.991V1058.88Z" fill="white"/>
</mask>
<g mask="url(#mask0)">
<path fill-rule="evenodd" clip-rule="evenodd" d="M893.739 1133.16L895.473 1131.96V1092.35C894.111 1090.78 891.758 1089.34 888.665 1089.34C879.257 1089.46 874.927 1098.73 874.927 1112.82C874.927 1126.3 879.011 1135.93 886.436 1135.93C889.159 1135.93 890.398 1135.33 893.739 1133.16V1133.16ZM855.991 1118.96C855.991 1102.82 863.543 1089.58 882.973 1085.73C887.676 1085.73 891.758 1086.69 895.473 1088.98V1063.69L889.036 1064.54L888.788 1062.37L910.696 1058.88H912.675V1129.43C912.675 1134.12 912.923 1136.29 914.406 1139.9L920.721 1139.42L920.966 1141.35L899.308 1145.68L895.844 1134.01L879.878 1146.41C866.388 1146.41 855.991 1134.73 855.991 1118.96Z" fill="#1A202C"/>
</g>
<defs>
<filter id="filter0_d" x="264" y="0" width="1616" height="496" filterUnits="userSpaceOnUse" color-interpolation-filters="sRGB">
<feFlood flood-opacity="0" result="BackgroundImageFix"/>
<feColorMatrix in="SourceAlpha" type="matrix" values="0 0 0 0 0 0 0 0 0 0 0 0 0 0 0 0 0 0 127 0"/>
<feOffset dy="16"/>
<feGaussianBlur stdDeviation="40"/>
<feColorMatrix type="matrix" values="0 0 0 0 0.101961 0 0 0 0 0.12549 0 0 0 0 0.172549 0 0 0 0.15 0"/>
<feBlend mode="normal" in2="BackgroundImageFix" result="effect1_dropShadow"/>
<feBlend mode="normal" in="SourceGraphic" in2="effect1_dropShadow" result="shape"/>
</filter>
<filter id="filter1_d" x="0" y="436" width="1616" height="496" filterUnits="userSpaceOnUse" color-interpolation-filters="sRGB">
<feFlood flood-opacity="0" result="BackgroundImageFix"/>
<feColorMatrix in="SourceAlpha" type="matrix" values="0 0 0 0 0 0 0 0 0 0 0 0 0 0 0 0 0 0 127 0"/>
<feOffset dy="16"/>
<feGaussianBlur stdDeviation="40"/>
<feColorMatrix type="matrix" values="0 0 0 0 0.101961 0 0 0 0 0.12549 0 0 0 0 0.172549 0 0 0 0.15 0"/>
<feBlend mode="normal" in2="BackgroundImageFix" result="effect1_dropShadow"/>
<feBlend mode="normal" in="SourceGraphic" in2="effect1_dropShadow" result="shape"/>
</filter>
<filter id="filter2_d" x="264" y="872" width="1616" height="496" filterUnits="userSpaceOnUse" color-interpolation-filters="sRGB">
<feFlood flood-opacity="0" result="BackgroundImageFix"/>
<feColorMatrix in="SourceAlpha" type="matrix" values="0 0 0 0 0 0 0 0 0 0 0 0 0 0 0 0 0 0 127 0"/>
<feOffset dy="16"/>
<feGaussianBlur stdDeviation="40"/>
<feColorMatrix type="matrix" values="0 0 0 0 0.101961 0 0 0 0 0.12549 0 0 0 0 0.172549 0 0 0 0.15 0"/>
<feBlend mode="normal" in2="BackgroundImageFix" result="effect1_dropShadow"/>
<feBlend mode="normal" in="SourceGraphic" in2="effect1_dropShadow" result="shape"/>
</filter>
</defs>
</svg>
