<svg width="408" height="324" viewBox="0 0 408 324" fill="none" xmlns="http://www.w3.org/2000/svg">
<circle cx="204" cy="162" r="158" stroke="#EBF0F5" stroke-width="8"/>
<circle cx="204" cy="162" r="111.375" fill="#EBF0F5"/>
<circle cx="204" cy="162" r="63" fill="#C5D4E3"/>
<g filter="url(#filter0_d)">
<rect x="129" y="35" width="259" height="77" rx="5" fill="white"/>
</g>
<circle cx="167.5" cy="73.5" r="22.5" fill="#1A202C"/>
<mask id="mask0" mask-type="alpha" maskUnits="userSpaceOnUse" x="145" y="51" width="45" height="45">
<circle cx="167.5" cy="73.5" r="22.5" fill="#C4C4C4"/>
</mask>
<g mask="url(#mask0)">
<circle cx="167.5" cy="73.501" r="10.875" fill="white"/>
<ellipse cx="162.812" cy="71.8397" rx="1.52679" ry="1.55357" fill="#1A202C"/>
<path d="M169.803 74.4111C169.589 75.4467 168.772 76.2861 167.5 76.2861C166.228 76.2861 165.411 75.4467 165.196 74.4111" stroke="#1A202C" stroke-width="1.07143" stroke-linecap="round" stroke-linejoin="round"/>
<ellipse cx="172.187" cy="71.8397" rx="1.52679" ry="1.55357" fill="#1A202C"/>
<circle cx="167.5" cy="91.4454" r="7.07143" fill="#196AFF"/>
</g>
<rect x="202" y="72" width="105" height="24" rx="5" fill="#E1FAF3"/>
<path d="M214.348 88.18C213.868 88.18 213.42 88.096 213.004 87.928C212.596 87.752 212.248 87.508 211.96 87.196C211.672 86.884 211.468 86.512 211.348 86.08L212.728 85.744C212.856 86.112 213.06 86.396 213.34 86.596C213.62 86.796 213.96 86.896 214.36 86.896C214.648 86.896 214.904 86.84 215.128 86.728C215.352 86.616 215.528 86.464 215.656 86.272C215.792 86.08 215.86 85.86 215.86 85.612C215.86 85.308 215.748 85.056 215.524 84.856C215.308 84.648 214.964 84.492 214.492 84.388L214.048 84.292C213.2 84.108 212.572 83.804 212.164 83.38C211.764 82.956 211.564 82.44 211.564 81.832C211.564 81.464 211.636 81.128 211.78 80.824C211.924 80.512 212.124 80.244 212.38 80.02C212.636 79.788 212.936 79.612 213.28 79.492C213.624 79.364 213.996 79.3 214.396 79.3C214.852 79.3 215.272 79.384 215.656 79.552C216.04 79.72 216.368 79.96 216.64 80.272C216.912 80.576 217.104 80.94 217.216 81.364L215.848 81.7C215.72 81.34 215.528 81.064 215.272 80.872C215.016 80.68 214.712 80.584 214.36 80.584C214.104 80.584 213.876 80.636 213.676 80.74C213.484 80.836 213.328 80.972 213.208 81.148C213.096 81.316 213.04 81.508 213.04 81.724C213.04 82.036 213.156 82.284 213.388 82.468C213.62 82.652 213.976 82.8 214.456 82.912L214.9 83.008C216.532 83.376 217.348 84.204 217.348 85.492C217.348 85.884 217.272 86.248 217.12 86.584C216.976 86.912 216.768 87.196 216.496 87.436C216.224 87.668 215.904 87.852 215.536 87.988C215.176 88.116 214.78 88.18 214.348 88.18ZM221.609 88.18C221.145 88.18 220.717 88.1 220.325 87.94C219.941 87.772 219.605 87.54 219.317 87.244C219.029 86.948 218.805 86.6 218.645 86.2C218.493 85.792 218.417 85.344 218.417 84.856C218.417 84.384 218.493 83.948 218.645 83.548C218.805 83.148 219.021 82.8 219.293 82.504C219.573 82.2 219.901 81.964 220.277 81.796C220.653 81.628 221.061 81.544 221.501 81.544C221.941 81.544 222.341 81.624 222.701 81.784C223.069 81.936 223.385 82.156 223.649 82.444C223.921 82.732 224.129 83.076 224.273 83.476C224.417 83.868 224.489 84.304 224.489 84.784V85.192H219.845C219.885 85.56 219.981 85.88 220.133 86.152C220.293 86.416 220.497 86.62 220.745 86.764C220.993 86.908 221.281 86.98 221.609 86.98C222.265 86.98 222.777 86.688 223.145 86.104L224.357 86.572C224.213 86.9 224.001 87.188 223.721 87.436C223.449 87.676 223.129 87.86 222.761 87.988C222.401 88.116 222.017 88.18 221.609 88.18ZM221.501 82.66C221.221 82.66 220.969 82.724 220.745 82.852C220.529 82.98 220.345 83.16 220.193 83.392C220.041 83.624 219.937 83.896 219.881 84.208H223.049C223.001 83.896 222.909 83.624 222.773 83.392C222.637 83.16 222.457 82.98 222.233 82.852C222.017 82.724 221.773 82.66 221.501 82.66ZM228.64 88.18C228.176 88.18 227.748 88.1 227.356 87.94C226.972 87.772 226.636 87.54 226.348 87.244C226.06 86.948 225.836 86.6 225.676 86.2C225.524 85.792 225.448 85.344 225.448 84.856C225.448 84.384 225.524 83.948 225.676 83.548C225.836 83.148 226.052 82.8 226.324 82.504C226.604 82.2 226.932 81.964 227.308 81.796C227.684 81.628 228.092 81.544 228.532 81.544C228.972 81.544 229.372 81.624 229.732 81.784C230.1 81.936 230.416 82.156 230.68 82.444C230.952 82.732 231.16 83.076 231.304 83.476C231.448 83.868 231.52 84.304 231.52 84.784V85.192H226.876C226.916 85.56 227.012 85.88 227.164 86.152C227.324 86.416 227.528 86.62 227.776 86.764C228.024 86.908 228.312 86.98 228.64 86.98C229.296 86.98 229.808 86.688 230.176 86.104L231.388 86.572C231.244 86.9 231.032 87.188 230.752 87.436C230.48 87.676 230.16 87.86 229.792 87.988C229.432 88.116 229.048 88.18 228.64 88.18ZM228.532 82.66C228.252 82.66 228 82.724 227.776 82.852C227.56 82.98 227.376 83.16 227.224 83.392C227.072 83.624 226.968 83.896 226.912 84.208H230.08C230.032 83.896 229.94 83.624 229.804 83.392C229.668 83.16 229.488 82.98 229.264 82.852C229.048 82.724 228.804 82.66 228.532 82.66ZM232.697 88V79.072H234.077V84.316L236.645 81.724H238.325L235.505 84.508L238.613 88H236.801L234.077 84.832V88H232.697ZM240.948 79.972C240.948 80.124 240.908 80.264 240.828 80.392C240.756 80.52 240.656 80.624 240.528 80.704C240.4 80.776 240.26 80.812 240.108 80.812C239.956 80.812 239.816 80.776 239.688 80.704C239.56 80.624 239.456 80.52 239.376 80.392C239.304 80.264 239.268 80.124 239.268 79.972C239.268 79.82 239.304 79.68 239.376 79.552C239.456 79.424 239.56 79.324 239.688 79.252C239.816 79.172 239.956 79.132 240.108 79.132C240.26 79.132 240.4 79.172 240.528 79.252C240.656 79.324 240.756 79.424 240.828 79.552C240.908 79.68 240.948 79.82 240.948 79.972ZM239.424 88V81.724H240.804V88H239.424ZM242.295 88V81.724H243.555L243.603 82.588C243.787 82.268 244.043 82.016 244.371 81.832C244.707 81.64 245.091 81.544 245.523 81.544C245.995 81.544 246.403 81.656 246.747 81.88C247.099 82.104 247.371 82.42 247.563 82.828C247.755 83.236 247.851 83.716 247.851 84.268V88H246.471V84.424C246.471 83.912 246.355 83.512 246.123 83.224C245.899 82.936 245.583 82.792 245.175 82.792C244.887 82.792 244.627 82.86 244.395 82.996C244.171 83.132 243.995 83.316 243.867 83.548C243.739 83.78 243.675 84.048 243.675 84.352V88H242.295ZM251.954 87.88C251.546 87.88 251.166 87.8 250.814 87.64C250.462 87.48 250.154 87.26 249.89 86.98C249.626 86.692 249.422 86.36 249.278 85.984C249.134 85.6 249.062 85.184 249.062 84.736C249.062 84.288 249.134 83.872 249.278 83.488C249.43 83.096 249.642 82.756 249.914 82.468C250.186 82.18 250.502 81.956 250.862 81.796C251.222 81.628 251.61 81.544 252.026 81.544C252.458 81.544 252.85 81.64 253.202 81.832C253.562 82.016 253.85 82.276 254.066 82.612L254.114 81.724H255.374V87.34C255.374 87.82 255.298 88.256 255.146 88.648C254.994 89.048 254.778 89.388 254.498 89.668C254.218 89.956 253.882 90.176 253.49 90.328C253.106 90.48 252.674 90.556 252.194 90.556C251.554 90.556 250.994 90.412 250.514 90.124C250.034 89.836 249.658 89.436 249.386 88.924L250.694 88.468C250.87 88.756 251.09 88.972 251.354 89.116C251.618 89.268 251.914 89.344 252.242 89.344C252.594 89.344 252.902 89.264 253.166 89.104C253.43 88.952 253.634 88.732 253.778 88.444C253.922 88.164 253.994 87.832 253.994 87.448V86.848C253.77 87.168 253.482 87.42 253.13 87.604C252.778 87.788 252.386 87.88 251.954 87.88ZM252.242 86.632C252.578 86.632 252.878 86.548 253.142 86.38C253.414 86.212 253.626 85.984 253.778 85.696C253.938 85.408 254.018 85.08 254.018 84.712C254.018 84.344 253.938 84.016 253.778 83.728C253.626 83.44 253.414 83.212 253.142 83.044C252.878 82.876 252.578 82.792 252.242 82.792C251.906 82.792 251.606 82.876 251.342 83.044C251.078 83.212 250.866 83.44 250.706 83.728C250.554 84.016 250.478 84.344 250.478 84.712C250.478 85.08 250.554 85.408 250.706 85.696C250.866 85.984 251.078 86.212 251.342 86.38C251.606 86.548 251.906 86.632 252.242 86.632ZM262.008 88.18C261.376 88.18 260.88 88 260.52 87.64C260.16 87.272 259.98 86.748 259.98 86.068V82.84H258.876V81.724H259.98V79.6H261.36V81.724H263.184V82.84H261.36V85.924C261.36 86.26 261.428 86.52 261.564 86.704C261.708 86.88 261.916 86.968 262.188 86.968C262.332 86.968 262.488 86.948 262.656 86.908C262.824 86.86 262.98 86.796 263.124 86.716L263.436 87.76C263.252 87.888 263.036 87.988 262.788 88.06C262.548 88.14 262.288 88.18 262.008 88.18ZM267.324 88.18C266.868 88.18 266.444 88.1 266.052 87.94C265.668 87.772 265.332 87.54 265.044 87.244C264.756 86.94 264.532 86.588 264.372 86.188C264.212 85.78 264.132 85.336 264.132 84.856C264.132 84.384 264.212 83.948 264.372 83.548C264.532 83.14 264.756 82.788 265.044 82.492C265.34 82.188 265.684 81.956 266.076 81.796C266.476 81.628 266.908 81.544 267.372 81.544C267.828 81.544 268.248 81.628 268.632 81.796C269.024 81.956 269.364 82.188 269.652 82.492C269.94 82.788 270.164 83.136 270.324 83.536C270.484 83.936 270.564 84.376 270.564 84.856C270.564 85.336 270.484 85.78 270.324 86.188C270.164 86.588 269.936 86.94 269.64 87.244C269.352 87.54 269.008 87.772 268.608 87.94C268.216 88.1 267.788 88.18 267.324 88.18ZM267.348 86.932C267.692 86.932 268 86.844 268.272 86.668C268.544 86.484 268.756 86.236 268.908 85.924C269.068 85.612 269.148 85.256 269.148 84.856C269.148 84.456 269.068 84.104 268.908 83.8C268.756 83.488 268.544 83.244 268.272 83.068C268 82.884 267.692 82.792 267.348 82.792C267.004 82.792 266.696 82.884 266.424 83.068C266.152 83.244 265.936 83.488 265.776 83.8C265.624 84.104 265.548 84.456 265.548 84.856C265.548 85.256 265.624 85.612 265.776 85.924C265.936 86.236 266.152 86.484 266.424 86.668C266.696 86.844 267.004 86.932 267.348 86.932ZM276.578 88.18C276.122 88.18 275.706 88.096 275.33 87.928C274.962 87.752 274.646 87.504 274.382 87.184C274.118 86.864 273.918 86.472 273.782 86.008L275.198 85.708C275.478 86.476 275.942 86.86 276.59 86.86C276.854 86.86 277.082 86.796 277.274 86.668C277.474 86.532 277.626 86.344 277.73 86.104C277.834 85.864 277.886 85.584 277.886 85.264V79.48H279.35V85.228C279.35 85.668 279.282 86.072 279.146 86.44C279.018 86.8 278.83 87.112 278.582 87.376C278.342 87.632 278.05 87.832 277.706 87.976C277.37 88.112 276.994 88.18 276.578 88.18ZM283.754 88.18C283.298 88.18 282.874 88.1 282.482 87.94C282.098 87.772 281.762 87.54 281.474 87.244C281.186 86.94 280.962 86.588 280.802 86.188C280.642 85.78 280.562 85.336 280.562 84.856C280.562 84.384 280.642 83.948 280.802 83.548C280.962 83.14 281.186 82.788 281.474 82.492C281.77 82.188 282.114 81.956 282.506 81.796C282.906 81.628 283.338 81.544 283.802 81.544C284.258 81.544 284.678 81.628 285.062 81.796C285.454 81.956 285.794 82.188 286.082 82.492C286.37 82.788 286.594 83.136 286.754 83.536C286.914 83.936 286.994 84.376 286.994 84.856C286.994 85.336 286.914 85.78 286.754 86.188C286.594 86.588 286.366 86.94 286.07 87.244C285.782 87.54 285.438 87.772 285.038 87.94C284.646 88.1 284.218 88.18 283.754 88.18ZM283.778 86.932C284.122 86.932 284.43 86.844 284.702 86.668C284.974 86.484 285.186 86.236 285.338 85.924C285.498 85.612 285.578 85.256 285.578 84.856C285.578 84.456 285.498 84.104 285.338 83.8C285.186 83.488 284.974 83.244 284.702 83.068C284.43 82.884 284.122 82.792 283.778 82.792C283.434 82.792 283.126 82.884 282.854 83.068C282.582 83.244 282.366 83.488 282.206 83.8C282.054 84.104 281.978 84.456 281.978 84.856C281.978 85.256 282.054 85.612 282.206 85.924C282.366 86.236 282.582 86.484 282.854 86.668C283.126 86.844 283.434 86.932 283.778 86.932ZM289.733 79.972C289.733 80.124 289.693 80.264 289.613 80.392C289.541 80.52 289.441 80.624 289.313 80.704C289.185 80.776 289.045 80.812 288.893 80.812C288.741 80.812 288.601 80.776 288.473 80.704C288.345 80.624 288.241 80.52 288.161 80.392C288.089 80.264 288.053 80.124 288.053 79.972C288.053 79.82 288.089 79.68 288.161 79.552C288.241 79.424 288.345 79.324 288.473 79.252C288.601 79.172 288.741 79.132 288.893 79.132C289.045 79.132 289.185 79.172 289.313 79.252C289.441 79.324 289.541 79.424 289.613 79.552C289.693 79.68 289.733 79.82 289.733 79.972ZM288.209 88V81.724H289.589V88H288.209ZM291.08 88V81.724H292.34L292.388 82.588C292.572 82.268 292.828 82.016 293.156 81.832C293.492 81.64 293.876 81.544 294.308 81.544C294.78 81.544 295.188 81.656 295.532 81.88C295.884 82.104 296.156 82.42 296.348 82.828C296.54 83.236 296.636 83.716 296.636 84.268V88H295.256V84.424C295.256 83.912 295.14 83.512 294.908 83.224C294.684 82.936 294.368 82.792 293.96 82.792C293.672 82.792 293.412 82.86 293.18 82.996C292.956 83.132 292.78 83.316 292.652 83.548C292.524 83.78 292.46 84.048 292.46 84.352V88H291.08Z" fill="#005A37"/>
<path d="M208.464 64.32C207.803 64.32 207.179 64.224 206.592 64.032C206.016 63.84 205.493 63.568 205.024 63.216C204.555 62.8533 204.149 62.4267 203.808 61.936C203.467 61.4453 203.2 60.9013 203.008 60.304C202.827 59.696 202.736 59.0453 202.736 58.352C202.736 57.6587 202.827 57.008 203.008 56.4C203.2 55.792 203.467 55.2373 203.808 54.736C204.16 54.2347 204.571 53.808 205.04 53.456C205.52 53.0933 206.048 52.816 206.624 52.624C207.211 52.4213 207.835 52.32 208.496 52.32C209.211 52.32 209.877 52.4373 210.496 52.672C211.125 52.9067 211.68 53.2427 212.16 53.68C212.64 54.1173 213.019 54.6347 213.296 55.232L211.44 55.856C211.131 55.3013 210.72 54.8747 210.208 54.576C209.707 54.2667 209.136 54.112 208.496 54.112C207.963 54.112 207.467 54.2187 207.008 54.432C206.56 54.6453 206.165 54.944 205.824 55.328C205.483 55.7013 205.216 56.144 205.024 56.656C204.843 57.168 204.752 57.7227 204.752 58.32C204.752 58.928 204.843 59.4933 205.024 60.016C205.216 60.528 205.483 60.9707 205.824 61.344C206.165 61.7173 206.565 62.0107 207.024 62.224C207.493 62.4267 208 62.528 208.544 62.528C209.173 62.528 209.728 62.4053 210.208 62.16C210.699 61.904 211.088 61.552 211.376 61.104C211.664 60.656 211.829 60.1333 211.872 59.536H208.768V57.904H213.872V58.976C213.872 59.7653 213.739 60.4853 213.472 61.136C213.216 61.7867 212.843 62.352 212.352 62.832C211.872 63.3013 211.301 63.6693 210.64 63.936C209.989 64.192 209.264 64.32 208.464 64.32ZM215.57 64V55.632H217.25L217.33 57.008C217.543 56.5387 217.837 56.176 218.21 55.92C218.594 55.6533 219.042 55.52 219.554 55.52C219.714 55.52 219.869 55.5307 220.018 55.552C220.167 55.5733 220.301 55.6107 220.418 55.664L220.21 57.456C220.093 57.4133 219.97 57.3867 219.842 57.376C219.714 57.3547 219.586 57.344 219.458 57.344C218.818 57.344 218.317 57.5573 217.954 57.984C217.591 58.4107 217.41 59.0027 217.41 59.76V64H215.57ZM224.13 64.24C223.703 64.24 223.309 64.176 222.946 64.048C222.594 63.92 222.285 63.7387 222.018 63.504C221.751 63.2693 221.543 62.992 221.394 62.672C221.245 62.352 221.17 62 221.17 61.616C221.17 61.0827 221.309 60.6187 221.586 60.224C221.874 59.8187 222.274 59.504 222.786 59.28C223.298 59.056 223.895 58.944 224.578 58.944C224.951 58.944 225.309 58.9813 225.65 59.056C225.991 59.12 226.317 59.216 226.626 59.344V58.816C226.626 58.4427 226.557 58.1173 226.418 57.84C226.279 57.552 226.082 57.328 225.826 57.168C225.57 57.008 225.261 56.928 224.898 56.928C224.514 56.928 224.167 57.0293 223.858 57.232C223.549 57.4347 223.319 57.7173 223.17 58.08L221.474 57.696C221.602 57.2267 221.831 56.8213 222.162 56.48C222.503 56.1387 222.909 55.872 223.378 55.68C223.858 55.488 224.375 55.392 224.93 55.392C225.453 55.392 225.927 55.4773 226.354 55.648C226.791 55.8187 227.165 56.0587 227.474 56.368C227.783 56.6773 228.023 57.0453 228.194 57.472C228.365 57.8987 228.45 58.3733 228.45 58.896V64H226.77L226.706 62.896C226.482 63.3013 226.146 63.6267 225.698 63.872C225.25 64.1173 224.727 64.24 224.13 64.24ZM223.026 61.536C223.026 61.7707 223.09 61.984 223.218 62.176C223.346 62.3573 223.522 62.5013 223.746 62.608C223.981 62.7147 224.253 62.768 224.562 62.768C224.957 62.768 225.309 62.6827 225.618 62.512C225.927 62.3413 226.173 62.112 226.354 61.824C226.535 61.5253 226.626 61.1893 226.626 60.816V60.624C226.349 60.5067 226.061 60.416 225.762 60.352C225.474 60.2773 225.175 60.24 224.866 60.24C224.311 60.24 223.863 60.3573 223.522 60.592C223.191 60.8267 223.026 61.1413 223.026 61.536ZM230.43 67.168V55.632H232.11L232.19 56.976C232.488 56.4853 232.883 56.1013 233.374 55.824C233.864 55.536 234.414 55.392 235.022 55.392C235.576 55.392 236.088 55.504 236.558 55.728C237.038 55.952 237.454 56.2613 237.806 56.656C238.158 57.0507 238.43 57.5147 238.622 58.048C238.824 58.5813 238.926 59.1573 238.926 59.776C238.926 60.4053 238.824 60.992 238.622 61.536C238.419 62.08 238.136 62.5547 237.774 62.96C237.411 63.3653 236.984 63.68 236.494 63.904C236.014 64.128 235.491 64.24 234.926 64.24C234.371 64.24 233.864 64.1227 233.406 63.888C232.947 63.6533 232.568 63.3227 232.27 62.896V67.168H230.43ZM234.638 62.576C235.096 62.576 235.507 62.4587 235.87 62.224C236.232 61.9787 236.515 61.648 236.718 61.232C236.931 60.816 237.038 60.3413 237.038 59.808C237.038 59.2747 236.931 58.8053 236.718 58.4C236.515 57.984 236.232 57.6587 235.87 57.424C235.507 57.1787 235.096 57.056 234.638 57.056C234.179 57.056 233.768 57.1787 233.406 57.424C233.043 57.6587 232.755 57.984 232.542 58.4C232.339 58.8053 232.238 59.2747 232.238 59.808C232.238 60.3413 232.339 60.816 232.542 61.232C232.755 61.648 233.043 61.9787 233.406 62.224C233.768 62.4587 234.179 62.576 234.638 62.576ZM240.539 64V52.096H242.379V56.64C242.635 56.256 242.976 55.952 243.403 55.728C243.83 55.504 244.31 55.392 244.843 55.392C245.472 55.392 246.016 55.5413 246.475 55.84C246.944 56.1387 247.307 56.56 247.563 57.104C247.819 57.648 247.947 58.288 247.947 59.024V64H246.107V59.232C246.107 58.5493 245.952 58.016 245.643 57.632C245.344 57.248 244.923 57.056 244.379 57.056C243.995 57.056 243.648 57.1467 243.339 57.328C243.04 57.5093 242.806 57.7547 242.635 58.064C242.464 58.3733 242.379 58.7307 242.379 59.136V64H240.539ZM251.962 53.296C251.962 53.4987 251.908 53.6853 251.802 53.856C251.706 54.0267 251.572 54.1653 251.402 54.272C251.231 54.368 251.044 54.416 250.842 54.416C250.639 54.416 250.452 54.368 250.282 54.272C250.111 54.1653 249.972 54.0267 249.866 53.856C249.77 53.6853 249.722 53.4987 249.722 53.296C249.722 53.0933 249.77 52.9067 249.866 52.736C249.972 52.5653 250.111 52.432 250.282 52.336C250.452 52.2293 250.639 52.176 250.842 52.176C251.044 52.176 251.231 52.2293 251.402 52.336C251.572 52.432 251.706 52.5653 251.802 52.736C251.908 52.9067 251.962 53.0933 251.962 53.296ZM249.93 64V55.632H251.77V64H249.93ZM257.534 64.24C256.936 64.24 256.387 64.1333 255.886 63.92C255.384 63.696 254.947 63.392 254.574 63.008C254.2 62.6133 253.907 62.1493 253.694 61.616C253.491 61.0827 253.39 60.5013 253.39 59.872C253.39 59.2427 253.496 58.656 253.71 58.112C253.923 57.568 254.216 57.0933 254.59 56.688C254.963 56.2827 255.4 55.968 255.902 55.744C256.414 55.5093 256.968 55.392 257.566 55.392C258.142 55.392 258.67 55.4987 259.15 55.712C259.63 55.9147 260.04 56.208 260.382 56.592C260.734 56.9653 260.984 57.408 261.134 57.92L259.39 58.336C259.208 57.9307 258.952 57.616 258.622 57.392C258.302 57.168 257.939 57.056 257.534 57.056C257.107 57.056 256.723 57.1787 256.382 57.424C256.04 57.6693 255.768 58.0053 255.566 58.432C255.374 58.848 255.278 59.3227 255.278 59.856C255.278 60.3787 255.374 60.848 255.566 61.264C255.758 61.6693 256.019 61.9893 256.35 62.224C256.691 62.4587 257.086 62.576 257.534 62.576C257.96 62.576 258.35 62.4693 258.702 62.256C259.054 62.032 259.315 61.7173 259.486 61.312L261.214 61.712C261.064 62.224 260.808 62.672 260.446 63.056C260.083 63.4293 259.651 63.7227 259.15 63.936C258.648 64.1387 258.11 64.24 257.534 64.24ZM266.261 64V52.64H270.405C271.301 52.64 272.117 52.7787 272.853 53.056C273.599 53.3227 274.234 53.7067 274.757 54.208C275.29 54.6987 275.701 55.2907 275.989 55.984C276.277 56.6773 276.421 57.4507 276.421 58.304C276.421 59.1573 276.277 59.936 275.989 60.64C275.701 61.3333 275.29 61.9307 274.757 62.432C274.223 62.9333 273.589 63.3227 272.853 63.6C272.117 63.8667 271.301 64 270.405 64H266.261ZM268.213 62.256H270.309C271.151 62.256 271.877 62.096 272.485 61.776C273.093 61.456 273.562 61.0027 273.893 60.416C274.234 59.8187 274.405 59.12 274.405 58.32C274.405 57.52 274.234 56.8267 273.893 56.24C273.562 55.6427 273.087 55.184 272.469 54.864C271.861 54.544 271.141 54.384 270.309 54.384H268.213V62.256ZM282.036 64.24C281.418 64.24 280.847 64.1333 280.324 63.92C279.812 63.696 279.364 63.3867 278.98 62.992C278.596 62.5973 278.298 62.1333 278.084 61.6C277.882 61.056 277.78 60.4587 277.78 59.808C277.78 59.1787 277.882 58.5973 278.084 58.064C278.298 57.5307 278.586 57.0667 278.948 56.672C279.322 56.2667 279.759 55.952 280.26 55.728C280.762 55.504 281.306 55.392 281.892 55.392C282.479 55.392 283.012 55.4987 283.492 55.712C283.983 55.9147 284.404 56.208 284.756 56.592C285.119 56.976 285.396 57.4347 285.588 57.968C285.78 58.4907 285.876 59.072 285.876 59.712V60.256H279.684C279.738 60.7467 279.866 61.1733 280.068 61.536C280.282 61.888 280.554 62.16 280.884 62.352C281.215 62.544 281.599 62.64 282.036 62.64C282.911 62.64 283.594 62.2507 284.084 61.472L285.7 62.096C285.508 62.5333 285.226 62.9173 284.852 63.248C284.49 63.568 284.063 63.8133 283.572 63.984C283.092 64.1547 282.58 64.24 282.036 64.24ZM281.892 56.88C281.519 56.88 281.183 56.9653 280.884 57.136C280.596 57.3067 280.351 57.5467 280.148 57.856C279.946 58.1653 279.807 58.528 279.732 58.944H283.956C283.892 58.528 283.77 58.1653 283.588 57.856C283.407 57.5467 283.167 57.3067 282.868 57.136C282.58 56.9653 282.255 56.88 281.892 56.88ZM290.372 64.24C289.828 64.24 289.321 64.1493 288.852 63.968C288.393 63.7867 287.998 63.5307 287.668 63.2C287.348 62.8587 287.118 62.4587 286.98 62L288.644 61.568C288.782 61.9307 289.006 62.2133 289.316 62.416C289.625 62.6187 289.982 62.72 290.388 62.72C290.804 62.72 291.145 62.624 291.412 62.432C291.678 62.2293 291.812 61.9733 291.812 61.664C291.812 61.3973 291.705 61.1733 291.492 60.992C291.278 60.8107 290.932 60.6773 290.452 60.592L289.924 60.496C289.028 60.336 288.35 60.048 287.892 59.632C287.444 59.216 287.22 58.6827 287.22 58.032C287.22 57.5093 287.353 57.0507 287.62 56.656C287.886 56.2613 288.254 55.952 288.724 55.728C289.193 55.504 289.732 55.392 290.34 55.392C290.862 55.392 291.342 55.4827 291.78 55.664C292.217 55.8453 292.585 56.1013 292.884 56.432C293.182 56.7627 293.396 57.152 293.524 57.6L291.876 58C291.748 57.6587 291.545 57.392 291.268 57.2C291.001 56.9973 290.686 56.896 290.324 56.896C289.95 56.896 289.641 56.992 289.396 57.184C289.15 57.3653 289.028 57.6 289.028 57.888C289.028 58.1333 289.134 58.336 289.348 58.496C289.572 58.656 289.945 58.784 290.468 58.88L290.996 58.976C291.849 59.1253 292.505 59.4187 292.964 59.856C293.422 60.2933 293.652 60.8373 293.652 61.488C293.652 61.8827 293.572 62.2507 293.412 62.592C293.252 62.9227 293.022 63.216 292.724 63.472C292.436 63.7173 292.089 63.904 291.684 64.032C291.289 64.1707 290.852 64.24 290.372 64.24ZM297.196 53.296C297.196 53.4987 297.143 53.6853 297.036 53.856C296.94 54.0267 296.807 54.1653 296.636 54.272C296.465 54.368 296.279 54.416 296.076 54.416C295.873 54.416 295.687 54.368 295.516 54.272C295.345 54.1653 295.207 54.0267 295.1 53.856C295.004 53.6853 294.956 53.4987 294.956 53.296C294.956 53.0933 295.004 52.9067 295.1 52.736C295.207 52.5653 295.345 52.432 295.516 52.336C295.687 52.2293 295.873 52.176 296.076 52.176C296.279 52.176 296.465 52.2293 296.636 52.336C296.807 52.432 296.94 52.5653 297.036 52.736C297.143 52.9067 297.196 53.0933 297.196 53.296ZM295.164 64V55.632H297.004V64H295.164ZM302.48 63.84C301.936 63.84 301.429 63.7333 300.96 63.52C300.491 63.3067 300.08 63.0133 299.728 62.64C299.376 62.256 299.104 61.8133 298.912 61.312C298.72 60.8 298.624 60.2453 298.624 59.648C298.624 59.0507 298.72 58.496 298.912 57.984C299.115 57.4613 299.397 57.008 299.76 56.624C300.123 56.24 300.544 55.9413 301.024 55.728C301.504 55.504 302.021 55.392 302.576 55.392C303.152 55.392 303.675 55.52 304.144 55.776C304.624 56.0213 305.008 56.368 305.296 56.816L305.36 55.632H307.04V63.12C307.04 63.76 306.939 64.3413 306.736 64.864C306.533 65.3973 306.245 65.8507 305.872 66.224C305.499 66.608 305.051 66.9013 304.528 67.104C304.016 67.3067 303.44 67.408 302.8 67.408C301.947 67.408 301.2 67.216 300.56 66.832C299.92 66.448 299.419 65.9147 299.056 65.232L300.8 64.624C301.035 65.008 301.328 65.296 301.68 65.488C302.032 65.6907 302.427 65.792 302.864 65.792C303.333 65.792 303.744 65.6853 304.096 65.472C304.448 65.2693 304.72 64.976 304.912 64.592C305.104 64.2187 305.2 63.776 305.2 63.264V62.464C304.901 62.8907 304.517 63.2267 304.048 63.472C303.579 63.7173 303.056 63.84 302.48 63.84ZM302.864 62.176C303.312 62.176 303.712 62.064 304.064 61.84C304.427 61.616 304.709 61.312 304.912 60.928C305.125 60.544 305.232 60.1067 305.232 59.616C305.232 59.1253 305.125 58.688 304.912 58.304C304.709 57.92 304.427 57.616 304.064 57.392C303.712 57.168 303.312 57.056 302.864 57.056C302.416 57.056 302.016 57.168 301.664 57.392C301.312 57.616 301.029 57.92 300.816 58.304C300.613 58.688 300.512 59.1253 300.512 59.616C300.512 60.1067 300.613 60.544 300.816 60.928C301.029 61.312 301.312 61.616 301.664 61.84C302.016 62.064 302.416 62.176 302.864 62.176ZM309.023 64V55.632H310.703L310.767 56.784C311.013 56.3573 311.354 56.0213 311.791 55.776C312.239 55.52 312.751 55.392 313.327 55.392C313.957 55.392 314.501 55.5413 314.959 55.84C315.429 56.1387 315.791 56.56 316.047 57.104C316.303 57.648 316.431 58.288 316.431 59.024V64H314.591V59.232C314.591 58.5493 314.437 58.016 314.127 57.632C313.829 57.248 313.407 57.056 312.863 57.056C312.479 57.056 312.133 57.1467 311.823 57.328C311.525 57.5093 311.29 57.7547 311.119 58.064C310.949 58.3733 310.863 58.7307 310.863 59.136V64H309.023ZM322.302 64.24C321.683 64.24 321.113 64.1333 320.59 63.92C320.078 63.696 319.63 63.3867 319.246 62.992C318.862 62.5973 318.563 62.1333 318.35 61.6C318.147 61.056 318.046 60.4587 318.046 59.808C318.046 59.1787 318.147 58.5973 318.35 58.064C318.563 57.5307 318.851 57.0667 319.214 56.672C319.587 56.2667 320.025 55.952 320.526 55.728C321.027 55.504 321.571 55.392 322.158 55.392C322.745 55.392 323.278 55.4987 323.758 55.712C324.249 55.9147 324.67 56.208 325.022 56.592C325.385 56.976 325.662 57.4347 325.854 57.968C326.046 58.4907 326.142 59.072 326.142 59.712V60.256H319.95C320.003 60.7467 320.131 61.1733 320.334 61.536C320.547 61.888 320.819 62.16 321.15 62.352C321.481 62.544 321.865 62.64 322.302 62.64C323.177 62.64 323.859 62.2507 324.35 61.472L325.966 62.096C325.774 62.5333 325.491 62.9173 325.118 63.248C324.755 63.568 324.329 63.8133 323.838 63.984C323.358 64.1547 322.846 64.24 322.302 64.24ZM322.158 56.88C321.785 56.88 321.449 56.9653 321.15 57.136C320.862 57.3067 320.617 57.5467 320.414 57.856C320.211 58.1653 320.073 58.528 319.998 58.944H324.222C324.158 58.528 324.035 58.1653 323.854 57.856C323.673 57.5467 323.433 57.3067 323.134 57.136C322.846 56.9653 322.521 56.88 322.158 56.88ZM327.711 64V55.632H329.391L329.471 57.008C329.684 56.5387 329.977 56.176 330.351 55.92C330.735 55.6533 331.183 55.52 331.695 55.52C331.855 55.52 332.009 55.5307 332.159 55.552C332.308 55.5733 332.441 55.6107 332.559 55.664L332.351 57.456C332.233 57.4133 332.111 57.3867 331.983 57.376C331.855 57.3547 331.727 57.344 331.599 57.344C330.959 57.344 330.457 57.5573 330.095 57.984C329.732 58.4107 329.551 59.0027 329.551 59.76V64H327.711Z" fill="#1A202C"/>
<g filter="url(#filter1_d)">
<rect x="20" y="212" width="259" height="77" rx="5" fill="white"/>
</g>
<circle cx="58.5" cy="250.5" r="22.5" fill="#1A202C"/>
<mask id="mask1" mask-type="alpha" maskUnits="userSpaceOnUse" x="36" y="228" width="45" height="45">
<circle cx="58.5" cy="250.5" r="22.5" fill="#C4C4C4"/>
</mask>
<g mask="url(#mask1)">
<circle cx="58.5" cy="250.501" r="10.875" fill="white"/>
<ellipse cx="53.8124" cy="248.84" rx="1.52679" ry="1.55357" fill="#1A202C"/>
<path d="M60.8035 251.411C60.5892 252.447 59.7721 253.286 58.4999 253.286C57.2277 253.286 56.4106 252.447 56.1964 251.411" stroke="#1A202C" stroke-width="1.07143" stroke-linecap="round" stroke-linejoin="round"/>
<ellipse cx="63.1874" cy="248.84" rx="1.52679" ry="1.55357" fill="#1A202C"/>
<circle cx="58.5" cy="268.445" r="7.07143" fill="#196AFF"/>
</g>
<rect x="93" y="249" width="128" height="24" rx="5" fill="#F8F1FF"/>
<path d="M113.976 256.48L111.456 265H109.968L108.18 258.52L106.392 265H104.892L102.372 256.48H103.932L105.684 263.056L107.484 256.48H108.9L110.712 263.056L112.452 256.48H113.976ZM116.406 265.18C116.086 265.18 115.79 265.132 115.518 265.036C115.254 264.94 115.022 264.804 114.822 264.628C114.622 264.452 114.466 264.244 114.354 264.004C114.242 263.764 114.186 263.5 114.186 263.212C114.186 262.812 114.29 262.464 114.498 262.168C114.714 261.864 115.014 261.628 115.398 261.46C115.782 261.292 116.23 261.208 116.742 261.208C117.022 261.208 117.29 261.236 117.546 261.292C117.802 261.34 118.046 261.412 118.278 261.508V261.112C118.278 260.832 118.226 260.588 118.122 260.38C118.018 260.164 117.87 259.996 117.678 259.876C117.486 259.756 117.254 259.696 116.982 259.696C116.694 259.696 116.434 259.772 116.202 259.924C115.97 260.076 115.798 260.288 115.686 260.56L114.414 260.272C114.51 259.92 114.682 259.616 114.93 259.36C115.186 259.104 115.49 258.904 115.842 258.76C116.202 258.616 116.59 258.544 117.006 258.544C117.398 258.544 117.754 258.608 118.074 258.736C118.402 258.864 118.682 259.044 118.914 259.276C119.146 259.508 119.326 259.784 119.454 260.104C119.582 260.424 119.646 260.78 119.646 261.172V265H118.386L118.338 264.172C118.17 264.476 117.918 264.72 117.582 264.904C117.246 265.088 116.854 265.18 116.406 265.18ZM115.578 263.152C115.578 263.328 115.626 263.488 115.722 263.632C115.818 263.768 115.95 263.876 116.118 263.956C116.294 264.036 116.498 264.076 116.73 264.076C117.026 264.076 117.29 264.012 117.522 263.884C117.754 263.756 117.938 263.584 118.074 263.368C118.21 263.144 118.278 262.892 118.278 262.612V262.468C118.07 262.38 117.854 262.312 117.63 262.264C117.414 262.208 117.19 262.18 116.958 262.18C116.542 262.18 116.206 262.268 115.95 262.444C115.702 262.62 115.578 262.856 115.578 263.152ZM121.131 265V258.724H122.391L122.439 259.588C122.623 259.268 122.879 259.016 123.207 258.832C123.543 258.64 123.927 258.544 124.359 258.544C124.831 258.544 125.239 258.656 125.583 258.88C125.935 259.104 126.207 259.42 126.399 259.828C126.591 260.236 126.687 260.716 126.687 261.268V265H125.307V261.424C125.307 260.912 125.191 260.512 124.959 260.224C124.735 259.936 124.419 259.792 124.011 259.792C123.723 259.792 123.463 259.86 123.231 259.996C123.007 260.132 122.831 260.316 122.703 260.548C122.575 260.78 122.511 261.048 122.511 261.352V265H121.131ZM130.59 265.18C129.958 265.18 129.462 265 129.102 264.64C128.742 264.272 128.562 263.748 128.562 263.068V259.84H127.458V258.724H128.562V256.6H129.942V258.724H131.766V259.84H129.942V262.924C129.942 263.26 130.01 263.52 130.146 263.704C130.29 263.88 130.498 263.968 130.77 263.968C130.914 263.968 131.07 263.948 131.238 263.908C131.406 263.86 131.562 263.796 131.706 263.716L132.018 264.76C131.834 264.888 131.618 264.988 131.37 265.06C131.13 265.14 130.87 265.18 130.59 265.18ZM135.255 265.18C134.847 265.18 134.467 265.112 134.115 264.976C133.771 264.84 133.475 264.648 133.227 264.4C132.987 264.144 132.815 263.844 132.711 263.5L133.959 263.176C134.063 263.448 134.231 263.66 134.463 263.812C134.695 263.964 134.963 264.04 135.267 264.04C135.579 264.04 135.835 263.968 136.035 263.824C136.235 263.672 136.335 263.48 136.335 263.248C136.335 263.048 136.255 262.88 136.095 262.744C135.935 262.608 135.675 262.508 135.315 262.444L134.919 262.372C134.247 262.252 133.739 262.036 133.395 261.724C133.059 261.412 132.891 261.012 132.891 260.524C132.891 260.132 132.991 259.788 133.191 259.492C133.391 259.196 133.667 258.964 134.019 258.796C134.371 258.628 134.775 258.544 135.231 258.544C135.623 258.544 135.983 258.612 136.311 258.748C136.639 258.884 136.915 259.076 137.139 259.324C137.363 259.572 137.523 259.864 137.619 260.2L136.383 260.5C136.287 260.244 136.135 260.044 135.927 259.9C135.727 259.748 135.491 259.672 135.219 259.672C134.939 259.672 134.707 259.744 134.523 259.888C134.339 260.024 134.247 260.2 134.247 260.416C134.247 260.6 134.327 260.752 134.487 260.872C134.655 260.992 134.935 261.088 135.327 261.16L135.723 261.232C136.363 261.344 136.855 261.564 137.199 261.892C137.543 262.22 137.715 262.628 137.715 263.116C137.715 263.412 137.655 263.688 137.535 263.944C137.415 264.192 137.243 264.412 137.019 264.604C136.803 264.788 136.543 264.928 136.239 265.024C135.943 265.128 135.615 265.18 135.255 265.18ZM143.996 265.18C143.364 265.18 142.868 265 142.508 264.64C142.148 264.272 141.968 263.748 141.968 263.068V259.84H140.864V258.724H141.968V256.6H143.348V258.724H145.172V259.84H143.348V262.924C143.348 263.26 143.416 263.52 143.552 263.704C143.696 263.88 143.904 263.968 144.176 263.968C144.32 263.968 144.476 263.948 144.644 263.908C144.812 263.86 144.968 263.796 145.112 263.716L145.424 264.76C145.24 264.888 145.024 264.988 144.776 265.06C144.536 265.14 144.276 265.18 143.996 265.18ZM149.312 265.18C148.856 265.18 148.432 265.1 148.04 264.94C147.656 264.772 147.32 264.54 147.032 264.244C146.744 263.94 146.52 263.588 146.36 263.188C146.2 262.78 146.12 262.336 146.12 261.856C146.12 261.384 146.2 260.948 146.36 260.548C146.52 260.14 146.744 259.788 147.032 259.492C147.328 259.188 147.672 258.956 148.064 258.796C148.464 258.628 148.896 258.544 149.36 258.544C149.816 258.544 150.236 258.628 150.62 258.796C151.012 258.956 151.352 259.188 151.64 259.492C151.928 259.788 152.152 260.136 152.312 260.536C152.472 260.936 152.552 261.376 152.552 261.856C152.552 262.336 152.472 262.78 152.312 263.188C152.152 263.588 151.924 263.94 151.628 264.244C151.34 264.54 150.996 264.772 150.596 264.94C150.204 265.1 149.776 265.18 149.312 265.18ZM149.336 263.932C149.68 263.932 149.988 263.844 150.26 263.668C150.532 263.484 150.744 263.236 150.896 262.924C151.056 262.612 151.136 262.256 151.136 261.856C151.136 261.456 151.056 261.104 150.896 260.8C150.744 260.488 150.532 260.244 150.26 260.068C149.988 259.884 149.68 259.792 149.336 259.792C148.992 259.792 148.684 259.884 148.412 260.068C148.14 260.244 147.924 260.488 147.764 260.8C147.612 261.104 147.536 261.456 147.536 261.856C147.536 262.256 147.612 262.612 147.764 262.924C147.924 263.236 148.14 263.484 148.412 263.668C148.684 263.844 148.992 263.932 149.336 263.932ZM156.322 265V256.072H157.702V259.636C157.926 259.292 158.218 259.024 158.578 258.832C158.938 258.64 159.334 258.544 159.766 258.544C160.182 258.544 160.566 258.628 160.918 258.796C161.278 258.964 161.59 259.196 161.854 259.492C162.118 259.788 162.322 260.136 162.466 260.536C162.618 260.936 162.694 261.368 162.694 261.832C162.694 262.304 162.618 262.744 162.466 263.152C162.314 263.56 162.102 263.916 161.83 264.22C161.558 264.524 161.238 264.76 160.87 264.928C160.51 265.096 160.118 265.18 159.694 265.18C159.254 265.18 158.854 265.084 158.494 264.892C158.142 264.7 157.858 264.428 157.642 264.076L157.582 265H156.322ZM159.478 263.932C159.822 263.932 160.13 263.844 160.402 263.668C160.674 263.484 160.886 263.236 161.038 262.924C161.198 262.612 161.278 262.256 161.278 261.856C161.278 261.456 161.198 261.104 161.038 260.8C160.886 260.488 160.674 260.244 160.402 260.068C160.13 259.884 159.822 259.792 159.478 259.792C159.134 259.792 158.826 259.884 158.554 260.068C158.282 260.244 158.066 260.488 157.906 260.8C157.754 261.104 157.678 261.456 157.678 261.856C157.678 262.256 157.754 262.612 157.906 262.924C158.066 263.236 158.282 263.484 158.554 263.668C158.826 263.844 159.134 263.932 159.478 263.932ZM166.879 265.18C166.415 265.18 165.987 265.1 165.595 264.94C165.211 264.772 164.875 264.54 164.587 264.244C164.299 263.948 164.075 263.6 163.915 263.2C163.763 262.792 163.687 262.344 163.687 261.856C163.687 261.384 163.763 260.948 163.915 260.548C164.075 260.148 164.291 259.8 164.563 259.504C164.843 259.2 165.171 258.964 165.547 258.796C165.923 258.628 166.331 258.544 166.771 258.544C167.211 258.544 167.611 258.624 167.971 258.784C168.339 258.936 168.655 259.156 168.919 259.444C169.191 259.732 169.399 260.076 169.543 260.476C169.687 260.868 169.759 261.304 169.759 261.784V262.192H165.115C165.155 262.56 165.251 262.88 165.403 263.152C165.563 263.416 165.767 263.62 166.015 263.764C166.263 263.908 166.551 263.98 166.879 263.98C167.535 263.98 168.047 263.688 168.415 263.104L169.627 263.572C169.483 263.9 169.271 264.188 168.991 264.436C168.719 264.676 168.399 264.86 168.031 264.988C167.671 265.116 167.287 265.18 166.879 265.18ZM166.771 259.66C166.491 259.66 166.239 259.724 166.015 259.852C165.799 259.98 165.615 260.16 165.463 260.392C165.311 260.624 165.207 260.896 165.151 261.208H168.319C168.271 260.896 168.179 260.624 168.043 260.392C167.907 260.16 167.727 259.98 167.503 259.852C167.287 259.724 167.043 259.66 166.771 259.66ZM175.734 265.18C175.278 265.18 174.862 265.096 174.486 264.928C174.118 264.752 173.802 264.504 173.538 264.184C173.274 263.864 173.074 263.472 172.938 263.008L174.354 262.708C174.634 263.476 175.098 263.86 175.746 263.86C176.01 263.86 176.238 263.796 176.43 263.668C176.63 263.532 176.782 263.344 176.886 263.104C176.99 262.864 177.042 262.584 177.042 262.264V256.48H178.506V262.228C178.506 262.668 178.438 263.072 178.302 263.44C178.174 263.8 177.986 264.112 177.738 264.376C177.498 264.632 177.206 264.832 176.862 264.976C176.526 265.112 176.15 265.18 175.734 265.18ZM182.91 265.18C182.454 265.18 182.03 265.1 181.638 264.94C181.254 264.772 180.918 264.54 180.63 264.244C180.342 263.94 180.118 263.588 179.958 263.188C179.798 262.78 179.718 262.336 179.718 261.856C179.718 261.384 179.798 260.948 179.958 260.548C180.118 260.14 180.342 259.788 180.63 259.492C180.926 259.188 181.27 258.956 181.662 258.796C182.062 258.628 182.494 258.544 182.958 258.544C183.414 258.544 183.834 258.628 184.218 258.796C184.61 258.956 184.95 259.188 185.238 259.492C185.526 259.788 185.75 260.136 185.91 260.536C186.07 260.936 186.15 261.376 186.15 261.856C186.15 262.336 186.07 262.78 185.91 263.188C185.75 263.588 185.522 263.94 185.226 264.244C184.938 264.54 184.594 264.772 184.194 264.94C183.802 265.1 183.374 265.18 182.91 265.18ZM182.934 263.932C183.278 263.932 183.586 263.844 183.858 263.668C184.13 263.484 184.342 263.236 184.494 262.924C184.654 262.612 184.734 262.256 184.734 261.856C184.734 261.456 184.654 261.104 184.494 260.8C184.342 260.488 184.13 260.244 183.858 260.068C183.586 259.884 183.278 259.792 182.934 259.792C182.59 259.792 182.282 259.884 182.01 260.068C181.738 260.244 181.522 260.488 181.362 260.8C181.21 261.104 181.134 261.456 181.134 261.856C181.134 262.256 181.21 262.612 181.362 262.924C181.522 263.236 181.738 263.484 182.01 263.668C182.282 263.844 182.59 263.932 182.934 263.932ZM188.889 256.972C188.889 257.124 188.849 257.264 188.769 257.392C188.697 257.52 188.597 257.624 188.469 257.704C188.341 257.776 188.201 257.812 188.049 257.812C187.897 257.812 187.757 257.776 187.629 257.704C187.501 257.624 187.397 257.52 187.317 257.392C187.245 257.264 187.209 257.124 187.209 256.972C187.209 256.82 187.245 256.68 187.317 256.552C187.397 256.424 187.501 256.324 187.629 256.252C187.757 256.172 187.897 256.132 188.049 256.132C188.201 256.132 188.341 256.172 188.469 256.252C188.597 256.324 188.697 256.424 188.769 256.552C188.849 256.68 188.889 256.82 188.889 256.972ZM187.365 265V258.724H188.745V265H187.365ZM190.236 265V258.724H191.496L191.544 259.588C191.728 259.268 191.984 259.016 192.312 258.832C192.648 258.64 193.032 258.544 193.464 258.544C193.936 258.544 194.344 258.656 194.688 258.88C195.04 259.104 195.312 259.42 195.504 259.828C195.696 260.236 195.792 260.716 195.792 261.268V265H194.412V261.424C194.412 260.912 194.296 260.512 194.064 260.224C193.84 259.936 193.524 259.792 193.116 259.792C192.828 259.792 192.568 259.86 192.336 259.996C192.112 260.132 191.936 260.316 191.808 260.548C191.68 260.78 191.616 261.048 191.616 261.352V265H190.236ZM200.195 265.18C199.731 265.18 199.303 265.1 198.911 264.94C198.527 264.772 198.191 264.54 197.903 264.244C197.615 263.948 197.391 263.6 197.231 263.2C197.079 262.792 197.003 262.344 197.003 261.856C197.003 261.384 197.079 260.948 197.231 260.548C197.391 260.148 197.607 259.8 197.879 259.504C198.159 259.2 198.487 258.964 198.863 258.796C199.239 258.628 199.647 258.544 200.087 258.544C200.527 258.544 200.927 258.624 201.287 258.784C201.655 258.936 201.971 259.156 202.235 259.444C202.507 259.732 202.715 260.076 202.859 260.476C203.003 260.868 203.075 261.304 203.075 261.784V262.192H198.431C198.471 262.56 198.567 262.88 198.719 263.152C198.879 263.416 199.083 263.62 199.331 263.764C199.579 263.908 199.867 263.98 200.195 263.98C200.851 263.98 201.363 263.688 201.731 263.104L202.943 263.572C202.799 263.9 202.587 264.188 202.307 264.436C202.035 264.676 201.715 264.86 201.347 264.988C200.987 265.116 200.603 265.18 200.195 265.18ZM200.087 259.66C199.807 259.66 199.555 259.724 199.331 259.852C199.115 259.98 198.931 260.16 198.779 260.392C198.627 260.624 198.523 260.896 198.467 261.208H201.635C201.587 260.896 201.495 260.624 201.359 260.392C201.223 260.16 201.043 259.98 200.819 259.852C200.603 259.724 200.359 259.66 200.087 259.66ZM206.962 265.18C206.546 265.18 206.158 265.096 205.798 264.928C205.446 264.76 205.138 264.528 204.874 264.232C204.61 263.936 204.402 263.588 204.25 263.188C204.106 262.788 204.034 262.356 204.034 261.892C204.034 261.42 204.11 260.98 204.262 260.572C204.414 260.164 204.626 259.808 204.898 259.504C205.17 259.2 205.486 258.964 205.846 258.796C206.214 258.628 206.61 258.544 207.034 258.544C207.45 258.544 207.83 258.632 208.174 258.808C208.518 258.984 208.802 259.232 209.026 259.552V256.072H210.406V265H209.146L209.086 263.992C208.862 264.36 208.566 264.652 208.198 264.868C207.83 265.076 207.418 265.18 206.962 265.18ZM207.25 263.932C207.594 263.932 207.902 263.844 208.174 263.668C208.446 263.484 208.658 263.236 208.81 262.924C208.97 262.612 209.05 262.26 209.05 261.868C209.05 261.468 208.97 261.112 208.81 260.8C208.658 260.488 208.446 260.244 208.174 260.068C207.902 259.884 207.594 259.792 207.25 259.792C206.906 259.792 206.598 259.884 206.326 260.068C206.054 260.244 205.838 260.488 205.678 260.8C205.526 261.112 205.45 261.468 205.45 261.868C205.45 262.26 205.526 262.612 205.678 262.924C205.838 263.236 206.054 263.484 206.326 263.668C206.598 263.844 206.906 263.932 207.25 263.932Z" fill="#4039A8"/>
<path d="M97.464 241.24C96.824 241.24 96.2267 241.128 95.672 240.904C95.128 240.669 94.664 240.344 94.28 239.928C93.896 239.512 93.624 239.016 93.464 238.44L95.304 237.992C95.4747 238.483 95.7467 238.861 96.12 239.128C96.4933 239.395 96.9467 239.528 97.48 239.528C97.864 239.528 98.2053 239.453 98.504 239.304C98.8027 239.155 99.0373 238.952 99.208 238.696C99.3893 238.44 99.48 238.147 99.48 237.816C99.48 237.411 99.3307 237.075 99.032 236.808C98.744 236.531 98.2853 236.323 97.656 236.184L97.064 236.056C95.9333 235.811 95.096 235.405 94.552 234.84C94.0187 234.275 93.752 233.587 93.752 232.776C93.752 232.285 93.848 231.837 94.04 231.432C94.232 231.016 94.4987 230.659 94.84 230.36C95.1813 230.051 95.5813 229.816 96.04 229.656C96.4987 229.485 96.9947 229.4 97.528 229.4C98.136 229.4 98.696 229.512 99.208 229.736C99.72 229.96 100.157 230.28 100.52 230.696C100.883 231.101 101.139 231.587 101.288 232.152L99.464 232.6C99.2933 232.12 99.0373 231.752 98.696 231.496C98.3547 231.24 97.9493 231.112 97.48 231.112C97.1387 231.112 96.8347 231.181 96.568 231.32C96.312 231.448 96.104 231.629 95.944 231.864C95.7947 232.088 95.72 232.344 95.72 232.632C95.72 233.048 95.8747 233.379 96.184 233.624C96.4933 233.869 96.968 234.067 97.608 234.216L98.2 234.344C100.376 234.835 101.464 235.939 101.464 237.656C101.464 238.179 101.363 238.664 101.16 239.112C100.968 239.549 100.691 239.928 100.328 240.248C99.9653 240.557 99.5387 240.803 99.048 240.984C98.568 241.155 98.04 241.24 97.464 241.24ZM107.146 241.24C106.538 241.24 105.972 241.133 105.45 240.92C104.938 240.696 104.49 240.387 104.106 239.992C103.722 239.587 103.423 239.117 103.21 238.584C102.996 238.04 102.89 237.448 102.89 236.808C102.89 236.179 102.996 235.597 103.21 235.064C103.423 234.52 103.722 234.051 104.106 233.656C104.5 233.251 104.959 232.941 105.482 232.728C106.015 232.504 106.591 232.392 107.21 232.392C107.818 232.392 108.378 232.504 108.89 232.728C109.412 232.941 109.866 233.251 110.25 233.656C110.634 234.051 110.932 234.515 111.146 235.048C111.359 235.581 111.466 236.168 111.466 236.808C111.466 237.448 111.359 238.04 111.146 238.584C110.932 239.117 110.628 239.587 110.234 239.992C109.85 240.387 109.391 240.696 108.858 240.92C108.335 241.133 107.764 241.24 107.146 241.24ZM107.178 239.576C107.636 239.576 108.047 239.459 108.41 239.224C108.772 238.979 109.055 238.648 109.258 238.232C109.471 237.816 109.578 237.341 109.578 236.808C109.578 236.275 109.471 235.805 109.258 235.4C109.055 234.984 108.772 234.659 108.41 234.424C108.047 234.179 107.636 234.056 107.178 234.056C106.719 234.056 106.308 234.179 105.946 234.424C105.583 234.659 105.295 234.984 105.082 235.4C104.879 235.805 104.778 236.275 104.778 236.808C104.778 237.341 104.879 237.816 105.082 238.232C105.295 238.648 105.583 238.979 105.946 239.224C106.308 239.459 106.719 239.576 107.178 239.576ZM113.619 241V234.12H112.147V232.632H113.619V232.04C113.619 231.421 113.747 230.883 114.003 230.424C114.259 229.955 114.611 229.592 115.059 229.336C115.507 229.069 116.019 228.936 116.595 228.936C116.926 228.936 117.224 228.979 117.491 229.064C117.768 229.139 118.014 229.235 118.227 229.352L117.811 230.76C117.672 230.685 117.512 230.627 117.331 230.584C117.16 230.531 116.99 230.504 116.819 230.504C116.36 230.504 116.019 230.648 115.795 230.936C115.571 231.213 115.459 231.613 115.459 232.136V232.632H117.859V234.12H115.459V241H113.619ZM122.839 241.24C121.996 241.24 121.335 241 120.855 240.52C120.375 240.029 120.135 239.331 120.135 238.424V234.12H118.663V232.632H120.135V229.8H121.975V232.632H124.407V234.12H121.975V238.232C121.975 238.68 122.065 239.027 122.247 239.272C122.439 239.507 122.716 239.624 123.079 239.624C123.271 239.624 123.479 239.597 123.703 239.544C123.927 239.48 124.135 239.395 124.327 239.288L124.743 240.68C124.497 240.851 124.209 240.984 123.879 241.08C123.559 241.187 123.212 241.24 122.839 241.24ZM128.211 241L125.427 232.632H127.347L129.123 238.744L130.995 232.632H132.643L134.499 238.744L136.307 232.632H138.163L135.363 241H133.635L131.795 234.92L129.939 241H128.211ZM141.693 241.24C141.266 241.24 140.871 241.176 140.509 241.048C140.157 240.92 139.847 240.739 139.581 240.504C139.314 240.269 139.106 239.992 138.957 239.672C138.807 239.352 138.733 239 138.733 238.616C138.733 238.083 138.871 237.619 139.149 237.224C139.437 236.819 139.837 236.504 140.349 236.28C140.861 236.056 141.458 235.944 142.141 235.944C142.514 235.944 142.871 235.981 143.213 236.056C143.554 236.12 143.879 236.216 144.189 236.344V235.816C144.189 235.443 144.119 235.117 143.981 234.84C143.842 234.552 143.645 234.328 143.389 234.168C143.133 234.008 142.823 233.928 142.461 233.928C142.077 233.928 141.73 234.029 141.421 234.232C141.111 234.435 140.882 234.717 140.733 235.08L139.037 234.696C139.165 234.227 139.394 233.821 139.725 233.48C140.066 233.139 140.471 232.872 140.941 232.68C141.421 232.488 141.938 232.392 142.493 232.392C143.015 232.392 143.49 232.477 143.917 232.648C144.354 232.819 144.727 233.059 145.037 233.368C145.346 233.677 145.586 234.045 145.757 234.472C145.927 234.899 146.013 235.373 146.013 235.896V241H144.333L144.269 239.896C144.045 240.301 143.709 240.627 143.261 240.872C142.813 241.117 142.29 241.24 141.693 241.24ZM140.589 238.536C140.589 238.771 140.653 238.984 140.781 239.176C140.909 239.357 141.085 239.501 141.309 239.608C141.543 239.715 141.815 239.768 142.125 239.768C142.519 239.768 142.871 239.683 143.181 239.512C143.49 239.341 143.735 239.112 143.917 238.824C144.098 238.525 144.189 238.189 144.189 237.816V237.624C143.911 237.507 143.623 237.416 143.325 237.352C143.037 237.277 142.738 237.24 142.429 237.24C141.874 237.24 141.426 237.357 141.085 237.592C140.754 237.827 140.589 238.141 140.589 238.536ZM147.992 241V232.632H149.672L149.752 234.008C149.965 233.539 150.259 233.176 150.632 232.92C151.016 232.653 151.464 232.52 151.976 232.52C152.136 232.52 152.291 232.531 152.44 232.552C152.589 232.573 152.723 232.611 152.84 232.664L152.632 234.456C152.515 234.413 152.392 234.387 152.264 234.376C152.136 234.355 152.008 234.344 151.88 234.344C151.24 234.344 150.739 234.557 150.376 234.984C150.013 235.411 149.832 236.003 149.832 236.76V241H147.992ZM157.833 241.24C157.214 241.24 156.644 241.133 156.121 240.92C155.609 240.696 155.161 240.387 154.777 239.992C154.393 239.597 154.094 239.133 153.881 238.6C153.678 238.056 153.577 237.459 153.577 236.808C153.577 236.179 153.678 235.597 153.881 235.064C154.094 234.531 154.382 234.067 154.745 233.672C155.118 233.267 155.556 232.952 156.057 232.728C156.558 232.504 157.102 232.392 157.689 232.392C158.276 232.392 158.809 232.499 159.289 232.712C159.78 232.915 160.201 233.208 160.553 233.592C160.916 233.976 161.193 234.435 161.385 234.968C161.577 235.491 161.673 236.072 161.673 236.712V237.256H155.481C155.534 237.747 155.662 238.173 155.865 238.536C156.078 238.888 156.35 239.16 156.681 239.352C157.012 239.544 157.396 239.64 157.833 239.64C158.708 239.64 159.39 239.251 159.881 238.472L161.497 239.096C161.305 239.533 161.022 239.917 160.649 240.248C160.286 240.568 159.86 240.813 159.369 240.984C158.889 241.155 158.377 241.24 157.833 241.24ZM157.689 233.88C157.316 233.88 156.98 233.965 156.681 234.136C156.393 234.307 156.148 234.547 155.945 234.856C155.742 235.165 155.604 235.528 155.529 235.944H159.753C159.689 235.528 159.566 235.165 159.385 234.856C159.204 234.547 158.964 234.307 158.665 234.136C158.377 233.965 158.052 233.88 157.689 233.88ZM166.776 241V229.64H173.656V231.32H168.696V234.296H173.176V235.976H168.696V239.32H173.816V241H166.776ZM175.742 241V232.632H177.422L177.486 233.784C177.731 233.357 178.073 233.021 178.51 232.776C178.958 232.52 179.47 232.392 180.046 232.392C180.675 232.392 181.219 232.541 181.678 232.84C182.147 233.139 182.51 233.56 182.766 234.104C183.022 234.648 183.15 235.288 183.15 236.024V241H181.31V236.232C181.31 235.549 181.155 235.016 180.846 234.632C180.547 234.248 180.126 234.056 179.582 234.056C179.198 234.056 178.851 234.147 178.542 234.328C178.243 234.509 178.009 234.755 177.838 235.064C177.667 235.373 177.582 235.731 177.582 236.136V241H175.742ZM188.621 240.84C188.077 240.84 187.57 240.733 187.101 240.52C186.631 240.307 186.221 240.013 185.869 239.64C185.517 239.256 185.245 238.813 185.053 238.312C184.861 237.8 184.765 237.245 184.765 236.648C184.765 236.051 184.861 235.496 185.053 234.984C185.255 234.461 185.538 234.008 185.901 233.624C186.263 233.24 186.685 232.941 187.165 232.728C187.645 232.504 188.162 232.392 188.717 232.392C189.293 232.392 189.815 232.52 190.285 232.776C190.765 233.021 191.149 233.368 191.437 233.816L191.501 232.632H193.181V240.12C193.181 240.76 193.079 241.341 192.877 241.864C192.674 242.397 192.386 242.851 192.013 243.224C191.639 243.608 191.191 243.901 190.669 244.104C190.157 244.307 189.581 244.408 188.941 244.408C188.087 244.408 187.341 244.216 186.701 243.832C186.061 243.448 185.559 242.915 185.197 242.232L186.941 241.624C187.175 242.008 187.469 242.296 187.821 242.488C188.173 242.691 188.567 242.792 189.005 242.792C189.474 242.792 189.885 242.685 190.237 242.472C190.589 242.269 190.861 241.976 191.053 241.592C191.245 241.219 191.341 240.776 191.341 240.264V239.464C191.042 239.891 190.658 240.227 190.189 240.472C189.719 240.717 189.197 240.84 188.621 240.84ZM189.005 239.176C189.453 239.176 189.853 239.064 190.205 238.84C190.567 238.616 190.85 238.312 191.053 237.928C191.266 237.544 191.373 237.107 191.373 236.616C191.373 236.125 191.266 235.688 191.053 235.304C190.85 234.92 190.567 234.616 190.205 234.392C189.853 234.168 189.453 234.056 189.005 234.056C188.557 234.056 188.157 234.168 187.805 234.392C187.453 234.616 187.17 234.92 186.957 235.304C186.754 235.688 186.653 236.125 186.653 236.616C186.653 237.107 186.754 237.544 186.957 237.928C187.17 238.312 187.453 238.616 187.805 238.84C188.157 239.064 188.557 239.176 189.005 239.176ZM197.196 230.296C197.196 230.499 197.143 230.685 197.036 230.856C196.94 231.027 196.807 231.165 196.636 231.272C196.465 231.368 196.279 231.416 196.076 231.416C195.873 231.416 195.687 231.368 195.516 231.272C195.345 231.165 195.207 231.027 195.1 230.856C195.004 230.685 194.956 230.499 194.956 230.296C194.956 230.093 195.004 229.907 195.1 229.736C195.207 229.565 195.345 229.432 195.516 229.336C195.687 229.229 195.873 229.176 196.076 229.176C196.279 229.176 196.465 229.229 196.636 229.336C196.807 229.432 196.94 229.565 197.036 229.736C197.143 229.907 197.196 230.093 197.196 230.296ZM195.164 241V232.632H197.004V241H195.164ZM198.992 241V232.632H200.672L200.736 233.784C200.981 233.357 201.323 233.021 201.76 232.776C202.208 232.52 202.72 232.392 203.296 232.392C203.925 232.392 204.469 232.541 204.928 232.84C205.397 233.139 205.76 233.56 206.016 234.104C206.272 234.648 206.4 235.288 206.4 236.024V241H204.56V236.232C204.56 235.549 204.405 235.016 204.096 234.632C203.797 234.248 203.376 234.056 202.832 234.056C202.448 234.056 202.101 234.147 201.792 234.328C201.493 234.509 201.259 234.755 201.088 235.064C200.917 235.373 200.832 235.731 200.832 236.136V241H198.992ZM212.271 241.24C211.652 241.24 211.081 241.133 210.559 240.92C210.047 240.696 209.599 240.387 209.215 239.992C208.831 239.597 208.532 239.133 208.319 238.6C208.116 238.056 208.015 237.459 208.015 236.808C208.015 236.179 208.116 235.597 208.319 235.064C208.532 234.531 208.82 234.067 209.183 233.672C209.556 233.267 209.993 232.952 210.495 232.728C210.996 232.504 211.54 232.392 212.127 232.392C212.713 232.392 213.247 232.499 213.727 232.712C214.217 232.915 214.639 233.208 214.991 233.592C215.353 233.976 215.631 234.435 215.823 234.968C216.015 235.491 216.111 236.072 216.111 236.712V237.256H209.919C209.972 237.747 210.1 238.173 210.303 238.536C210.516 238.888 210.788 239.16 211.119 239.352C211.449 239.544 211.833 239.64 212.271 239.64C213.145 239.64 213.828 239.251 214.319 238.472L215.935 239.096C215.743 239.533 215.46 239.917 215.087 240.248C214.724 240.568 214.297 240.813 213.807 240.984C213.327 241.155 212.815 241.24 212.271 241.24ZM212.127 233.88C211.753 233.88 211.417 233.965 211.119 234.136C210.831 234.307 210.585 234.547 210.383 234.856C210.18 235.165 210.041 235.528 209.967 235.944H214.191C214.127 235.528 214.004 235.165 213.823 234.856C213.641 234.547 213.401 234.307 213.103 234.136C212.815 233.965 212.489 233.88 212.127 233.88ZM221.646 241.24C221.027 241.24 220.456 241.133 219.934 240.92C219.422 240.696 218.974 240.387 218.59 239.992C218.206 239.597 217.907 239.133 217.694 238.6C217.491 238.056 217.39 237.459 217.39 236.808C217.39 236.179 217.491 235.597 217.694 235.064C217.907 234.531 218.195 234.067 218.558 233.672C218.931 233.267 219.368 232.952 219.87 232.728C220.371 232.504 220.915 232.392 221.502 232.392C222.088 232.392 222.622 232.499 223.102 232.712C223.592 232.915 224.014 233.208 224.366 233.592C224.728 233.976 225.006 234.435 225.198 234.968C225.39 235.491 225.486 236.072 225.486 236.712V237.256H219.294C219.347 237.747 219.475 238.173 219.678 238.536C219.891 238.888 220.163 239.16 220.494 239.352C220.824 239.544 221.208 239.64 221.646 239.64C222.52 239.64 223.203 239.251 223.694 238.472L225.31 239.096C225.118 239.533 224.835 239.917 224.462 240.248C224.099 240.568 223.672 240.813 223.182 240.984C222.702 241.155 222.19 241.24 221.646 241.24ZM221.502 233.88C221.128 233.88 220.792 233.965 220.494 234.136C220.206 234.307 219.96 234.547 219.758 234.856C219.555 235.165 219.416 235.528 219.342 235.944H223.566C223.502 235.528 223.379 235.165 223.198 234.856C223.016 234.547 222.776 234.307 222.478 234.136C222.19 233.965 221.864 233.88 221.502 233.88ZM227.055 241V232.632H228.735L228.815 234.008C229.028 233.539 229.321 233.176 229.695 232.92C230.079 232.653 230.527 232.52 231.039 232.52C231.199 232.52 231.353 232.531 231.503 232.552C231.652 232.573 231.785 232.611 231.903 232.664L231.695 234.456C231.577 234.413 231.455 234.387 231.327 234.376C231.199 234.355 231.071 234.344 230.943 234.344C230.303 234.344 229.801 234.557 229.439 234.984C229.076 235.411 228.895 236.003 228.895 236.76V241H227.055Z" fill="#1A202C"/>
<g filter="url(#filter2_d)">
<rect x="76" y="141" width="257" height="41" rx="5" fill="#196AFF"/>
</g>
<path d="M193.536 147.143C191.583 145.19 191.583 142.025 193.536 140.072L200.464 133.143C202.417 131.191 205.583 131.191 207.535 133.143L214.464 140.072C216.417 142.025 216.417 145.19 214.464 147.143L207.535 154.072C205.583 156.024 202.417 156.024 200.464 154.072L193.536 147.143Z" fill="#196AFF"/>
<path d="M89.12 167V155.64H91.072V165.256H95.888V167H89.12ZM101.208 167.24C100.6 167.24 100.035 167.133 99.5121 166.92C99.0001 166.696 98.5521 166.387 98.1681 165.992C97.7841 165.587 97.4855 165.117 97.2721 164.584C97.0588 164.04 96.9521 163.448 96.9521 162.808C96.9521 162.179 97.0588 161.597 97.2721 161.064C97.4855 160.52 97.7841 160.051 98.1681 159.656C98.5628 159.251 99.0215 158.941 99.5441 158.728C100.077 158.504 100.653 158.392 101.272 158.392C101.88 158.392 102.44 158.504 102.952 158.728C103.475 158.941 103.928 159.251 104.312 159.656C104.696 160.051 104.995 160.515 105.208 161.048C105.421 161.581 105.528 162.168 105.528 162.808C105.528 163.448 105.421 164.04 105.208 164.584C104.995 165.117 104.691 165.587 104.296 165.992C103.912 166.387 103.453 166.696 102.92 166.92C102.397 167.133 101.827 167.24 101.208 167.24ZM101.24 165.576C101.699 165.576 102.109 165.459 102.472 165.224C102.835 164.979 103.117 164.648 103.32 164.232C103.533 163.816 103.64 163.341 103.64 162.808C103.64 162.275 103.533 161.805 103.32 161.4C103.117 160.984 102.835 160.659 102.472 160.424C102.109 160.179 101.699 160.056 101.24 160.056C100.781 160.056 100.371 160.179 100.008 160.424C99.6455 160.659 99.3575 160.984 99.1441 161.4C98.9415 161.805 98.8401 162.275 98.8401 162.808C98.8401 163.341 98.9415 163.816 99.1441 164.232C99.3575 164.648 99.6455 164.979 100.008 165.224C100.371 165.459 100.781 165.576 101.24 165.576ZM109.33 167L106.13 158.632H108.146L110.29 165.08L112.45 158.632H114.402L111.202 167H109.33ZM119.255 167.24C118.636 167.24 118.066 167.133 117.543 166.92C117.031 166.696 116.583 166.387 116.199 165.992C115.815 165.597 115.516 165.133 115.303 164.6C115.1 164.056 114.999 163.459 114.999 162.808C114.999 162.179 115.1 161.597 115.303 161.064C115.516 160.531 115.804 160.067 116.167 159.672C116.54 159.267 116.978 158.952 117.479 158.728C117.98 158.504 118.524 158.392 119.111 158.392C119.698 158.392 120.231 158.499 120.711 158.712C121.202 158.915 121.623 159.208 121.975 159.592C122.338 159.976 122.615 160.435 122.807 160.968C122.999 161.491 123.095 162.072 123.095 162.712V163.256H116.903C116.956 163.747 117.084 164.173 117.287 164.536C117.5 164.888 117.772 165.16 118.103 165.352C118.434 165.544 118.818 165.64 119.255 165.64C120.13 165.64 120.812 165.251 121.303 164.472L122.919 165.096C122.727 165.533 122.444 165.917 122.071 166.248C121.708 166.568 121.282 166.813 120.791 166.984C120.311 167.155 119.799 167.24 119.255 167.24ZM119.111 159.88C118.738 159.88 118.402 159.965 118.103 160.136C117.815 160.307 117.57 160.547 117.367 160.856C117.164 161.165 117.026 161.528 116.951 161.944H121.175C121.111 161.528 120.988 161.165 120.807 160.856C120.626 160.547 120.386 160.307 120.087 160.136C119.799 159.965 119.474 159.88 119.111 159.88ZM129.19 170.328C128.923 170.328 128.673 170.301 128.438 170.248C128.214 170.195 127.995 170.109 127.782 169.992L128.182 168.536C128.299 168.589 128.433 168.632 128.582 168.664C128.731 168.707 128.875 168.728 129.014 168.728C129.334 168.728 129.611 168.637 129.846 168.456C130.091 168.275 130.294 167.981 130.454 167.576L130.71 166.92L127.302 158.632H129.318L131.574 164.888L133.622 158.632H135.574L132.022 168.008C131.713 168.808 131.323 169.395 130.854 169.768C130.395 170.141 129.841 170.328 129.19 170.328ZM140.427 167.24C139.819 167.24 139.254 167.133 138.731 166.92C138.219 166.696 137.771 166.387 137.387 165.992C137.003 165.587 136.704 165.117 136.491 164.584C136.278 164.04 136.171 163.448 136.171 162.808C136.171 162.179 136.278 161.597 136.491 161.064C136.704 160.52 137.003 160.051 137.387 159.656C137.782 159.251 138.24 158.941 138.763 158.728C139.296 158.504 139.872 158.392 140.491 158.392C141.099 158.392 141.659 158.504 142.171 158.728C142.694 158.941 143.147 159.251 143.531 159.656C143.915 160.051 144.214 160.515 144.427 161.048C144.64 161.581 144.747 162.168 144.747 162.808C144.747 163.448 144.64 164.04 144.427 164.584C144.214 165.117 143.91 165.587 143.515 165.992C143.131 166.387 142.672 166.696 142.139 166.92C141.616 167.133 141.046 167.24 140.427 167.24ZM140.459 165.576C140.918 165.576 141.328 165.459 141.691 165.224C142.054 164.979 142.336 164.648 142.539 164.232C142.752 163.816 142.859 163.341 142.859 162.808C142.859 162.275 142.752 161.805 142.539 161.4C142.336 160.984 142.054 160.659 141.691 160.424C141.328 160.179 140.918 160.056 140.459 160.056C140 160.056 139.59 160.179 139.227 160.424C138.864 160.659 138.576 160.984 138.363 161.4C138.16 161.805 138.059 162.275 138.059 162.808C138.059 163.341 138.16 163.816 138.363 164.232C138.576 164.648 138.864 164.979 139.227 165.224C139.59 165.459 140 165.576 140.459 165.576ZM150.047 167.24C149.3 167.24 148.65 167.08 148.095 166.76C147.551 166.44 147.124 165.987 146.815 165.4C146.516 164.803 146.367 164.104 146.367 163.304V158.632H148.207V163.336C148.207 164.029 148.372 164.579 148.703 164.984C149.034 165.379 149.487 165.576 150.063 165.576C150.639 165.576 151.092 165.379 151.423 164.984C151.754 164.579 151.919 164.029 151.919 163.336V158.632H153.759V163.304C153.759 164.093 153.604 164.787 153.295 165.384C152.996 165.971 152.57 166.429 152.015 166.76C151.46 167.08 150.804 167.24 150.047 167.24ZM155.742 167V158.632H157.422L157.502 160.008C157.715 159.539 158.009 159.176 158.382 158.92C158.766 158.653 159.214 158.52 159.726 158.52C159.886 158.52 160.041 158.531 160.19 158.552C160.339 158.573 160.473 158.611 160.59 158.664L160.382 160.456C160.265 160.413 160.142 160.387 160.014 160.376C159.886 160.355 159.758 160.344 159.63 160.344C158.99 160.344 158.489 160.557 158.126 160.984C157.763 161.411 157.582 162.003 157.582 162.76V167H155.742ZM167.383 156.296C167.383 156.499 167.33 156.685 167.223 156.856C167.127 157.027 166.994 157.165 166.823 157.272C166.653 157.368 166.466 157.416 166.263 157.416C166.061 157.416 165.874 157.368 165.703 157.272C165.533 157.165 165.394 157.027 165.287 156.856C165.191 156.685 165.143 156.499 165.143 156.296C165.143 156.093 165.191 155.907 165.287 155.736C165.394 155.565 165.533 155.432 165.703 155.336C165.874 155.229 166.061 155.176 166.263 155.176C166.466 155.176 166.653 155.229 166.823 155.336C166.994 155.432 167.127 155.565 167.223 155.736C167.33 155.907 167.383 156.093 167.383 156.296ZM165.351 167V158.632H167.191V167H165.351ZM172.716 167.24C172.161 167.24 171.644 167.128 171.164 166.904C170.694 166.68 170.284 166.371 169.932 165.976C169.58 165.581 169.302 165.117 169.1 164.584C168.908 164.051 168.812 163.475 168.812 162.856C168.812 162.227 168.913 161.64 169.116 161.096C169.318 160.552 169.601 160.077 169.964 159.672C170.326 159.267 170.748 158.952 171.228 158.728C171.718 158.504 172.246 158.392 172.812 158.392C173.366 158.392 173.873 158.509 174.332 158.744C174.79 158.979 175.169 159.309 175.468 159.736V155.096H177.308V167H175.628L175.548 165.656C175.249 166.147 174.854 166.536 174.364 166.824C173.873 167.101 173.324 167.24 172.716 167.24ZM173.1 165.576C173.558 165.576 173.969 165.459 174.332 165.224C174.694 164.979 174.977 164.648 175.18 164.232C175.393 163.816 175.5 163.347 175.5 162.824C175.5 162.291 175.393 161.816 175.18 161.4C174.977 160.984 174.694 160.659 174.332 160.424C173.969 160.179 173.558 160.056 173.1 160.056C172.641 160.056 172.23 160.179 171.868 160.424C171.505 160.659 171.217 160.984 171.004 161.4C170.801 161.816 170.7 162.291 170.7 162.824C170.7 163.347 170.801 163.816 171.004 164.232C171.217 164.648 171.505 164.979 171.868 165.224C172.23 165.459 172.641 165.576 173.1 165.576ZM183.177 167.24C182.558 167.24 181.988 167.133 181.465 166.92C180.953 166.696 180.505 166.387 180.121 165.992C179.737 165.597 179.438 165.133 179.225 164.6C179.022 164.056 178.921 163.459 178.921 162.808C178.921 162.179 179.022 161.597 179.225 161.064C179.438 160.531 179.726 160.067 180.089 159.672C180.462 159.267 180.9 158.952 181.401 158.728C181.902 158.504 182.446 158.392 183.033 158.392C183.62 158.392 184.153 158.499 184.633 158.712C185.124 158.915 185.545 159.208 185.897 159.592C186.26 159.976 186.537 160.435 186.729 160.968C186.921 161.491 187.017 162.072 187.017 162.712V163.256H180.825C180.878 163.747 181.006 164.173 181.209 164.536C181.422 164.888 181.694 165.16 182.025 165.352C182.356 165.544 182.74 165.64 183.177 165.64C184.052 165.64 184.734 165.251 185.225 164.472L186.841 165.096C186.649 165.533 186.366 165.917 185.993 166.248C185.63 166.568 185.204 166.813 184.713 166.984C184.233 167.155 183.721 167.24 183.177 167.24ZM183.033 159.88C182.66 159.88 182.324 159.965 182.025 160.136C181.737 160.307 181.492 160.547 181.289 160.856C181.086 161.165 180.948 161.528 180.873 161.944H185.097C185.033 161.528 184.91 161.165 184.729 160.856C184.548 160.547 184.308 160.307 184.009 160.136C183.721 159.965 183.396 159.88 183.033 159.88ZM191.146 167.24C190.719 167.24 190.324 167.176 189.962 167.048C189.61 166.92 189.3 166.739 189.034 166.504C188.767 166.269 188.559 165.992 188.41 165.672C188.26 165.352 188.186 165 188.186 164.616C188.186 164.083 188.324 163.619 188.602 163.224C188.89 162.819 189.29 162.504 189.802 162.28C190.314 162.056 190.911 161.944 191.594 161.944C191.967 161.944 192.324 161.981 192.666 162.056C193.007 162.12 193.332 162.216 193.642 162.344V161.816C193.642 161.443 193.572 161.117 193.434 160.84C193.295 160.552 193.098 160.328 192.842 160.168C192.586 160.008 192.276 159.928 191.914 159.928C191.53 159.928 191.183 160.029 190.874 160.232C190.564 160.435 190.335 160.717 190.186 161.08L188.49 160.696C188.618 160.227 188.847 159.821 189.178 159.48C189.519 159.139 189.924 158.872 190.394 158.68C190.874 158.488 191.391 158.392 191.946 158.392C192.468 158.392 192.943 158.477 193.37 158.648C193.807 158.819 194.18 159.059 194.49 159.368C194.799 159.677 195.039 160.045 195.21 160.472C195.38 160.899 195.466 161.373 195.466 161.896V167H193.786L193.722 165.896C193.498 166.301 193.162 166.627 192.714 166.872C192.266 167.117 191.743 167.24 191.146 167.24ZM190.042 164.536C190.042 164.771 190.106 164.984 190.234 165.176C190.362 165.357 190.538 165.501 190.762 165.608C190.996 165.715 191.268 165.768 191.578 165.768C191.972 165.768 192.324 165.683 192.634 165.512C192.943 165.341 193.188 165.112 193.37 164.824C193.551 164.525 193.642 164.189 193.642 163.816V163.624C193.364 163.507 193.076 163.416 192.778 163.352C192.49 163.277 192.191 163.24 191.882 163.24C191.327 163.24 190.879 163.357 190.538 163.592C190.207 163.827 190.042 164.141 190.042 164.536ZM197.669 169.768L197.285 168.696C197.744 168.536 198.106 168.296 198.373 167.976C198.65 167.667 198.789 167.325 198.789 166.952C198.789 166.813 198.773 166.685 198.741 166.568C198.602 166.675 198.442 166.728 198.261 166.728C198.08 166.728 197.909 166.685 197.749 166.6C197.6 166.504 197.477 166.376 197.381 166.216C197.296 166.056 197.253 165.88 197.253 165.688C197.253 165.496 197.306 165.32 197.413 165.16C197.52 165 197.658 164.872 197.829 164.776C198.01 164.68 198.208 164.632 198.421 164.632C198.73 164.632 199.008 164.728 199.253 164.92C199.509 165.101 199.706 165.352 199.845 165.672C199.994 165.992 200.069 166.349 200.069 166.744C200.069 167.213 199.968 167.645 199.765 168.04C199.573 168.445 199.296 168.792 198.933 169.08C198.581 169.379 198.16 169.608 197.669 169.768ZM204.914 167V155.096H206.754V167H204.914ZM212.63 167.24C212.011 167.24 211.441 167.133 210.918 166.92C210.406 166.696 209.958 166.387 209.574 165.992C209.19 165.597 208.891 165.133 208.678 164.6C208.475 164.056 208.374 163.459 208.374 162.808C208.374 162.179 208.475 161.597 208.678 161.064C208.891 160.531 209.179 160.067 209.542 159.672C209.915 159.267 210.353 158.952 210.854 158.728C211.355 158.504 211.899 158.392 212.486 158.392C213.073 158.392 213.606 158.499 214.086 158.712C214.577 158.915 214.998 159.208 215.35 159.592C215.713 159.976 215.99 160.435 216.182 160.968C216.374 161.491 216.47 162.072 216.47 162.712V163.256H210.278C210.331 163.747 210.459 164.173 210.662 164.536C210.875 164.888 211.147 165.16 211.478 165.352C211.809 165.544 212.193 165.64 212.63 165.64C213.505 165.64 214.187 165.251 214.678 164.472L216.294 165.096C216.102 165.533 215.819 165.917 215.446 166.248C215.083 166.568 214.657 166.813 214.166 166.984C213.686 167.155 213.174 167.24 212.63 167.24ZM212.486 159.88C212.113 159.88 211.777 159.965 211.478 160.136C211.19 160.307 210.945 160.547 210.742 160.856C210.539 161.165 210.401 161.528 210.326 161.944H214.55C214.486 161.528 214.363 161.165 214.182 160.856C214.001 160.547 213.761 160.307 213.462 160.136C213.174 159.965 212.849 159.88 212.486 159.88ZM221.432 167.24C220.59 167.24 219.928 167 219.448 166.52C218.968 166.029 218.728 165.331 218.728 164.424V160.12H217.256V158.632H218.728V155.8H220.568V158.632H223V160.12H220.568V164.232C220.568 164.68 220.659 165.027 220.84 165.272C221.032 165.507 221.31 165.624 221.672 165.624C221.864 165.624 222.072 165.597 222.296 165.544C222.52 165.48 222.728 165.395 222.92 165.288L223.336 166.68C223.091 166.851 222.803 166.984 222.472 167.08C222.152 167.187 221.806 167.24 221.432 167.24ZM225.573 155.576C225.84 155.576 226.085 155.661 226.309 155.832C226.533 156.003 226.709 156.232 226.837 156.52C226.976 156.808 227.045 157.128 227.045 157.48C227.045 157.896 226.954 158.285 226.773 158.648C226.602 159.011 226.357 159.325 226.037 159.592C225.717 159.859 225.338 160.067 224.901 160.216L224.533 159.224C224.938 159.075 225.258 158.861 225.493 158.584C225.738 158.296 225.861 157.992 225.861 157.672C225.861 157.544 225.85 157.432 225.829 157.336C225.712 157.421 225.578 157.464 225.429 157.464C225.258 157.464 225.104 157.427 224.965 157.352C224.837 157.267 224.73 157.155 224.645 157.016C224.56 156.867 224.517 156.707 224.517 156.536C224.517 156.365 224.565 156.205 224.661 156.056C224.757 155.907 224.885 155.789 225.045 155.704C225.205 155.619 225.381 155.576 225.573 155.576ZM231.184 167.24C230.64 167.24 230.133 167.149 229.664 166.968C229.205 166.787 228.811 166.531 228.48 166.2C228.16 165.859 227.931 165.459 227.792 165L229.456 164.568C229.595 164.931 229.819 165.213 230.128 165.416C230.437 165.619 230.795 165.72 231.2 165.72C231.616 165.72 231.957 165.624 232.224 165.432C232.491 165.229 232.624 164.973 232.624 164.664C232.624 164.397 232.517 164.173 232.304 163.992C232.091 163.811 231.744 163.677 231.264 163.592L230.736 163.496C229.84 163.336 229.163 163.048 228.704 162.632C228.256 162.216 228.032 161.683 228.032 161.032C228.032 160.509 228.165 160.051 228.432 159.656C228.699 159.261 229.067 158.952 229.536 158.728C230.005 158.504 230.544 158.392 231.152 158.392C231.675 158.392 232.155 158.483 232.592 158.664C233.029 158.845 233.397 159.101 233.696 159.432C233.995 159.763 234.208 160.152 234.336 160.6L232.688 161C232.56 160.659 232.357 160.392 232.08 160.2C231.813 159.997 231.499 159.896 231.136 159.896C230.763 159.896 230.453 159.992 230.208 160.184C229.963 160.365 229.84 160.6 229.84 160.888C229.84 161.133 229.947 161.336 230.16 161.496C230.384 161.656 230.757 161.784 231.28 161.88L231.808 161.976C232.661 162.125 233.317 162.419 233.776 162.856C234.235 163.293 234.464 163.837 234.464 164.488C234.464 164.883 234.384 165.251 234.224 165.592C234.064 165.923 233.835 166.216 233.536 166.472C233.248 166.717 232.901 166.904 232.496 167.032C232.101 167.171 231.664 167.24 231.184 167.24ZM241.495 156.296C241.495 156.499 241.441 156.685 241.335 156.856C241.239 157.027 241.105 157.165 240.935 157.272C240.775 157.368 240.588 157.416 240.375 157.416C240.161 157.416 239.969 157.368 239.799 157.272C239.639 157.165 239.505 157.027 239.399 156.856C239.303 156.685 239.255 156.499 239.255 156.296C239.255 156.093 239.303 155.907 239.399 155.736C239.505 155.565 239.639 155.432 239.799 155.336C239.969 155.229 240.161 155.176 240.375 155.176C240.588 155.176 240.775 155.229 240.935 155.336C241.105 155.432 241.239 155.565 241.335 155.736C241.441 155.907 241.495 156.093 241.495 156.296ZM238.679 170.328C238.401 170.328 238.14 170.291 237.895 170.216C237.649 170.152 237.42 170.056 237.207 169.928L237.639 168.504C237.884 168.643 238.14 168.712 238.407 168.712C238.737 168.712 238.993 168.6 239.175 168.376C239.367 168.152 239.463 167.837 239.463 167.432V158.632H241.303V167.544C241.303 168.099 241.191 168.584 240.967 169C240.753 169.416 240.449 169.741 240.055 169.976C239.66 170.211 239.201 170.328 238.679 170.328ZM247.177 167.24C246.569 167.24 246.004 167.133 245.481 166.92C244.969 166.696 244.521 166.387 244.137 165.992C243.753 165.587 243.454 165.117 243.241 164.584C243.028 164.04 242.921 163.448 242.921 162.808C242.921 162.179 243.028 161.597 243.241 161.064C243.454 160.52 243.753 160.051 244.137 159.656C244.532 159.251 244.99 158.941 245.513 158.728C246.046 158.504 246.622 158.392 247.241 158.392C247.849 158.392 248.409 158.504 248.921 158.728C249.444 158.941 249.897 159.251 250.281 159.656C250.665 160.051 250.964 160.515 251.177 161.048C251.39 161.581 251.497 162.168 251.497 162.808C251.497 163.448 251.39 164.04 251.177 164.584C250.964 165.117 250.66 165.587 250.265 165.992C249.881 166.387 249.422 166.696 248.889 166.92C248.366 167.133 247.796 167.24 247.177 167.24ZM247.209 165.576C247.668 165.576 248.078 165.459 248.441 165.224C248.804 164.979 249.086 164.648 249.289 164.232C249.502 163.816 249.609 163.341 249.609 162.808C249.609 162.275 249.502 161.805 249.289 161.4C249.086 160.984 248.804 160.659 248.441 160.424C248.078 160.179 247.668 160.056 247.209 160.056C246.75 160.056 246.34 160.179 245.977 160.424C245.614 160.659 245.326 160.984 245.113 161.4C244.91 161.805 244.809 162.275 244.809 162.808C244.809 163.341 244.91 163.816 245.113 164.232C245.326 164.648 245.614 164.979 245.977 165.224C246.34 165.459 246.75 165.576 247.209 165.576ZM255.149 156.296C255.149 156.499 255.096 156.685 254.989 156.856C254.893 157.027 254.76 157.165 254.589 157.272C254.418 157.368 254.232 157.416 254.029 157.416C253.826 157.416 253.64 157.368 253.469 157.272C253.298 157.165 253.16 157.027 253.053 156.856C252.957 156.685 252.909 156.499 252.909 156.296C252.909 156.093 252.957 155.907 253.053 155.736C253.16 155.565 253.298 155.432 253.469 155.336C253.64 155.229 253.826 155.176 254.029 155.176C254.232 155.176 254.418 155.229 254.589 155.336C254.76 155.432 254.893 155.565 254.989 155.736C255.096 155.907 255.149 156.093 255.149 156.296ZM253.117 167V158.632H254.957V167H253.117ZM256.945 167V158.632H258.625L258.689 159.784C258.934 159.357 259.276 159.021 259.713 158.776C260.161 158.52 260.673 158.392 261.249 158.392C261.878 158.392 262.422 158.541 262.881 158.84C263.35 159.139 263.713 159.56 263.969 160.104C264.225 160.648 264.353 161.288 264.353 162.024V167H262.513V162.232C262.513 161.549 262.358 161.016 262.049 160.632C261.75 160.248 261.329 160.056 260.785 160.056C260.401 160.056 260.054 160.147 259.745 160.328C259.446 160.509 259.212 160.755 259.041 161.064C258.87 161.373 258.785 161.731 258.785 162.136V167H256.945ZM270.494 167V160.12H269.022V158.632H270.494V158.04C270.494 157.421 270.622 156.883 270.878 156.424C271.134 155.955 271.486 155.592 271.934 155.336C272.382 155.069 272.894 154.936 273.47 154.936C273.801 154.936 274.099 154.979 274.366 155.064C274.643 155.139 274.889 155.235 275.102 155.352L274.686 156.76C274.547 156.685 274.387 156.627 274.206 156.584C274.035 156.531 273.865 156.504 273.694 156.504C273.235 156.504 272.894 156.648 272.67 156.936C272.446 157.213 272.334 157.613 272.334 158.136V158.632H274.734V160.12H272.334V167H270.494ZM279.755 167.24C279.147 167.24 278.582 167.133 278.059 166.92C277.547 166.696 277.099 166.387 276.715 165.992C276.331 165.587 276.032 165.117 275.819 164.584C275.606 164.04 275.499 163.448 275.499 162.808C275.499 162.179 275.606 161.597 275.819 161.064C276.032 160.52 276.331 160.051 276.715 159.656C277.11 159.251 277.568 158.941 278.091 158.728C278.624 158.504 279.2 158.392 279.819 158.392C280.427 158.392 280.987 158.504 281.499 158.728C282.022 158.941 282.475 159.251 282.859 159.656C283.243 160.051 283.542 160.515 283.755 161.048C283.968 161.581 284.075 162.168 284.075 162.808C284.075 163.448 283.968 164.04 283.755 164.584C283.542 165.117 283.238 165.587 282.843 165.992C282.459 166.387 282 166.696 281.467 166.92C280.944 167.133 280.374 167.24 279.755 167.24ZM279.787 165.576C280.246 165.576 280.656 165.459 281.019 165.224C281.382 164.979 281.664 164.648 281.867 164.232C282.08 163.816 282.187 163.341 282.187 162.808C282.187 162.275 282.08 161.805 281.867 161.4C281.664 160.984 281.382 160.659 281.019 160.424C280.656 160.179 280.246 160.056 279.787 160.056C279.328 160.056 278.918 160.179 278.555 160.424C278.192 160.659 277.904 160.984 277.691 161.4C277.488 161.805 277.387 162.275 277.387 162.808C277.387 163.341 277.488 163.816 277.691 164.232C277.904 164.648 278.192 164.979 278.555 165.224C278.918 165.459 279.328 165.576 279.787 165.576ZM285.695 167V158.632H287.375L287.455 160.008C287.668 159.539 287.962 159.176 288.335 158.92C288.719 158.653 289.167 158.52 289.679 158.52C289.839 158.52 289.994 158.531 290.143 158.552C290.292 158.573 290.426 158.611 290.543 158.664L290.335 160.456C290.218 160.413 290.095 160.387 289.967 160.376C289.839 160.355 289.711 160.344 289.583 160.344C288.943 160.344 288.442 160.557 288.079 160.984C287.716 161.411 287.535 162.003 287.535 162.76V167H285.695ZM295.424 167.24C294.827 167.24 294.278 167.133 293.776 166.92C293.275 166.696 292.838 166.392 292.464 166.008C292.091 165.613 291.798 165.149 291.584 164.616C291.382 164.083 291.28 163.501 291.28 162.872C291.28 162.243 291.387 161.656 291.6 161.112C291.814 160.568 292.107 160.093 292.48 159.688C292.854 159.283 293.291 158.968 293.792 158.744C294.304 158.509 294.859 158.392 295.456 158.392C296.032 158.392 296.56 158.499 297.04 158.712C297.52 158.915 297.931 159.208 298.272 159.592C298.624 159.965 298.875 160.408 299.024 160.92L297.28 161.336C297.099 160.931 296.843 160.616 296.512 160.392C296.192 160.168 295.83 160.056 295.424 160.056C294.998 160.056 294.614 160.179 294.272 160.424C293.931 160.669 293.659 161.005 293.456 161.432C293.264 161.848 293.168 162.323 293.168 162.856C293.168 163.379 293.264 163.848 293.456 164.264C293.648 164.669 293.91 164.989 294.24 165.224C294.582 165.459 294.976 165.576 295.424 165.576C295.851 165.576 296.24 165.469 296.592 165.256C296.944 165.032 297.206 164.717 297.376 164.312L299.104 164.712C298.955 165.224 298.699 165.672 298.336 166.056C297.974 166.429 297.542 166.723 297.04 166.936C296.539 167.139 296 167.24 295.424 167.24ZM304.443 167.24C303.824 167.24 303.253 167.133 302.731 166.92C302.219 166.696 301.771 166.387 301.387 165.992C301.003 165.597 300.704 165.133 300.491 164.6C300.288 164.056 300.187 163.459 300.187 162.808C300.187 162.179 300.288 161.597 300.491 161.064C300.704 160.531 300.992 160.067 301.355 159.672C301.728 159.267 302.165 158.952 302.667 158.728C303.168 158.504 303.712 158.392 304.299 158.392C304.885 158.392 305.419 158.499 305.899 158.712C306.389 158.915 306.811 159.208 307.163 159.592C307.525 159.976 307.803 160.435 307.995 160.968C308.187 161.491 308.283 162.072 308.283 162.712V163.256H302.091C302.144 163.747 302.272 164.173 302.475 164.536C302.688 164.888 302.96 165.16 303.291 165.352C303.621 165.544 304.005 165.64 304.443 165.64C305.317 165.64 306 165.251 306.491 164.472L308.107 165.096C307.915 165.533 307.632 165.917 307.259 166.248C306.896 166.568 306.469 166.813 305.979 166.984C305.499 167.155 304.987 167.24 304.443 167.24ZM304.299 159.88C303.925 159.88 303.589 159.965 303.291 160.136C303.003 160.307 302.757 160.547 302.555 160.856C302.352 161.165 302.213 161.528 302.139 161.944H306.363C306.299 161.528 306.176 161.165 305.995 160.856C305.813 160.547 305.573 160.307 305.275 160.136C304.987 159.965 304.661 159.88 304.299 159.88ZM312.778 167.24C312.234 167.24 311.727 167.149 311.258 166.968C310.799 166.787 310.405 166.531 310.074 166.2C309.754 165.859 309.525 165.459 309.386 165L311.05 164.568C311.189 164.931 311.413 165.213 311.722 165.416C312.031 165.619 312.389 165.72 312.794 165.72C313.21 165.72 313.551 165.624 313.818 165.432C314.085 165.229 314.218 164.973 314.218 164.664C314.218 164.397 314.111 164.173 313.898 163.992C313.685 163.811 313.338 163.677 312.858 163.592L312.33 163.496C311.434 163.336 310.757 163.048 310.298 162.632C309.85 162.216 309.626 161.683 309.626 161.032C309.626 160.509 309.759 160.051 310.026 159.656C310.293 159.261 310.661 158.952 311.13 158.728C311.599 158.504 312.138 158.392 312.746 158.392C313.269 158.392 313.749 158.483 314.186 158.664C314.623 158.845 314.991 159.101 315.29 159.432C315.589 159.763 315.802 160.152 315.93 160.6L314.282 161C314.154 160.659 313.951 160.392 313.674 160.2C313.407 159.997 313.093 159.896 312.73 159.896C312.357 159.896 312.047 159.992 311.802 160.184C311.557 160.365 311.434 160.6 311.434 160.888C311.434 161.133 311.541 161.336 311.754 161.496C311.978 161.656 312.351 161.784 312.874 161.88L313.402 161.976C314.255 162.125 314.911 162.419 315.37 162.856C315.829 163.293 316.058 163.837 316.058 164.488C316.058 164.883 315.978 165.251 315.818 165.592C315.658 165.923 315.429 166.216 315.13 166.472C314.842 166.717 314.495 166.904 314.09 167.032C313.695 167.171 313.258 167.24 312.778 167.24ZM317.682 163.672L317.586 155.64H319.57L319.474 163.672H317.682ZM318.578 167.064C318.354 167.064 318.151 167.011 317.97 166.904C317.799 166.797 317.661 166.653 317.554 166.472C317.447 166.291 317.394 166.093 317.394 165.88C317.394 165.667 317.447 165.469 317.554 165.288C317.661 165.107 317.799 164.963 317.97 164.856C318.151 164.749 318.354 164.696 318.578 164.696C318.802 164.696 318.999 164.749 319.17 164.856C319.351 164.963 319.495 165.107 319.602 165.288C319.709 165.469 319.762 165.667 319.762 165.88C319.762 166.093 319.709 166.291 319.602 166.472C319.495 166.653 319.351 166.797 319.17 166.904C318.999 167.011 318.802 167.064 318.578 167.064Z" fill="white"/>
<defs>
<filter id="filter0_d" x="109" y="23" width="299" height="117" filterUnits="userSpaceOnUse" color-interpolation-filters="sRGB">
<feFlood flood-opacity="0" result="BackgroundImageFix"/>
<feColorMatrix in="SourceAlpha" type="matrix" values="0 0 0 0 0 0 0 0 0 0 0 0 0 0 0 0 0 0 127 0"/>
<feOffset dy="8"/>
<feGaussianBlur stdDeviation="10"/>
<feColorMatrix type="matrix" values="0 0 0 0 0.101961 0 0 0 0 0.12549 0 0 0 0 0.172549 0 0 0 0.15 0"/>
<feBlend mode="normal" in2="BackgroundImageFix" result="effect1_dropShadow"/>
<feBlend mode="normal" in="SourceGraphic" in2="effect1_dropShadow" result="shape"/>
</filter>
<filter id="filter1_d" x="0" y="200" width="299" height="117" filterUnits="userSpaceOnUse" color-interpolation-filters="sRGB">
<feFlood flood-opacity="0" result="BackgroundImageFix"/>
<feColorMatrix in="SourceAlpha" type="matrix" values="0 0 0 0 0 0 0 0 0 0 0 0 0 0 0 0 0 0 127 0"/>
<feOffset dy="8"/>
<feGaussianBlur stdDeviation="10"/>
<feColorMatrix type="matrix" values="0 0 0 0 0.101961 0 0 0 0 0.12549 0 0 0 0 0.172549 0 0 0 0.15 0"/>
<feBlend mode="normal" in2="BackgroundImageFix" result="effect1_dropShadow"/>
<feBlend mode="normal" in="SourceGraphic" in2="effect1_dropShadow" result="shape"/>
</filter>
<filter id="filter2_d" x="56" y="129" width="297" height="81" filterUnits="userSpaceOnUse" color-interpolation-filters="sRGB">
<feFlood flood-opacity="0" result="BackgroundImageFix"/>
<feColorMatrix in="SourceAlpha" type="matrix" values="0 0 0 0 0 0 0 0 0 0 0 0 0 0 0 0 0 0 127 0"/>
<feOffset dy="8"/>
<feGaussianBlur stdDeviation="10"/>
<feColorMatrix type="matrix" values="0 0 0 0 0.101961 0 0 0 0 0.12549 0 0 0 0 0.172549 0 0 0 0.15 0"/>
<feBlend mode="normal" in2="BackgroundImageFix" result="effect1_dropShadow"/>
<feBlend mode="normal" in="SourceGraphic" in2="effect1_dropShadow" result="shape"/>
</filter>
</defs>
</svg>
