<svg width="1911" height="801" viewBox="0 0 1911 801" fill="none" xmlns="http://www.w3.org/2000/svg">
<rect x="335" width="1241" height="801" rx="20" fill="#196AFF"/>
<g filter="url(#filter0_d)">
<rect x="80" y="168" width="517" height="465" rx="20" fill="white"/>
</g>
<rect x="241" y="238" width="196" height="196" rx="98" fill="#EBF0F5"/>
<path d="M362.643 335.97L388.143 310.439C388.693 309.888 389.001 309.142 389 308.364C388.999 307.586 388.688 306.84 388.137 306.292L368.603 286.856C367.458 285.716 365.608 285.719 364.465 286.861L339 312.327L317.675 291.001C317.249 290.575 316.702 290.291 316.108 290.187L292.435 286.044C291.494 285.88 290.533 286.183 289.858 286.858C289.183 287.533 288.879 288.495 289.044 289.435L293.19 313.106C293.294 313.7 293.578 314.248 294.005 314.674L315.342 335.985L289.859 361.468C289.31 362.017 289.001 362.763 289.001 363.54C289.001 364.317 289.31 365.062 289.859 365.611L309.387 385.139C309.937 385.689 310.682 385.997 311.459 385.997H311.46C312.237 385.997 312.982 385.688 313.531 385.138L339.013 359.627L364.56 385.143C365.109 385.692 365.854 386 366.63 386H366.635C367.413 385.999 368.158 385.688 368.707 385.137L388.143 365.603C389.282 364.458 389.279 362.607 388.138 361.465L362.643 335.97ZM349.15 310.462L355.365 316.677C355.937 317.249 356.687 317.535 357.437 317.535C358.186 317.535 358.936 317.249 359.508 316.677C360.652 315.533 360.652 313.678 359.508 312.534L353.293 306.319L358.916 300.697L365.13 306.912C365.702 307.484 366.452 307.77 367.202 307.77C367.952 307.77 368.702 307.484 369.273 306.912C370.418 305.768 370.418 303.913 369.273 302.769L363.059 296.554L366.542 293.07L381.923 308.375L358.499 331.826L343.143 316.47L349.15 310.462ZM309.546 294.987L297.989 306.544L295.535 292.535L309.546 294.987ZM311.458 378.924L296.074 363.54L299.553 360.06L305.768 366.275C306.339 366.847 307.089 367.133 307.839 367.133C308.589 367.133 309.339 366.847 309.91 366.275C311.055 365.131 311.055 363.276 309.91 362.132L303.696 355.917L309.318 350.295L315.533 356.51C316.105 357.082 316.855 357.368 317.604 357.368C318.354 357.368 319.104 357.082 319.676 356.51C320.82 355.366 320.82 353.511 319.676 352.367L313.461 346.152L319.488 340.126L334.867 355.486L311.458 378.924ZM366.624 378.923L300.22 312.6L305.838 306.981L372.187 373.332L366.624 378.923ZM376.32 369.178L309.981 302.838L315.603 297.216L381.928 363.542L376.32 369.178Z" fill="#196AFF"/>
<path d="M202.512 543.44C199.584 543.44 196.824 543.008 194.232 542.144C191.64 541.28 189.288 540.056 187.176 538.472C185.064 536.888 183.24 535.016 181.704 532.856C180.216 530.648 179.064 528.2 178.248 525.512C177.432 522.776 177.024 519.872 177.024 516.8C177.024 513.728 177.432 510.824 178.248 508.088C179.112 505.304 180.312 502.784 181.848 500.528C183.384 498.224 185.208 496.256 187.32 494.624C189.432 492.944 191.76 491.672 194.304 490.808C196.896 489.896 199.632 489.44 202.512 489.44C205.152 489.44 207.648 489.8 210 490.52C212.352 491.24 214.488 492.272 216.408 493.616C218.328 494.96 219.984 496.568 221.376 498.44C222.816 500.312 223.896 502.424 224.616 504.776L214.248 507.368C213.096 504.824 211.488 502.856 209.424 501.464C207.36 500.024 205.008 499.304 202.368 499.304C200.352 499.304 198.456 499.736 196.68 500.6C194.952 501.464 193.44 502.688 192.144 504.272C190.896 505.808 189.912 507.632 189.192 509.744C188.472 511.856 188.112 514.16 188.112 516.656C188.112 519.152 188.448 521.432 189.12 523.496C189.84 525.56 190.848 527.36 192.144 528.896C193.44 530.384 194.952 531.536 196.68 532.352C198.456 533.168 200.4 533.576 202.512 533.576C205.248 533.576 207.648 532.904 209.712 531.56C211.824 530.168 213.504 528.152 214.752 525.512L225.12 528.104C224.112 531.224 222.504 533.936 220.296 536.24C218.136 538.544 215.544 540.32 212.52 541.568C209.496 542.816 206.16 543.44 202.512 543.44ZM231.399 542V503.984H240.687L241.047 509.744C242.007 507.728 243.303 506.192 244.935 505.136C246.567 504.032 248.487 503.48 250.695 503.48C251.367 503.48 252.039 503.552 252.711 503.696C253.383 503.792 253.983 503.936 254.511 504.128L253.431 514.064C252.903 513.872 252.351 513.752 251.775 513.704C251.247 513.608 250.695 513.56 250.119 513.56C247.335 513.56 245.199 514.424 243.711 516.152C242.223 517.832 241.479 520.232 241.479 523.352V542H231.399ZM277.032 543.08C274.2 543.08 271.584 542.6 269.184 541.64C266.832 540.632 264.792 539.24 263.064 537.464C261.336 535.64 259.992 533.504 259.032 531.056C258.072 528.56 257.592 525.848 257.592 522.92C257.592 520.088 258.072 517.448 259.032 515C259.992 512.552 261.312 510.44 262.992 508.664C264.72 506.84 266.736 505.424 269.04 504.416C271.344 503.408 273.84 502.904 276.528 502.904C279.312 502.904 281.832 503.384 284.088 504.344C286.392 505.304 288.36 506.672 289.992 508.448C291.624 510.224 292.872 512.336 293.736 514.784C294.648 517.232 295.104 519.968 295.104 522.992V525.512H267.816C268.248 528.344 269.28 530.576 270.912 532.208C272.544 533.792 274.608 534.584 277.104 534.584C278.832 534.584 280.392 534.176 281.784 533.36C283.224 532.544 284.4 531.368 285.312 529.832L294.312 532.712C293.448 534.872 292.152 536.72 290.424 538.256C288.696 539.792 286.68 540.992 284.376 541.856C282.072 542.672 279.624 543.08 277.032 543.08ZM276.528 510.68C274.32 510.68 272.448 511.4 270.912 512.84C269.424 514.28 268.44 516.248 267.96 518.744H284.736C284.352 516.248 283.416 514.28 281.928 512.84C280.488 511.4 278.688 510.68 276.528 510.68ZM313.096 543.08C311.128 543.08 309.328 542.792 307.696 542.216C306.064 541.64 304.624 540.824 303.376 539.768C302.176 538.664 301.24 537.392 300.568 535.952C299.896 534.512 299.56 532.928 299.56 531.2C299.56 528.8 300.208 526.688 301.504 524.864C302.8 523.04 304.624 521.624 306.976 520.616C309.328 519.56 312.064 519.032 315.184 519.032C316.768 519.032 318.256 519.176 319.648 519.464C321.088 519.752 322.48 520.16 323.824 520.688V518.456C323.824 516.296 323.2 514.544 321.952 513.2C320.752 511.856 319.096 511.184 316.984 511.184C315.4 511.184 313.96 511.592 312.664 512.408C311.368 513.176 310.456 514.28 309.928 515.72L300.928 513.92C301.456 511.712 302.488 509.792 304.024 508.16C305.608 506.48 307.528 505.184 309.784 504.272C312.04 503.36 314.488 502.904 317.128 502.904C319.576 502.904 321.808 503.288 323.824 504.056C325.84 504.824 327.568 505.928 329.008 507.368C330.496 508.808 331.624 510.512 332.392 512.48C333.208 514.4 333.616 516.56 333.616 518.96V542H324.616L324.328 537.536C323.32 539.168 321.856 540.512 319.936 541.568C318.016 542.576 315.736 543.08 313.096 543.08ZM309.496 530.696C309.496 532.04 310.048 533.144 311.152 534.008C312.256 534.872 313.72 535.304 315.544 535.304C317.128 535.304 318.544 534.968 319.792 534.296C321.04 533.624 322.024 532.712 322.744 531.56C323.464 530.36 323.824 529.04 323.824 527.6V527.24C322.768 526.808 321.64 526.472 320.44 526.232C319.24 525.944 318.04 525.8 316.84 525.8C314.584 525.8 312.784 526.256 311.44 527.168C310.144 528.032 309.496 529.208 309.496 530.696ZM356.872 543.08C354.232 543.08 351.952 542.576 350.032 541.568C348.16 540.512 346.696 539 345.64 537.032C344.632 535.064 344.128 532.664 344.128 529.832V512.12H337.648V503.984H344.128V491.024H354.208V503.984H364.576V512.12H354.208V528.608C354.208 530.432 354.592 531.848 355.36 532.856C356.128 533.816 357.304 534.296 358.888 534.296C359.704 534.296 360.568 534.176 361.48 533.936C362.44 533.696 363.352 533.384 364.216 533L366.016 540.56C364.768 541.328 363.376 541.928 361.84 542.36C360.304 542.84 358.648 543.08 356.872 543.08ZM382.754 493.688C382.754 494.792 382.49 495.776 381.962 496.64C381.482 497.504 380.786 498.2 379.874 498.728C379.01 499.208 378.05 499.448 376.994 499.448C375.938 499.448 374.954 499.208 374.042 498.728C373.178 498.2 372.482 497.504 371.954 496.64C371.474 495.776 371.234 494.792 371.234 493.688C371.234 492.584 371.474 491.6 371.954 490.736C372.482 489.872 373.178 489.2 374.042 488.72C374.954 488.192 375.938 487.928 376.994 487.928C378.05 487.928 379.01 488.192 379.874 488.72C380.786 489.2 381.482 489.872 381.962 490.736C382.49 491.6 382.754 492.584 382.754 493.688ZM371.954 542V503.984H382.034V542H371.954ZM401.111 542L386.855 503.984H397.871L406.367 531.344L415.007 503.984H425.663L411.407 542H401.111ZM447.118 543.08C444.286 543.08 441.67 542.6 439.27 541.64C436.918 540.632 434.878 539.24 433.15 537.464C431.422 535.64 430.078 533.504 429.118 531.056C428.158 528.56 427.678 525.848 427.678 522.92C427.678 520.088 428.158 517.448 429.118 515C430.078 512.552 431.398 510.44 433.078 508.664C434.806 506.84 436.822 505.424 439.126 504.416C441.43 503.408 443.926 502.904 446.614 502.904C449.398 502.904 451.918 503.384 454.174 504.344C456.478 505.304 458.446 506.672 460.078 508.448C461.71 510.224 462.958 512.336 463.822 514.784C464.734 517.232 465.19 519.968 465.19 522.992V525.512H437.902C438.334 528.344 439.366 530.576 440.998 532.208C442.63 533.792 444.694 534.584 447.19 534.584C448.918 534.584 450.478 534.176 451.87 533.36C453.31 532.544 454.486 531.368 455.398 529.832L464.398 532.712C463.534 534.872 462.238 536.72 460.51 538.256C458.782 539.792 456.766 540.992 454.462 541.856C452.158 542.672 449.71 543.08 447.118 543.08ZM446.614 510.68C444.406 510.68 442.534 511.4 440.998 512.84C439.51 514.28 438.526 516.248 438.046 518.744H454.822C454.438 516.248 453.502 514.28 452.014 512.84C450.574 511.4 448.774 510.68 446.614 510.68ZM485.548 543.08C482.86 543.08 480.412 542.648 478.204 541.784C476.044 540.92 474.196 539.696 472.66 538.112C471.172 536.528 470.14 534.656 469.564 532.496L478.636 530.552C479.116 532.04 479.98 533.216 481.228 534.08C482.476 534.944 483.964 535.376 485.692 535.376C487.324 535.376 488.668 535.016 489.724 534.296C490.78 533.576 491.308 532.592 491.308 531.344C491.308 530.288 490.828 529.424 489.868 528.752C488.956 528.032 487.42 527.48 485.26 527.096L483.244 526.736C479.116 526.016 475.972 524.672 473.812 522.704C471.7 520.736 470.644 518.24 470.644 515.216C470.644 512.816 471.268 510.704 472.516 508.88C473.764 507.008 475.492 505.544 477.7 504.488C479.908 503.432 482.452 502.904 485.332 502.904C487.876 502.904 490.18 503.336 492.244 504.2C494.356 505.016 496.108 506.192 497.5 507.728C498.892 509.264 499.852 511.112 500.38 513.272L491.38 515.144C490.9 513.704 490.108 512.576 489.004 511.76C487.948 510.944 486.7 510.536 485.26 510.536C483.772 510.536 482.548 510.896 481.588 511.616C480.628 512.336 480.148 513.248 480.148 514.352C480.148 515.312 480.604 516.128 481.516 516.8C482.476 517.424 484.084 517.928 486.34 518.312L488.356 518.672C492.436 519.392 495.556 520.76 497.716 522.776C499.876 524.744 500.956 527.264 500.956 530.336C500.956 532.208 500.572 533.912 499.804 535.448C499.084 536.984 498.028 538.328 496.636 539.48C495.244 540.632 493.612 541.52 491.74 542.144C489.868 542.768 487.804 543.08 485.548 543.08Z" fill="#1A202C"/>
<g filter="url(#filter1_d)">
<rect x="697" y="168" width="517" height="465" rx="20" fill="white"/>
</g>
<rect x="858" y="238" width="196" height="196" rx="98" fill="#EBF0F5"/>
<path d="M820.696 542V490.88H831.424V510.824H854.032V490.88H864.76V542H854.032V520.328H831.424V542H820.696ZM885.221 543.08C883.253 543.08 881.453 542.792 879.821 542.216C878.189 541.64 876.749 540.824 875.501 539.768C874.301 538.664 873.365 537.392 872.693 535.952C872.021 534.512 871.685 532.928 871.685 531.2C871.685 528.8 872.333 526.688 873.629 524.864C874.925 523.04 876.749 521.624 879.101 520.616C881.453 519.56 884.189 519.032 887.309 519.032C888.893 519.032 890.381 519.176 891.773 519.464C893.213 519.752 894.605 520.16 895.949 520.688V518.456C895.949 516.296 895.325 514.544 894.077 513.2C892.877 511.856 891.221 511.184 889.109 511.184C887.525 511.184 886.085 511.592 884.789 512.408C883.493 513.176 882.581 514.28 882.053 515.72L873.053 513.92C873.581 511.712 874.613 509.792 876.149 508.16C877.733 506.48 879.653 505.184 881.909 504.272C884.165 503.36 886.613 502.904 889.253 502.904C891.701 502.904 893.933 503.288 895.949 504.056C897.965 504.824 899.693 505.928 901.133 507.368C902.621 508.808 903.749 510.512 904.517 512.48C905.333 514.4 905.741 516.56 905.741 518.96V542H896.741L896.453 537.536C895.445 539.168 893.981 540.512 892.061 541.568C890.141 542.576 887.861 543.08 885.221 543.08ZM881.621 530.696C881.621 532.04 882.173 533.144 883.277 534.008C884.381 534.872 885.845 535.304 887.669 535.304C889.253 535.304 890.669 534.968 891.917 534.296C893.165 533.624 894.149 532.712 894.869 531.56C895.589 530.36 895.949 529.04 895.949 527.6V527.24C894.893 526.808 893.765 526.472 892.565 526.232C891.365 525.944 890.165 525.8 888.965 525.8C886.709 525.8 884.909 526.256 883.565 527.168C882.269 528.032 881.621 529.208 881.621 530.696ZM931.414 543.08C928.678 543.08 926.134 542.6 923.782 541.64C921.478 540.632 919.462 539.24 917.734 537.464C916.054 535.688 914.734 533.6 913.774 531.2C912.814 528.752 912.334 526.112 912.334 523.28C912.334 520.4 912.814 517.736 913.774 515.288C914.782 512.792 916.15 510.632 917.878 508.808C919.654 506.936 921.718 505.496 924.07 504.488C926.422 503.432 928.966 502.904 931.702 502.904C934.438 502.904 936.958 503.432 939.262 504.488C941.566 505.496 943.51 506.936 945.094 508.808C946.726 510.68 947.854 512.864 948.478 515.36L938.902 517.232C938.182 515.6 937.174 514.328 935.878 513.416C934.582 512.456 933.118 511.976 931.486 511.976C929.758 511.976 928.222 512.456 926.878 513.416C925.582 514.376 924.55 515.72 923.782 517.448C923.014 519.128 922.63 521.024 922.63 523.136C922.63 525.248 922.99 527.12 923.71 528.752C924.478 530.384 925.534 531.68 926.878 532.64C928.222 533.552 929.758 534.008 931.486 534.008C933.214 534.008 934.774 533.552 936.166 532.64C937.558 531.728 938.59 530.432 939.262 528.752L948.838 530.624C948.214 533.168 947.038 535.376 945.31 537.248C943.63 539.12 941.59 540.56 939.19 541.568C936.79 542.576 934.198 543.08 931.414 543.08ZM954.907 542V488.288H964.771V519.464L978.883 503.984H990.691L974.851 520.832L992.419 542H979.675L964.771 523.064V542H954.907ZM1012.7 543.08C1009.87 543.08 1007.26 542.6 1004.86 541.64C1002.5 540.632 1000.46 539.24 998.736 537.464C997.008 535.64 995.664 533.504 994.704 531.056C993.744 528.56 993.264 525.848 993.264 522.92C993.264 520.088 993.744 517.448 994.704 515C995.664 512.552 996.984 510.44 998.664 508.664C1000.39 506.84 1002.41 505.424 1004.71 504.416C1007.02 503.408 1009.51 502.904 1012.2 502.904C1014.98 502.904 1017.5 503.384 1019.76 504.344C1022.06 505.304 1024.03 506.672 1025.66 508.448C1027.3 510.224 1028.54 512.336 1029.41 514.784C1030.32 517.232 1030.78 519.968 1030.78 522.992V525.512H1003.49C1003.92 528.344 1004.95 530.576 1006.58 532.208C1008.22 533.792 1010.28 534.584 1012.78 534.584C1014.5 534.584 1016.06 534.176 1017.46 533.36C1018.9 532.544 1020.07 531.368 1020.98 529.832L1029.98 532.712C1029.12 534.872 1027.82 536.72 1026.1 538.256C1024.37 539.792 1022.35 540.992 1020.05 541.856C1017.74 542.672 1015.3 543.08 1012.7 543.08ZM1012.2 510.68C1009.99 510.68 1008.12 511.4 1006.58 512.84C1005.1 514.28 1004.11 516.248 1003.63 518.744H1020.41C1020.02 516.248 1019.09 514.28 1017.6 512.84C1016.16 511.4 1014.36 510.68 1012.2 510.68ZM1037.03 542V503.984H1046.32L1046.68 509.744C1047.64 507.728 1048.94 506.192 1050.57 505.136C1052.2 504.032 1054.12 503.48 1056.33 503.48C1057 503.48 1057.67 503.552 1058.34 503.696C1059.02 503.792 1059.62 503.936 1060.14 504.128L1059.06 514.064C1058.54 513.872 1057.98 513.752 1057.41 513.704C1056.88 513.608 1056.33 513.56 1055.75 513.56C1052.97 513.56 1050.83 514.424 1049.34 516.152C1047.86 517.832 1047.11 520.232 1047.11 523.352V542H1037.03ZM1079.33 543.08C1076.64 543.08 1074.19 542.648 1071.99 541.784C1069.83 540.92 1067.98 539.696 1066.44 538.112C1064.95 536.528 1063.92 534.656 1063.35 532.496L1072.42 530.552C1072.9 532.04 1073.76 533.216 1075.01 534.08C1076.26 534.944 1077.75 535.376 1079.47 535.376C1081.11 535.376 1082.45 535.016 1083.51 534.296C1084.56 533.576 1085.09 532.592 1085.09 531.344C1085.09 530.288 1084.61 529.424 1083.65 528.752C1082.74 528.032 1081.2 527.48 1079.04 527.096L1077.03 526.736C1072.9 526.016 1069.75 524.672 1067.59 522.704C1065.48 520.736 1064.43 518.24 1064.43 515.216C1064.43 512.816 1065.05 510.704 1066.3 508.88C1067.55 507.008 1069.27 505.544 1071.48 504.488C1073.69 503.432 1076.23 502.904 1079.11 502.904C1081.66 502.904 1083.96 503.336 1086.03 504.2C1088.14 505.016 1089.89 506.192 1091.28 507.728C1092.67 509.264 1093.63 511.112 1094.16 513.272L1085.16 515.144C1084.68 513.704 1083.89 512.576 1082.79 511.76C1081.73 510.944 1080.48 510.536 1079.04 510.536C1077.55 510.536 1076.33 510.896 1075.37 511.616C1074.41 512.336 1073.93 513.248 1073.93 514.352C1073.93 515.312 1074.39 516.128 1075.3 516.8C1076.26 517.424 1077.87 517.928 1080.12 518.312L1082.14 518.672C1086.22 519.392 1089.34 520.76 1091.5 522.776C1093.66 524.744 1094.74 527.264 1094.74 530.336C1094.74 532.208 1094.35 533.912 1093.59 535.448C1092.87 536.984 1091.81 538.328 1090.42 539.48C1089.03 540.632 1087.39 541.52 1085.52 542.144C1083.65 542.768 1081.59 543.08 1079.33 543.08Z" fill="#1A202C"/>
<path d="M993.621 305.024L964.342 288.139C959.398 285.287 953.254 285.287 948.31 288.139L919.031 305.024C914.077 307.881 911 313.208 911 318.928V352.672C911 358.392 914.077 363.719 919.031 366.576L948.31 383.461C953.255 386.313 959.398 386.312 964.342 383.461L993.62 366.576C998.574 363.719 1001.65 358.392 1001.65 352.672V318.928C1001.65 313.209 998.574 307.881 993.621 305.024ZM993.87 352.672C993.87 355.618 992.285 358.363 989.733 359.834L960.455 376.719C957.908 378.189 954.744 378.189 952.197 376.719L922.918 359.834C920.366 358.362 918.781 355.618 918.781 352.672V318.928C918.781 315.982 920.366 313.238 922.918 311.766L952.197 294.881C954.744 293.411 957.909 293.412 960.455 294.881L989.734 311.766C992.285 313.238 993.87 315.982 993.87 318.928V352.672Z" fill="#196AFF"/>
<path d="M952.628 332.831L938.178 320.602C936.538 319.214 934.083 319.419 932.695 321.059C931.307 322.7 931.512 325.155 933.152 326.543L944.092 335.802L933.152 345.06C931.512 346.448 931.307 348.904 932.695 350.544C934.086 352.188 936.542 352.386 938.178 351.001L952.628 338.772C954.467 337.217 954.461 334.383 952.628 332.831Z" fill="#196AFF"/>
<path d="M976.986 344.137H959.479C957.331 344.137 955.589 345.879 955.589 348.028C955.589 350.177 957.331 351.919 959.479 351.919H976.986C979.135 351.919 980.877 350.177 980.877 348.028C980.877 345.879 979.135 344.137 976.986 344.137Z" fill="#196AFF"/>
<g filter="url(#filter2_d)">
<rect x="1314" y="168" width="517" height="465" rx="20" fill="white"/>
</g>
<rect x="1475" y="238" width="196" height="196" rx="98" fill="#EBF0F5"/>
<path d="M1434.78 542V490.88H1445.51V510.824H1468.11V490.88H1478.84V542H1468.11V520.328H1445.51V542H1434.78ZM1504.7 543.08C1501.25 543.08 1498.22 542.36 1495.63 540.92C1493.09 539.432 1491.1 537.344 1489.66 534.656C1488.26 531.92 1487.57 528.704 1487.57 525.008V503.984H1497.65V525.224C1497.65 527.96 1498.3 530.12 1499.59 531.704C1500.89 533.24 1502.64 534.008 1504.85 534.008C1507.06 534.008 1508.81 533.24 1510.1 531.704C1511.4 530.12 1512.05 527.96 1512.05 525.224V503.984H1522.13V525.008C1522.13 527.744 1521.72 530.216 1520.9 532.424C1520.09 534.632 1518.91 536.528 1517.38 538.112C1515.84 539.696 1513.99 540.92 1511.83 541.784C1509.72 542.648 1507.34 543.08 1504.7 543.08ZM1543.86 543.08C1541.17 543.08 1538.72 542.648 1536.51 541.784C1534.35 540.92 1532.5 539.696 1530.97 538.112C1529.48 536.528 1528.45 534.656 1527.87 532.496L1536.94 530.552C1537.42 532.04 1538.29 533.216 1539.54 534.08C1540.78 534.944 1542.27 535.376 1544 535.376C1545.63 535.376 1546.98 535.016 1548.03 534.296C1549.09 533.576 1549.62 532.592 1549.62 531.344C1549.62 530.288 1549.14 529.424 1548.18 528.752C1547.26 528.032 1545.73 527.48 1543.57 527.096L1541.55 526.736C1537.42 526.016 1534.28 524.672 1532.12 522.704C1530.01 520.736 1528.95 518.24 1528.95 515.216C1528.95 512.816 1529.58 510.704 1530.82 508.88C1532.07 507.008 1533.8 505.544 1536.01 504.488C1538.22 503.432 1540.76 502.904 1543.64 502.904C1546.18 502.904 1548.49 503.336 1550.55 504.2C1552.66 505.016 1554.42 506.192 1555.81 507.728C1557.2 509.264 1558.16 511.112 1558.69 513.272L1549.69 515.144C1549.21 513.704 1548.42 512.576 1547.31 511.76C1546.26 510.944 1545.01 510.536 1543.57 510.536C1542.08 510.536 1540.86 510.896 1539.9 511.616C1538.94 512.336 1538.46 513.248 1538.46 514.352C1538.46 515.312 1538.91 516.128 1539.82 516.8C1540.78 517.424 1542.39 517.928 1544.65 518.312L1546.66 518.672C1550.74 519.392 1553.86 520.76 1556.02 522.776C1558.18 524.744 1559.26 527.264 1559.26 530.336C1559.26 532.208 1558.88 533.912 1558.11 535.448C1557.39 536.984 1556.34 538.328 1554.94 539.48C1553.55 540.632 1551.92 541.52 1550.05 542.144C1548.18 542.768 1546.11 543.08 1543.86 543.08ZM1581.4 543.08C1578.76 543.08 1576.48 542.576 1574.56 541.568C1572.69 540.512 1571.22 539 1570.17 537.032C1569.16 535.064 1568.65 532.664 1568.65 529.832V512.12H1562.17V503.984H1568.65V491.024H1578.73V503.984H1589.1V512.12H1578.73V528.608C1578.73 530.432 1579.12 531.848 1579.89 532.856C1580.65 533.816 1581.83 534.296 1583.41 534.296C1584.23 534.296 1585.09 534.176 1586.01 533.936C1586.97 533.696 1587.88 533.384 1588.74 533L1590.54 540.56C1589.29 541.328 1587.9 541.928 1586.37 542.36C1584.83 542.84 1583.17 543.08 1581.4 543.08ZM1596.48 542V488.288H1606.56V542H1596.48ZM1632.62 543.08C1629.79 543.08 1627.17 542.6 1624.77 541.64C1622.42 540.632 1620.38 539.24 1618.65 537.464C1616.93 535.64 1615.58 533.504 1614.62 531.056C1613.66 528.56 1613.18 525.848 1613.18 522.92C1613.18 520.088 1613.66 517.448 1614.62 515C1615.58 512.552 1616.9 510.44 1618.58 508.664C1620.31 506.84 1622.33 505.424 1624.63 504.416C1626.93 503.408 1629.43 502.904 1632.12 502.904C1634.9 502.904 1637.42 503.384 1639.68 504.344C1641.98 505.304 1643.95 506.672 1645.58 508.448C1647.21 510.224 1648.46 512.336 1649.33 514.784C1650.24 517.232 1650.69 519.968 1650.69 522.992V525.512H1623.41C1623.84 528.344 1624.87 530.576 1626.5 532.208C1628.13 533.792 1630.2 534.584 1632.69 534.584C1634.42 534.584 1635.98 534.176 1637.37 533.36C1638.81 532.544 1639.99 531.368 1640.9 529.832L1649.9 532.712C1649.04 534.872 1647.74 536.72 1646.01 538.256C1644.29 539.792 1642.27 540.992 1639.97 541.856C1637.66 542.672 1635.21 543.08 1632.62 543.08ZM1632.12 510.68C1629.91 510.68 1628.04 511.4 1626.5 512.84C1625.01 514.28 1624.03 516.248 1623.55 518.744H1640.33C1639.94 516.248 1639.01 514.28 1637.52 512.84C1636.08 511.4 1634.28 510.68 1632.12 510.68ZM1656.95 542V503.984H1666.24L1666.6 509.744C1667.56 507.728 1668.85 506.192 1670.49 505.136C1672.12 504.032 1674.04 503.48 1676.25 503.48C1676.92 503.48 1677.59 503.552 1678.26 503.696C1678.93 503.792 1679.53 503.936 1680.06 504.128L1678.98 514.064C1678.45 513.872 1677.9 513.752 1677.33 513.704C1676.8 513.608 1676.25 513.56 1675.67 513.56C1672.89 513.56 1670.75 514.424 1669.26 516.152C1667.77 517.832 1667.03 520.232 1667.03 523.352V542H1656.95ZM1699.25 543.08C1696.56 543.08 1694.11 542.648 1691.9 541.784C1689.74 540.92 1687.9 539.696 1686.36 538.112C1684.87 536.528 1683.84 534.656 1683.26 532.496L1692.34 530.552C1692.82 532.04 1693.68 533.216 1694.93 534.08C1696.18 534.944 1697.66 535.376 1699.39 535.376C1701.02 535.376 1702.37 535.016 1703.42 534.296C1704.48 533.576 1705.01 532.592 1705.01 531.344C1705.01 530.288 1704.53 529.424 1703.57 528.752C1702.66 528.032 1701.12 527.48 1698.96 527.096L1696.94 526.736C1692.82 526.016 1689.67 524.672 1687.51 522.704C1685.4 520.736 1684.34 518.24 1684.34 515.216C1684.34 512.816 1684.97 510.704 1686.22 508.88C1687.46 507.008 1689.19 505.544 1691.4 504.488C1693.61 503.432 1696.15 502.904 1699.03 502.904C1701.58 502.904 1703.88 503.336 1705.94 504.2C1708.06 505.016 1709.81 506.192 1711.2 507.728C1712.59 509.264 1713.55 511.112 1714.08 513.272L1705.08 515.144C1704.6 513.704 1703.81 512.576 1702.7 511.76C1701.65 510.944 1700.4 510.536 1698.96 510.536C1697.47 510.536 1696.25 510.896 1695.29 511.616C1694.33 512.336 1693.85 513.248 1693.85 514.352C1693.85 515.312 1694.3 516.128 1695.22 516.8C1696.18 517.424 1697.78 517.928 1700.04 518.312L1702.06 518.672C1706.14 519.392 1709.26 520.76 1711.42 522.776C1713.58 524.744 1714.66 527.264 1714.66 530.336C1714.66 532.208 1714.27 533.912 1713.5 535.448C1712.78 536.984 1711.73 538.328 1710.34 539.48C1708.94 540.632 1707.31 541.52 1705.44 542.144C1703.57 542.768 1701.5 543.08 1699.25 543.08Z" fill="#1A202C"/>
<path d="M1615.17 339.724L1598.3 326.229V304.882C1598.3 296.024 1594.05 287.888 1586.01 281.352C1580.15 276.59 1574.32 274.333 1574.07 274.24C1573.23 273.92 1572.31 273.92 1571.47 274.24C1571.22 274.333 1565.38 276.59 1559.53 281.352C1551.49 287.888 1547.24 296.024 1547.24 304.882V326.229L1530.37 339.724C1529.5 340.416 1529 341.464 1529 342.572V358.378C1529 360.392 1530.63 362.025 1532.65 362.025H1553.32V372.968C1553.32 374.982 1554.95 376.615 1556.96 376.615H1588.58C1590.59 376.615 1592.22 374.982 1592.22 372.968V362.025H1612.89C1614.91 362.025 1616.54 360.392 1616.54 358.378V342.572C1616.54 341.464 1616.04 340.416 1615.17 339.724V339.724ZM1554.53 304.882C1554.53 291.244 1568.41 283.668 1572.78 281.624C1577.15 283.658 1591.01 291.182 1591.01 304.882V354.73H1554.53V304.882ZM1536.29 344.325L1547.24 335.571V354.73H1536.29V344.325ZM1584.93 369.32H1560.61V362.025H1584.93V369.32ZM1609.24 354.73H1598.3V335.571L1609.24 344.325V354.73Z" fill="#196AFF"/>
<path d="M1572.77 331.631C1578.8 331.631 1583.71 326.722 1583.71 320.688C1583.71 314.655 1578.8 309.746 1572.77 309.746C1566.74 309.746 1561.83 314.655 1561.83 320.688C1561.83 326.722 1566.74 331.631 1572.77 331.631ZM1572.77 317.041C1574.78 317.041 1576.42 318.677 1576.42 320.688C1576.42 322.7 1574.78 324.336 1572.77 324.336C1570.76 324.336 1569.12 322.7 1569.12 320.688C1569.12 318.677 1570.76 317.041 1572.77 317.041Z" fill="#196AFF"/>
<path d="M1572.77 383.91C1570.76 383.91 1569.12 385.543 1569.12 387.558V394.853C1569.12 396.867 1570.76 398.5 1572.77 398.5C1574.78 398.5 1576.42 396.867 1576.42 394.853V387.558C1576.42 385.543 1574.78 383.91 1572.77 383.91Z" fill="#196AFF"/>
<path d="M1587.36 383.91C1585.35 383.91 1583.71 385.543 1583.71 387.558V394.853C1583.71 396.867 1585.35 398.5 1587.36 398.5C1589.37 398.5 1591.01 396.867 1591.01 394.853V387.558C1591.01 385.543 1589.37 383.91 1587.36 383.91Z" fill="#196AFF"/>
<path d="M1558.18 383.91C1556.17 383.91 1554.53 385.543 1554.53 387.558V394.853C1554.53 396.867 1556.17 398.5 1558.18 398.5C1560.19 398.5 1561.83 396.867 1561.83 394.853V387.558C1561.83 385.543 1560.19 383.91 1558.18 383.91Z" fill="#196AFF"/>
<defs>
<filter id="filter0_d" x="0" y="104" width="677" height="625" filterUnits="userSpaceOnUse" color-interpolation-filters="sRGB">
<feFlood flood-opacity="0" result="BackgroundImageFix"/>
<feColorMatrix in="SourceAlpha" type="matrix" values="0 0 0 0 0 0 0 0 0 0 0 0 0 0 0 0 0 0 127 0"/>
<feOffset dy="16"/>
<feGaussianBlur stdDeviation="40"/>
<feColorMatrix type="matrix" values="0 0 0 0 0.101961 0 0 0 0 0.12549 0 0 0 0 0.172549 0 0 0 0.15 0"/>
<feBlend mode="normal" in2="BackgroundImageFix" result="effect1_dropShadow"/>
<feBlend mode="normal" in="SourceGraphic" in2="effect1_dropShadow" result="shape"/>
</filter>
<filter id="filter1_d" x="617" y="104" width="677" height="625" filterUnits="userSpaceOnUse" color-interpolation-filters="sRGB">
<feFlood flood-opacity="0" result="BackgroundImageFix"/>
<feColorMatrix in="SourceAlpha" type="matrix" values="0 0 0 0 0 0 0 0 0 0 0 0 0 0 0 0 0 0 127 0"/>
<feOffset dy="16"/>
<feGaussianBlur stdDeviation="40"/>
<feColorMatrix type="matrix" values="0 0 0 0 0.101961 0 0 0 0 0.12549 0 0 0 0 0.172549 0 0 0 0.15 0"/>
<feBlend mode="normal" in2="BackgroundImageFix" result="effect1_dropShadow"/>
<feBlend mode="normal" in="SourceGraphic" in2="effect1_dropShadow" result="shape"/>
</filter>
<filter id="filter2_d" x="1234" y="104" width="677" height="625" filterUnits="userSpaceOnUse" color-interpolation-filters="sRGB">
<feFlood flood-opacity="0" result="BackgroundImageFix"/>
<feColorMatrix in="SourceAlpha" type="matrix" values="0 0 0 0 0 0 0 0 0 0 0 0 0 0 0 0 0 0 127 0"/>
<feOffset dy="16"/>
<feGaussianBlur stdDeviation="40"/>
<feColorMatrix type="matrix" values="0 0 0 0 0.101961 0 0 0 0 0.12549 0 0 0 0 0.172549 0 0 0 0.15 0"/>
<feBlend mode="normal" in2="BackgroundImageFix" result="effect1_dropShadow"/>
<feBlend mode="normal" in="SourceGraphic" in2="effect1_dropShadow" result="shape"/>
</filter>
</defs>
</svg>
