<svg width="1100" height="941" viewBox="0 0 1100 941" fill="none" xmlns="http://www.w3.org/2000/svg">
<g filter="url(#filter0_d)">
<path d="M80 84C80 72.9543 88.9543 64 100 64H1000C1011.05 64 1020 72.9543 1020 84V136H80V84Z" fill="#1A202C"/>
<circle cx="129" cy="100" r="13" fill="white"/>
<circle cx="167" cy="100" r="13" fill="white"/>
<circle cx="205" cy="100" r="13" fill="white"/>
<path d="M80 136H1020V825C1020 836.046 1011.05 845 1000 845H100C88.9543 845 80 836.046 80 825V136Z" fill="#196AFF"/>
<rect x="116" y="172" width="868" height="246" rx="10" fill="white"/>
<circle cx="239" cy="295" r="81" fill="#1A202C" stroke="white" stroke-width="12"/>
<circle cx="239" cy="295" r="75" fill="#1A202C"/>
<mask id="mask0" mask-type="alpha" maskUnits="userSpaceOnUse" x="164" y="220" width="151" height="150">
<circle cx="239.5" cy="295" r="75" fill="#1A202C"/>
</mask>
<g mask="url(#mask0)">
<circle cx="239.5" cy="295.004" r="36.25" fill="white"/>
<ellipse cx="223.875" cy="289.466" rx="5.08929" ry="5.17857" fill="#1A202C"/>
<path d="M247.179 298.037C246.464 301.489 243.741 304.287 239.5 304.287C235.259 304.287 232.536 301.489 231.821 298.037" stroke="#1A202C" stroke-width="3.57143" stroke-linecap="round" stroke-linejoin="round"/>
<ellipse cx="255.125" cy="289.466" rx="5.08929" ry="5.17857" fill="#1A202C"/>
<circle cx="239.5" cy="354.818" r="23.5714" fill="#196AFF"/>
</g>
<rect x="719" y="454" width="265" height="355" rx="10" fill="white"/>
<rect x="116" y="454" width="567" height="355" rx="10" fill="white"/>
<rect x="164" y="502" width="395" height="20" rx="10" fill="#D1D9E2"/>
<rect x="164" y="542" width="281" height="20" rx="10" fill="#EBF0F5"/>
<rect x="164" y="602" width="395" height="20" rx="10" fill="#D1D9E2"/>
<rect x="164" y="642" width="281" height="20" rx="10" fill="#EBF0F5"/>
<rect x="164" y="702" width="395" height="20" rx="10" fill="#D1D9E2"/>
<rect x="164" y="742" width="281" height="20" rx="10" fill="#EBF0F5"/>
<rect x="767" y="501" width="169" height="20" rx="10" fill="#D1D9E2"/>
<rect x="767" y="541" width="120" height="20" rx="10" fill="#EBF0F5"/>
<rect x="767" y="601" width="169" height="20" rx="10" fill="#D1D9E2"/>
<rect x="767" y="641" width="120" height="20" rx="10" fill="#EBF0F5"/>
<rect x="767" y="701" width="169" height="20" rx="10" fill="#D1D9E2"/>
<rect x="767" y="741" width="120" height="20" rx="10" fill="#EBF0F5"/>
<path d="M354.628 265.528C353.844 265.528 353.13 265.304 352.486 264.856C351.842 264.38 351.324 263.75 350.932 262.966C350.568 262.154 350.386 261.258 350.386 260.278C350.386 259.074 350.638 257.968 351.142 256.96C351.674 255.924 352.416 255.042 353.368 254.314C354.32 253.586 355.426 253.054 356.686 252.718L357.694 255.742C356.938 255.938 356.28 256.246 355.72 256.666C355.16 257.058 354.726 257.52 354.418 258.052C354.11 258.556 353.956 259.088 353.956 259.648C353.956 259.816 353.97 259.97 353.998 260.11C354.306 259.914 354.656 259.816 355.048 259.816C355.552 259.816 356.014 259.942 356.434 260.194C356.854 260.446 357.176 260.782 357.4 261.202C357.652 261.622 357.778 262.098 357.778 262.63C357.778 263.162 357.638 263.652 357.358 264.1C357.078 264.52 356.686 264.87 356.182 265.15C355.706 265.402 355.188 265.528 354.628 265.528ZM363.742 265.528C362.958 265.528 362.244 265.304 361.6 264.856C360.956 264.38 360.438 263.75 360.046 262.966C359.682 262.154 359.5 261.258 359.5 260.278C359.5 259.074 359.752 257.968 360.256 256.96C360.788 255.924 361.53 255.042 362.482 254.314C363.434 253.586 364.54 253.054 365.8 252.718L366.808 255.742C366.052 255.938 365.394 256.246 364.834 256.666C364.274 257.058 363.84 257.52 363.532 258.052C363.224 258.556 363.07 259.088 363.07 259.648C363.07 259.816 363.084 259.97 363.112 260.11C363.42 259.914 363.77 259.816 364.162 259.816C364.666 259.816 365.128 259.942 365.548 260.194C365.968 260.446 366.29 260.782 366.514 261.202C366.766 261.622 366.892 262.098 366.892 262.63C366.892 263.162 366.752 263.652 366.472 264.1C366.192 264.52 365.8 264.87 365.296 265.15C364.82 265.402 364.302 265.528 363.742 265.528ZM371.294 283V253.18H377.552V283H371.294ZM385.125 253.012C385.909 253.012 386.623 253.25 387.267 253.726C387.911 254.174 388.415 254.804 388.779 255.616C389.171 256.4 389.367 257.282 389.367 258.262C389.367 259.466 389.101 260.586 388.569 261.622C388.065 262.63 387.337 263.498 386.385 264.226C385.461 264.954 384.355 265.486 383.067 265.822L382.059 262.798C382.787 262.602 383.431 262.308 383.991 261.916C384.579 261.496 385.027 261.034 385.335 260.53C385.643 259.998 385.797 259.452 385.797 258.892C385.797 258.724 385.783 258.57 385.755 258.43C385.447 258.626 385.097 258.724 384.705 258.724C384.201 258.724 383.739 258.598 383.319 258.346C382.899 258.094 382.563 257.758 382.311 257.338C382.087 256.918 381.975 256.442 381.975 255.91C381.975 255.378 382.115 254.902 382.395 254.482C382.675 254.034 383.053 253.684 383.529 253.432C384.005 253.152 384.537 253.012 385.125 253.012ZM393.106 283V260.824H398.524L398.692 263.638C399.336 262.574 400.204 261.734 401.296 261.118C402.388 260.502 403.62 260.194 404.992 260.194C406.476 260.194 407.792 260.558 408.94 261.286C410.116 262.014 411.026 263.022 411.67 264.31C412.342 263.078 413.308 262.084 414.568 261.328C415.856 260.572 417.326 260.194 418.978 260.194C420.63 260.194 422.058 260.586 423.262 261.37C424.466 262.126 425.39 263.218 426.034 264.646C426.706 266.074 427.042 267.754 427.042 269.686V283H421.162V270.442C421.162 268.902 420.826 267.698 420.154 266.83C419.482 265.934 418.544 265.486 417.34 265.486C416.5 265.486 415.744 265.696 415.072 266.116C414.428 266.508 413.924 267.068 413.56 267.796C413.196 268.524 413.014 269.35 413.014 270.274V283H407.134V270.442C407.134 268.902 406.798 267.698 406.126 266.83C405.454 265.934 404.516 265.486 403.312 265.486C402.472 265.486 401.716 265.696 401.044 266.116C400.4 266.508 399.896 267.068 399.532 267.796C399.168 268.524 398.986 269.35 398.986 270.274V283H393.106ZM440.52 283V251.668H446.4V263.638C447.184 262.574 448.164 261.734 449.34 261.118C450.544 260.502 451.86 260.194 453.288 260.194C454.744 260.194 456.088 260.488 457.32 261.076C458.552 261.664 459.63 262.49 460.554 263.554C461.478 264.59 462.192 265.808 462.696 267.208C463.228 268.608 463.494 270.134 463.494 271.786C463.494 273.466 463.228 275.02 462.696 276.448C462.164 277.876 461.422 279.136 460.47 280.228C459.518 281.292 458.398 282.132 457.11 282.748C455.822 283.336 454.436 283.63 452.952 283.63C451.496 283.63 450.18 283.322 449.004 282.706C447.828 282.09 446.862 281.222 446.106 280.102L445.938 283H440.52ZM451.902 278.338C452.966 278.338 453.918 278.058 454.758 277.498C455.598 276.938 456.256 276.182 456.732 275.23C457.236 274.25 457.488 273.144 457.488 271.912C457.488 270.68 457.236 269.588 456.732 268.636C456.256 267.656 455.598 266.886 454.758 266.326C453.918 265.766 452.966 265.486 451.902 265.486C450.838 265.486 449.886 265.766 449.046 266.326C448.206 266.886 447.534 267.656 447.03 268.636C446.554 269.588 446.316 270.68 446.316 271.912C446.316 273.144 446.554 274.25 447.03 275.23C447.534 276.182 448.206 276.938 449.046 277.498C449.886 278.058 450.838 278.338 451.902 278.338ZM477.34 283.63C475.324 283.63 473.56 283.21 472.048 282.37C470.564 281.502 469.402 280.284 468.562 278.716C467.75 277.12 467.344 275.244 467.344 273.088V260.824H473.224V273.214C473.224 274.81 473.602 276.07 474.358 276.994C475.114 277.89 476.136 278.338 477.424 278.338C478.712 278.338 479.734 277.89 480.49 276.994C481.246 276.07 481.624 274.81 481.624 273.214V260.824H487.504V273.088C487.504 274.684 487.266 276.126 486.79 277.414C486.314 278.702 485.628 279.808 484.732 280.732C483.836 281.656 482.758 282.37 481.498 282.874C480.266 283.378 478.88 283.63 477.34 283.63ZM498.5 254.818C498.5 255.462 498.346 256.036 498.038 256.54C497.758 257.044 497.352 257.45 496.82 257.758C496.316 258.038 495.756 258.178 495.14 258.178C494.524 258.178 493.95 258.038 493.418 257.758C492.914 257.45 492.508 257.044 492.2 256.54C491.92 256.036 491.78 255.462 491.78 254.818C491.78 254.174 491.92 253.6 492.2 253.096C492.508 252.592 492.914 252.2 493.418 251.92C493.95 251.612 494.524 251.458 495.14 251.458C495.756 251.458 496.316 251.612 496.82 251.92C497.352 252.2 497.758 252.592 498.038 253.096C498.346 253.6 498.5 254.174 498.5 254.818ZM492.2 283V260.824H498.08V283H492.2ZM502.782 283V251.668H508.662V283H502.782ZM522.688 283.63C521.26 283.63 519.93 283.336 518.698 282.748C517.466 282.16 516.388 281.348 515.464 280.312C514.54 279.248 513.812 278.016 513.28 276.616C512.776 275.216 512.524 273.69 512.524 272.038C512.524 270.358 512.79 268.804 513.322 267.376C513.854 265.948 514.596 264.702 515.548 263.638C516.5 262.546 517.606 261.706 518.866 261.118C520.154 260.502 521.54 260.194 523.024 260.194C524.396 260.194 525.642 260.474 526.762 261.034C527.91 261.566 528.862 262.322 529.618 263.302V251.668H535.498V283H530.08L529.912 279.766C529.128 280.97 528.106 281.922 526.846 282.622C525.614 283.294 524.228 283.63 522.688 283.63ZM524.116 278.338C525.18 278.338 526.132 278.058 526.972 277.498C527.812 276.938 528.47 276.182 528.946 275.23C529.45 274.25 529.702 273.144 529.702 271.912C529.702 270.68 529.45 269.588 528.946 268.636C528.47 267.656 527.812 266.886 526.972 266.326C526.132 265.766 525.18 265.486 524.116 265.486C523.052 265.486 522.1 265.766 521.26 266.326C520.42 266.886 519.748 267.656 519.244 268.636C518.768 269.588 518.53 270.68 518.53 271.912C518.53 273.144 518.768 274.25 519.244 275.23C519.748 276.182 520.42 276.938 521.26 277.498C522.1 278.058 523.052 278.338 524.116 278.338ZM546.488 254.818C546.488 255.462 546.334 256.036 546.026 256.54C545.746 257.044 545.34 257.45 544.808 257.758C544.304 258.038 543.744 258.178 543.128 258.178C542.512 258.178 541.938 258.038 541.406 257.758C540.902 257.45 540.496 257.044 540.188 256.54C539.908 256.036 539.768 255.462 539.768 254.818C539.768 254.174 539.908 253.6 540.188 253.096C540.496 252.592 540.902 252.2 541.406 251.92C541.938 251.612 542.512 251.458 543.128 251.458C543.744 251.458 544.304 251.612 544.808 251.92C545.34 252.2 545.746 252.592 546.026 253.096C546.334 253.6 546.488 254.174 546.488 254.818ZM540.188 283V260.824H546.068V283H540.188ZM550.77 283V260.824H556.188L556.356 263.68C557 262.616 557.882 261.776 559.002 261.16C560.15 260.516 561.452 260.194 562.908 260.194C564.532 260.194 565.946 260.586 567.15 261.37C568.382 262.126 569.334 263.218 570.006 264.646C570.678 266.074 571.014 267.754 571.014 269.686V283H565.134V270.442C565.134 268.902 564.784 267.698 564.084 266.83C563.384 265.934 562.418 265.486 561.186 265.486C560.29 265.486 559.506 265.696 558.834 266.116C558.162 266.508 557.63 267.068 557.238 267.796C556.846 268.524 556.65 269.35 556.65 270.274V283H550.77ZM584.821 282.37C583.421 282.37 582.105 282.09 580.873 281.53C579.669 280.97 578.619 280.2 577.723 279.22C576.827 278.212 576.127 277.05 575.623 275.734C575.119 274.39 574.867 272.948 574.867 271.408C574.867 269.812 575.119 268.342 575.623 266.998C576.155 265.626 576.883 264.436 577.807 263.428C578.759 262.42 579.851 261.636 581.083 261.076C582.343 260.488 583.701 260.194 585.157 260.194C586.585 260.194 587.873 260.488 589.021 261.076C590.169 261.636 591.121 262.462 591.877 263.554L592.003 260.824H597.421V280.354C597.421 282.062 597.141 283.616 596.581 285.016C596.049 286.416 595.279 287.62 594.271 288.628C593.263 289.636 592.059 290.406 590.659 290.938C589.287 291.498 587.761 291.778 586.081 291.778C584.429 291.778 582.945 291.512 581.629 290.98C580.313 290.476 579.165 289.762 578.185 288.838C577.205 287.914 576.435 286.836 575.875 285.604L581.503 284.218C582.007 285.03 582.651 285.66 583.435 286.108C584.247 286.584 585.157 286.822 586.165 286.822C587.257 286.822 588.195 286.57 588.979 286.066C589.791 285.59 590.421 284.904 590.869 284.008C591.317 283.14 591.541 282.118 591.541 280.942V279.136C590.785 280.144 589.819 280.942 588.643 281.53C587.495 282.09 586.221 282.37 584.821 282.37ZM586.249 277.162C587.285 277.162 588.195 276.91 588.979 276.406C589.791 275.874 590.435 275.174 590.911 274.306C591.387 273.41 591.625 272.402 591.625 271.282C591.625 270.162 591.387 269.168 590.911 268.3C590.435 267.404 589.791 266.704 588.979 266.2C588.195 265.668 587.285 265.402 586.249 265.402C585.213 265.402 584.289 265.668 583.477 266.2C582.693 266.704 582.063 267.404 581.587 268.3C581.111 269.168 580.873 270.162 580.873 271.282C580.873 272.402 581.111 273.41 581.587 274.306C582.063 275.174 582.693 275.874 583.477 276.406C584.289 276.91 585.213 277.162 586.249 277.162ZM620.517 283.63C618.977 283.63 617.647 283.336 616.527 282.748C615.435 282.132 614.581 281.25 613.965 280.102C613.377 278.954 613.083 277.554 613.083 275.902V265.57H609.303V260.824H613.083V253.264H618.963V260.824H625.011V265.57H618.963V275.188C618.963 276.252 619.187 277.078 619.635 277.666C620.083 278.226 620.769 278.506 621.693 278.506C622.169 278.506 622.673 278.436 623.205 278.296C623.765 278.156 624.297 277.974 624.801 277.75L625.851 282.16C625.123 282.608 624.311 282.958 623.415 283.21C622.519 283.49 621.553 283.63 620.517 283.63ZM629.315 283V251.668H635.195V263.26C635.867 262.308 636.735 261.566 637.799 261.034C638.863 260.474 640.081 260.194 641.453 260.194C643.077 260.194 644.491 260.586 645.695 261.37C646.927 262.126 647.879 263.218 648.551 264.646C649.223 266.074 649.559 267.754 649.559 269.686V283H643.679V270.442C643.679 268.902 643.329 267.698 642.629 266.83C641.929 265.934 640.963 265.486 639.731 265.486C638.835 265.486 638.051 265.696 637.379 266.116C636.707 266.508 636.175 267.068 635.783 267.796C635.391 268.524 635.195 269.35 635.195 270.274V283H629.315ZM664.752 283.63C663.1 283.63 661.574 283.35 660.174 282.79C658.802 282.202 657.612 281.39 656.604 280.354C655.596 279.29 654.812 278.044 654.252 276.616C653.692 275.16 653.412 273.578 653.412 271.87C653.412 270.218 653.692 268.678 654.252 267.25C654.812 265.822 655.582 264.59 656.562 263.554C657.57 262.49 658.746 261.664 660.09 261.076C661.434 260.488 662.89 260.194 664.458 260.194C666.082 260.194 667.552 260.474 668.868 261.034C670.212 261.594 671.36 262.392 672.312 263.428C673.264 264.464 673.992 265.696 674.496 267.124C675.028 268.552 675.294 270.148 675.294 271.912V273.382H659.376C659.628 275.034 660.23 276.336 661.182 277.288C662.134 278.212 663.338 278.674 664.794 278.674C665.802 278.674 666.712 278.436 667.524 277.96C668.364 277.484 669.05 276.798 669.582 275.902L674.832 277.582C674.328 278.842 673.572 279.92 672.564 280.816C671.556 281.712 670.38 282.412 669.036 282.916C667.692 283.392 666.264 283.63 664.752 283.63ZM664.458 264.73C663.17 264.73 662.078 265.15 661.182 265.99C660.314 266.83 659.74 267.978 659.46 269.434H669.246C669.022 267.978 668.476 266.83 667.608 265.99C666.768 265.15 665.718 264.73 664.458 264.73ZM698.221 283.63C696.569 283.63 695.043 283.35 693.643 282.79C692.271 282.202 691.081 281.39 690.073 280.354C689.065 279.29 688.281 278.044 687.721 276.616C687.161 275.16 686.881 273.578 686.881 271.87C686.881 270.218 687.161 268.678 687.721 267.25C688.281 265.822 689.051 264.59 690.031 263.554C691.039 262.49 692.215 261.664 693.559 261.076C694.903 260.488 696.359 260.194 697.927 260.194C699.551 260.194 701.021 260.474 702.337 261.034C703.681 261.594 704.829 262.392 705.781 263.428C706.733 264.464 707.461 265.696 707.965 267.124C708.497 268.552 708.763 270.148 708.763 271.912V273.382H692.845C693.097 275.034 693.699 276.336 694.651 277.288C695.603 278.212 696.807 278.674 698.263 278.674C699.271 278.674 700.181 278.436 700.993 277.96C701.833 277.484 702.519 276.798 703.051 275.902L708.301 277.582C707.797 278.842 707.041 279.92 706.033 280.816C705.025 281.712 703.849 282.412 702.505 282.916C701.161 283.392 699.733 283.63 698.221 283.63ZM697.927 264.73C696.639 264.73 695.547 265.15 694.651 265.99C693.783 266.83 693.209 267.978 692.929 269.434H702.715C702.491 267.978 701.945 266.83 701.077 265.99C700.237 265.15 699.187 264.73 697.927 264.73ZM721.942 283.63C720.514 283.63 719.184 283.336 717.952 282.748C716.72 282.16 715.642 281.348 714.718 280.312C713.794 279.248 713.066 278.016 712.534 276.616C712.03 275.216 711.778 273.69 711.778 272.038C711.778 270.358 712.044 268.804 712.576 267.376C713.108 265.948 713.85 264.702 714.802 263.638C715.754 262.546 716.86 261.706 718.12 261.118C719.408 260.502 720.794 260.194 722.278 260.194C723.65 260.194 724.896 260.474 726.016 261.034C727.164 261.566 728.116 262.322 728.872 263.302V251.668H734.752V283H729.334L729.166 279.766C728.382 280.97 727.36 281.922 726.1 282.622C724.868 283.294 723.482 283.63 721.942 283.63ZM723.37 278.338C724.434 278.338 725.386 278.058 726.226 277.498C727.066 276.938 727.724 276.182 728.2 275.23C728.704 274.25 728.956 273.144 728.956 271.912C728.956 270.68 728.704 269.588 728.2 268.636C727.724 267.656 727.066 266.886 726.226 266.326C725.386 265.766 724.434 265.486 723.37 265.486C722.306 265.486 721.354 265.766 720.514 266.326C719.674 266.886 719.002 267.656 718.498 268.636C718.022 269.588 717.784 270.68 717.784 271.912C717.784 273.144 718.022 274.25 718.498 275.23C719.002 276.182 719.674 276.938 720.514 277.498C721.354 278.058 722.306 278.338 723.37 278.338ZM749.438 283.63C747.422 283.63 745.658 283.21 744.146 282.37C742.662 281.502 741.5 280.284 740.66 278.716C739.848 277.12 739.442 275.244 739.442 273.088V260.824H745.322V273.214C745.322 274.81 745.7 276.07 746.456 276.994C747.212 277.89 748.234 278.338 749.522 278.338C750.81 278.338 751.832 277.89 752.588 276.994C753.344 276.07 753.722 274.81 753.722 273.214V260.824H759.602V273.088C759.602 274.684 759.364 276.126 758.888 277.414C758.412 278.702 757.726 279.808 756.83 280.732C755.934 281.656 754.856 282.37 753.596 282.874C752.364 283.378 750.978 283.63 749.438 283.63ZM774.587 283.63C772.991 283.63 771.507 283.35 770.135 282.79C768.791 282.202 767.615 281.39 766.607 280.354C765.627 279.318 764.857 278.1 764.297 276.7C763.737 275.272 763.457 273.732 763.457 272.08C763.457 270.4 763.737 268.846 764.297 267.418C764.885 265.962 765.683 264.702 766.691 263.638C767.727 262.546 768.931 261.706 770.303 261.118C771.675 260.502 773.159 260.194 774.755 260.194C776.351 260.194 777.821 260.502 779.165 261.118C780.509 261.706 781.643 262.546 782.567 263.638C783.519 264.73 784.177 266.004 784.541 267.46L778.955 268.552C778.535 267.6 777.947 266.858 777.191 266.326C776.435 265.766 775.581 265.486 774.629 265.486C773.621 265.486 772.725 265.766 771.941 266.326C771.185 266.886 770.583 267.67 770.135 268.678C769.687 269.658 769.463 270.764 769.463 271.996C769.463 273.228 769.673 274.32 770.093 275.272C770.541 276.224 771.157 276.98 771.941 277.54C772.725 278.072 773.621 278.338 774.629 278.338C775.637 278.338 776.547 278.072 777.359 277.54C778.171 277.008 778.773 276.252 779.165 275.272L784.751 276.364C784.387 277.848 783.701 279.136 782.693 280.228C781.713 281.32 780.523 282.16 779.123 282.748C777.723 283.336 776.211 283.63 774.587 283.63ZM795.137 283.63C793.989 283.63 792.939 283.462 791.987 283.126C791.035 282.79 790.195 282.314 789.467 281.698C788.767 281.054 788.221 280.312 787.829 279.472C787.437 278.632 787.241 277.708 787.241 276.7C787.241 275.3 787.619 274.068 788.375 273.004C789.131 271.94 790.195 271.114 791.567 270.526C792.939 269.91 794.535 269.602 796.355 269.602C797.279 269.602 798.147 269.686 798.959 269.854C799.799 270.022 800.611 270.26 801.395 270.568V269.266C801.395 268.006 801.031 266.984 800.303 266.2C799.603 265.416 798.637 265.024 797.405 265.024C796.481 265.024 795.641 265.262 794.885 265.738C794.129 266.186 793.597 266.83 793.289 267.67L788.039 266.62C788.347 265.332 788.949 264.212 789.845 263.26C790.769 262.28 791.889 261.524 793.205 260.992C794.521 260.46 795.949 260.194 797.489 260.194C798.917 260.194 800.219 260.418 801.395 260.866C802.571 261.314 803.579 261.958 804.419 262.798C805.287 263.638 805.945 264.632 806.393 265.78C806.869 266.9 807.107 268.16 807.107 269.56V283H801.857L801.689 280.396C801.101 281.348 800.247 282.132 799.127 282.748C798.007 283.336 796.677 283.63 795.137 283.63ZM793.037 276.406C793.037 277.19 793.359 277.834 794.003 278.338C794.647 278.842 795.501 279.094 796.565 279.094C797.489 279.094 798.315 278.898 799.043 278.506C799.771 278.114 800.345 277.582 800.765 276.91C801.185 276.21 801.395 275.44 801.395 274.6V274.39C800.779 274.138 800.121 273.942 799.421 273.802C798.721 273.634 798.021 273.55 797.321 273.55C796.005 273.55 794.955 273.816 794.171 274.348C793.415 274.852 793.037 275.538 793.037 276.406ZM820.673 283.63C819.133 283.63 817.803 283.336 816.683 282.748C815.591 282.132 814.737 281.25 814.121 280.102C813.533 278.954 813.239 277.554 813.239 275.902V265.57H809.459V260.824H813.239V253.264H819.119V260.824H825.167V265.57H819.119V275.188C819.119 276.252 819.343 277.078 819.791 277.666C820.239 278.226 820.925 278.506 821.849 278.506C822.325 278.506 822.829 278.436 823.361 278.296C823.921 278.156 824.453 277.974 824.957 277.75L826.007 282.16C825.279 282.608 824.467 282.958 823.571 283.21C822.675 283.49 821.709 283.63 820.673 283.63ZM835.771 254.818C835.771 255.462 835.617 256.036 835.309 256.54C835.029 257.044 834.623 257.45 834.091 257.758C833.587 258.038 833.027 258.178 832.411 258.178C831.795 258.178 831.221 258.038 830.689 257.758C830.185 257.45 829.779 257.044 829.471 256.54C829.191 256.036 829.051 255.462 829.051 254.818C829.051 254.174 829.191 253.6 829.471 253.096C829.779 252.592 830.185 252.2 830.689 251.92C831.221 251.612 831.795 251.458 832.411 251.458C833.027 251.458 833.587 251.612 834.091 251.92C834.623 252.2 835.029 252.592 835.309 253.096C835.617 253.6 835.771 254.174 835.771 254.818ZM829.471 283V260.824H835.351V283H829.471ZM850.721 283.63C849.069 283.63 847.543 283.336 846.143 282.748C844.743 282.16 843.525 281.348 842.489 280.312C841.453 279.248 840.641 278.002 840.053 276.574C839.493 275.146 839.213 273.592 839.213 271.912C839.213 270.232 839.507 268.692 840.095 267.292C840.683 265.864 841.495 264.618 842.531 263.554C843.595 262.49 844.827 261.664 846.227 261.076C847.655 260.488 849.209 260.194 850.889 260.194C852.541 260.194 854.067 260.488 855.467 261.076C856.867 261.664 858.085 262.49 859.121 263.554C860.157 264.59 860.955 265.822 861.515 267.25C862.103 268.65 862.397 270.19 862.397 271.87C862.397 273.55 862.103 275.104 861.515 276.532C860.927 277.96 860.101 279.206 859.037 280.27C858.001 281.334 856.769 282.16 855.341 282.748C853.941 283.336 852.401 283.63 850.721 283.63ZM850.805 278.338C851.869 278.338 852.821 278.058 853.661 277.498C854.501 276.938 855.159 276.182 855.635 275.23C856.139 274.25 856.391 273.144 856.391 271.912C856.391 270.68 856.139 269.588 855.635 268.636C855.159 267.656 854.501 266.886 853.661 266.326C852.821 265.766 851.869 265.486 850.805 265.486C849.741 265.486 848.789 265.766 847.949 266.326C847.109 266.886 846.437 267.656 845.933 268.636C845.457 269.588 845.219 270.68 845.219 271.912C845.219 273.144 845.457 274.25 845.933 275.23C846.437 276.182 847.109 276.938 847.949 277.498C848.789 278.058 849.741 278.338 850.805 278.338ZM866.262 283V260.824H871.68L871.848 263.68C872.492 262.616 873.374 261.776 874.494 261.16C875.642 260.516 876.944 260.194 878.4 260.194C880.024 260.194 881.438 260.586 882.642 261.37C883.874 262.126 884.826 263.218 885.498 264.646C886.17 266.074 886.506 267.754 886.506 269.686V283H880.626V270.442C880.626 268.902 880.276 267.698 879.576 266.83C878.876 265.934 877.91 265.486 876.678 265.486C875.782 265.486 874.998 265.696 874.326 266.116C873.654 266.508 873.122 267.068 872.73 267.796C872.338 268.524 872.142 269.35 872.142 270.274V283H866.262ZM898.046 283.63C896.898 283.63 895.848 283.462 894.896 283.126C893.944 282.79 893.104 282.314 892.376 281.698C891.676 281.054 891.13 280.312 890.738 279.472C890.346 278.632 890.15 277.708 890.15 276.7C890.15 275.3 890.528 274.068 891.284 273.004C892.04 271.94 893.104 271.114 894.476 270.526C895.848 269.91 897.444 269.602 899.264 269.602C900.188 269.602 901.056 269.686 901.868 269.854C902.708 270.022 903.52 270.26 904.304 270.568V269.266C904.304 268.006 903.94 266.984 903.212 266.2C902.512 265.416 901.546 265.024 900.314 265.024C899.39 265.024 898.55 265.262 897.794 265.738C897.038 266.186 896.506 266.83 896.198 267.67L890.948 266.62C891.256 265.332 891.858 264.212 892.754 263.26C893.678 262.28 894.798 261.524 896.114 260.992C897.43 260.46 898.858 260.194 900.398 260.194C901.826 260.194 903.128 260.418 904.304 260.866C905.48 261.314 906.488 261.958 907.328 262.798C908.196 263.638 908.854 264.632 909.302 265.78C909.778 266.9 910.016 268.16 910.016 269.56V283H904.766L904.598 280.396C904.01 281.348 903.156 282.132 902.036 282.748C900.916 283.336 899.586 283.63 898.046 283.63ZM895.946 276.406C895.946 277.19 896.268 277.834 896.912 278.338C897.556 278.842 898.41 279.094 899.474 279.094C900.398 279.094 901.224 278.898 901.952 278.506C902.68 278.114 903.254 277.582 903.674 276.91C904.094 276.21 904.304 275.44 904.304 274.6V274.39C903.688 274.138 903.03 273.942 902.33 273.802C901.63 273.634 900.93 273.55 900.23 273.55C898.914 273.55 897.864 273.816 897.08 274.348C896.324 274.852 895.946 275.538 895.946 276.406ZM914.702 283V251.668H920.582V283H914.702ZM368.907 346.148V315.824H374.325L374.493 319.058C375.249 317.854 376.257 316.916 377.517 316.244C378.777 315.544 380.163 315.194 381.675 315.194C383.131 315.194 384.475 315.488 385.707 316.076C386.939 316.664 388.017 317.49 388.941 318.554C389.865 319.59 390.579 320.808 391.083 322.208C391.615 323.608 391.881 325.134 391.881 326.786C391.881 328.466 391.615 330.02 391.083 331.448C390.551 332.876 389.809 334.136 388.857 335.228C387.905 336.292 386.785 337.132 385.497 337.748C384.209 338.336 382.823 338.63 381.339 338.63C379.967 338.63 378.721 338.364 377.601 337.832C376.481 337.272 375.543 336.502 374.787 335.522V346.148H368.907ZM380.289 333.338C381.353 333.338 382.305 333.058 383.145 332.498C383.985 331.938 384.643 331.182 385.119 330.23C385.623 329.25 385.875 328.144 385.875 326.912C385.875 325.68 385.623 324.588 385.119 323.636C384.643 322.656 383.985 321.886 383.145 321.326C382.305 320.766 381.353 320.486 380.289 320.486C379.225 320.486 378.273 320.766 377.433 321.326C376.593 321.886 375.921 322.656 375.417 323.636C374.941 324.588 374.703 325.68 374.703 326.912C374.703 328.144 374.941 329.25 375.417 330.23C375.921 331.182 376.593 331.938 377.433 332.498C378.273 333.058 379.225 333.338 380.289 333.338ZM395.731 338V306.668H401.611V338H395.731ZM413.159 338.63C412.011 338.63 410.961 338.462 410.009 338.126C409.057 337.79 408.217 337.314 407.489 336.698C406.789 336.054 406.243 335.312 405.851 334.472C405.459 333.632 405.263 332.708 405.263 331.7C405.263 330.3 405.641 329.068 406.397 328.004C407.153 326.94 408.217 326.114 409.589 325.526C410.961 324.91 412.557 324.602 414.377 324.602C415.301 324.602 416.169 324.686 416.981 324.854C417.821 325.022 418.633 325.26 419.417 325.568V324.266C419.417 323.006 419.053 321.984 418.325 321.2C417.625 320.416 416.659 320.024 415.427 320.024C414.503 320.024 413.663 320.262 412.907 320.738C412.151 321.186 411.619 321.83 411.311 322.67L406.061 321.62C406.369 320.332 406.971 319.212 407.867 318.26C408.791 317.28 409.911 316.524 411.227 315.992C412.543 315.46 413.971 315.194 415.511 315.194C416.939 315.194 418.241 315.418 419.417 315.866C420.593 316.314 421.601 316.958 422.441 317.798C423.309 318.638 423.967 319.632 424.415 320.78C424.891 321.9 425.129 323.16 425.129 324.56V338H419.879L419.711 335.396C419.123 336.348 418.269 337.132 417.149 337.748C416.029 338.336 414.699 338.63 413.159 338.63ZM411.059 331.406C411.059 332.19 411.381 332.834 412.025 333.338C412.669 333.842 413.523 334.094 414.587 334.094C415.511 334.094 416.337 333.898 417.065 333.506C417.793 333.114 418.367 332.582 418.787 331.91C419.207 331.21 419.417 330.44 419.417 329.6V329.39C418.801 329.138 418.143 328.942 417.443 328.802C416.743 328.634 416.043 328.55 415.343 328.55C414.027 328.55 412.977 328.816 412.193 329.348C411.437 329.852 411.059 330.538 411.059 331.406ZM438.695 338.63C437.155 338.63 435.825 338.336 434.705 337.748C433.613 337.132 432.759 336.25 432.143 335.102C431.555 333.954 431.261 332.554 431.261 330.902V320.57H427.481V315.824H431.261V308.264H437.141V315.824H443.189V320.57H437.141V330.188C437.141 331.252 437.365 332.078 437.813 332.666C438.261 333.226 438.947 333.506 439.871 333.506C440.347 333.506 440.851 333.436 441.383 333.296C441.943 333.156 442.475 332.974 442.979 332.75L444.029 337.16C443.301 337.608 442.489 337.958 441.593 338.21C440.697 338.49 439.731 338.63 438.695 338.63ZM449.677 338V320.57H445.897V315.824H449.677V314.564C449.677 313.36 449.873 312.254 450.265 311.246C450.685 310.21 451.259 309.328 451.987 308.6C452.743 307.844 453.625 307.27 454.633 306.878C455.669 306.458 456.789 306.248 457.993 306.248C458.917 306.248 459.743 306.36 460.471 306.584C461.227 306.808 461.871 307.06 462.403 307.34L461.227 311.834C460.891 311.666 460.499 311.526 460.051 311.414C459.631 311.274 459.225 311.204 458.833 311.204C457.713 311.204 456.887 311.54 456.355 312.212C455.823 312.856 455.557 313.766 455.557 314.942V315.824H461.437V320.57H455.557V338H449.677ZM474.772 338.63C473.12 338.63 471.594 338.336 470.194 337.748C468.794 337.16 467.576 336.348 466.54 335.312C465.504 334.248 464.692 333.002 464.104 331.574C463.544 330.146 463.264 328.592 463.264 326.912C463.264 325.232 463.558 323.692 464.146 322.292C464.734 320.864 465.546 319.618 466.582 318.554C467.646 317.49 468.878 316.664 470.278 316.076C471.706 315.488 473.26 315.194 474.94 315.194C476.592 315.194 478.118 315.488 479.518 316.076C480.918 316.664 482.136 317.49 483.172 318.554C484.208 319.59 485.006 320.822 485.566 322.25C486.154 323.65 486.448 325.19 486.448 326.87C486.448 328.55 486.154 330.104 485.566 331.532C484.978 332.96 484.152 334.206 483.088 335.27C482.052 336.334 480.82 337.16 479.392 337.748C477.992 338.336 476.452 338.63 474.772 338.63ZM474.856 333.338C475.92 333.338 476.872 333.058 477.712 332.498C478.552 331.938 479.21 331.182 479.686 330.23C480.19 329.25 480.442 328.144 480.442 326.912C480.442 325.68 480.19 324.588 479.686 323.636C479.21 322.656 478.552 321.886 477.712 321.326C476.872 320.766 475.92 320.486 474.856 320.486C473.792 320.486 472.84 320.766 472 321.326C471.16 321.886 470.488 322.656 469.984 323.636C469.508 324.588 469.27 325.68 469.27 326.912C469.27 328.144 469.508 329.25 469.984 330.23C470.488 331.182 471.16 331.938 472 332.498C472.84 333.058 473.792 333.338 474.856 333.338ZM490.313 338V315.824H495.731L495.941 319.184C496.501 318.008 497.257 317.112 498.209 316.496C499.161 315.852 500.281 315.53 501.569 315.53C501.961 315.53 502.353 315.572 502.745 315.656C503.137 315.712 503.487 315.796 503.795 315.908L503.165 321.704C502.857 321.592 502.535 321.522 502.199 321.494C501.891 321.438 501.569 321.41 501.233 321.41C499.609 321.41 498.363 321.914 497.495 322.922C496.627 323.902 496.193 325.302 496.193 327.122V338H490.313ZM507.006 338V315.824H512.424L512.592 318.638C513.236 317.574 514.104 316.734 515.196 316.118C516.288 315.502 517.52 315.194 518.892 315.194C520.376 315.194 521.692 315.558 522.84 316.286C524.016 317.014 524.926 318.022 525.57 319.31C526.242 318.078 527.208 317.084 528.468 316.328C529.756 315.572 531.226 315.194 532.878 315.194C534.53 315.194 535.958 315.586 537.162 316.37C538.366 317.126 539.29 318.218 539.934 319.646C540.606 321.074 540.942 322.754 540.942 324.686V338H535.062V325.442C535.062 323.902 534.726 322.698 534.054 321.83C533.382 320.934 532.444 320.486 531.24 320.486C530.4 320.486 529.644 320.696 528.972 321.116C528.328 321.508 527.824 322.068 527.46 322.796C527.096 323.524 526.914 324.35 526.914 325.274V338H521.034V325.442C521.034 323.902 520.698 322.698 520.026 321.83C519.354 320.934 518.416 320.486 517.212 320.486C516.372 320.486 515.616 320.696 514.944 321.116C514.3 321.508 513.796 322.068 513.432 322.796C513.068 323.524 512.886 324.35 512.886 325.274V338H507.006ZM565.088 338.63C563.436 338.63 561.91 338.336 560.51 337.748C559.11 337.16 557.892 336.348 556.856 335.312C555.82 334.248 555.008 333.002 554.42 331.574C553.86 330.146 553.58 328.592 553.58 326.912C553.58 325.232 553.874 323.692 554.462 322.292C555.05 320.864 555.862 319.618 556.898 318.554C557.962 317.49 559.194 316.664 560.594 316.076C562.022 315.488 563.576 315.194 565.256 315.194C566.908 315.194 568.434 315.488 569.834 316.076C571.234 316.664 572.452 317.49 573.488 318.554C574.524 319.59 575.322 320.822 575.882 322.25C576.47 323.65 576.764 325.19 576.764 326.87C576.764 328.55 576.47 330.104 575.882 331.532C575.294 332.96 574.468 334.206 573.404 335.27C572.368 336.334 571.136 337.16 569.708 337.748C568.308 338.336 566.768 338.63 565.088 338.63ZM565.172 333.338C566.236 333.338 567.188 333.058 568.028 332.498C568.868 331.938 569.526 331.182 570.002 330.23C570.506 329.25 570.758 328.144 570.758 326.912C570.758 325.68 570.506 324.588 570.002 323.636C569.526 322.656 568.868 321.886 568.028 321.326C567.188 320.766 566.236 320.486 565.172 320.486C564.108 320.486 563.156 320.766 562.316 321.326C561.476 321.886 560.804 322.656 560.3 323.636C559.824 324.588 559.586 325.68 559.586 326.912C559.586 328.144 559.824 329.25 560.3 330.23C560.804 331.182 561.476 331.938 562.316 332.498C563.156 333.058 564.108 333.338 565.172 333.338ZM582.157 338V320.57H578.377V315.824H582.157V314.564C582.157 313.36 582.353 312.254 582.745 311.246C583.165 310.21 583.739 309.328 584.467 308.6C585.223 307.844 586.105 307.27 587.113 306.878C588.149 306.458 589.269 306.248 590.473 306.248C591.397 306.248 592.223 306.36 592.951 306.584C593.707 306.808 594.351 307.06 594.883 307.34L593.707 311.834C593.371 311.666 592.979 311.526 592.531 311.414C592.111 311.274 591.705 311.204 591.313 311.204C590.193 311.204 589.367 311.54 588.835 312.212C588.303 312.856 588.037 313.766 588.037 314.942V315.824H593.917V320.57H588.037V338H582.157ZM615.595 338.63C614.055 338.63 612.725 338.336 611.605 337.748C610.513 337.132 609.659 336.25 609.043 335.102C608.455 333.954 608.161 332.554 608.161 330.902V320.57H604.381V315.824H608.161V308.264H614.041V315.824H620.089V320.57H614.041V330.188C614.041 331.252 614.265 332.078 614.713 332.666C615.161 333.226 615.847 333.506 616.771 333.506C617.247 333.506 617.751 333.436 618.283 333.296C618.843 333.156 619.375 332.974 619.879 332.75L620.929 337.16C620.201 337.608 619.389 337.958 618.493 338.21C617.597 338.49 616.631 338.63 615.595 338.63ZM624.393 338V306.668H630.273V318.26C630.945 317.308 631.813 316.566 632.877 316.034C633.941 315.474 635.159 315.194 636.531 315.194C638.155 315.194 639.569 315.586 640.773 316.37C642.005 317.126 642.957 318.218 643.629 319.646C644.301 321.074 644.637 322.754 644.637 324.686V338H638.757V325.442C638.757 323.902 638.407 322.698 637.707 321.83C637.007 320.934 636.041 320.486 634.809 320.486C633.913 320.486 633.129 320.696 632.457 321.116C631.785 321.508 631.253 322.068 630.861 322.796C630.469 323.524 630.273 324.35 630.273 325.274V338H624.393ZM659.831 338.63C658.179 338.63 656.653 338.35 655.253 337.79C653.881 337.202 652.691 336.39 651.683 335.354C650.675 334.29 649.891 333.044 649.331 331.616C648.771 330.16 648.491 328.578 648.491 326.87C648.491 325.218 648.771 323.678 649.331 322.25C649.891 320.822 650.661 319.59 651.641 318.554C652.649 317.49 653.825 316.664 655.169 316.076C656.513 315.488 657.969 315.194 659.537 315.194C661.161 315.194 662.631 315.474 663.947 316.034C665.291 316.594 666.439 317.392 667.391 318.428C668.343 319.464 669.071 320.696 669.575 322.124C670.107 323.552 670.373 325.148 670.373 326.912V328.382H654.455C654.707 330.034 655.309 331.336 656.261 332.288C657.213 333.212 658.417 333.674 659.873 333.674C660.881 333.674 661.791 333.436 662.603 332.96C663.443 332.484 664.129 331.798 664.661 330.902L669.911 332.582C669.407 333.842 668.651 334.92 667.643 335.816C666.635 336.712 665.459 337.412 664.115 337.916C662.771 338.392 661.343 338.63 659.831 338.63ZM659.537 319.73C658.249 319.73 657.157 320.15 656.261 320.99C655.393 321.83 654.819 322.978 654.539 324.434H664.325C664.101 322.978 663.555 321.83 662.687 320.99C661.847 320.15 660.797 319.73 659.537 319.73ZM684.983 338V320.57H681.203V315.824H684.983V314.564C684.983 313.36 685.179 312.254 685.571 311.246C685.991 310.21 686.565 309.328 687.293 308.6C688.049 307.844 688.931 307.27 689.939 306.878C690.975 306.458 692.095 306.248 693.299 306.248C694.223 306.248 695.049 306.36 695.777 306.584C696.533 306.808 697.177 307.06 697.709 307.34L696.533 311.834C696.197 311.666 695.805 311.526 695.357 311.414C694.937 311.274 694.531 311.204 694.139 311.204C693.019 311.204 692.193 311.54 691.661 312.212C691.129 312.856 690.863 313.766 690.863 314.942V315.824H696.743V320.57H690.863V338H684.983ZM710.022 338.63C708.006 338.63 706.242 338.21 704.73 337.37C703.246 336.502 702.084 335.284 701.244 333.716C700.432 332.12 700.026 330.244 700.026 328.088V315.824H705.906V328.214C705.906 329.81 706.284 331.07 707.04 331.994C707.796 332.89 708.818 333.338 710.106 333.338C711.394 333.338 712.416 332.89 713.172 331.994C713.928 331.07 714.306 329.81 714.306 328.214V315.824H720.186V328.088C720.186 329.684 719.948 331.126 719.472 332.414C718.996 333.702 718.31 334.808 717.414 335.732C716.518 336.656 715.44 337.37 714.18 337.874C712.948 338.378 711.562 338.63 710.022 338.63ZM734.499 338.63C732.959 338.63 731.629 338.336 730.509 337.748C729.417 337.132 728.563 336.25 727.947 335.102C727.359 333.954 727.065 332.554 727.065 330.902V320.57H723.285V315.824H727.065V308.264H732.945V315.824H738.993V320.57H732.945V330.188C732.945 331.252 733.169 332.078 733.617 332.666C734.065 333.226 734.751 333.506 735.675 333.506C736.151 333.506 736.655 333.436 737.187 333.296C737.747 333.156 738.279 332.974 738.783 332.75L739.833 337.16C739.105 337.608 738.293 337.958 737.397 338.21C736.501 338.49 735.535 338.63 734.499 338.63ZM753.293 338.63C751.277 338.63 749.513 338.21 748.001 337.37C746.517 336.502 745.355 335.284 744.515 333.716C743.703 332.12 743.297 330.244 743.297 328.088V315.824H749.177V328.214C749.177 329.81 749.555 331.07 750.311 331.994C751.067 332.89 752.089 333.338 753.377 333.338C754.665 333.338 755.687 332.89 756.443 331.994C757.199 331.07 757.577 329.81 757.577 328.214V315.824H763.457V328.088C763.457 329.684 763.219 331.126 762.743 332.414C762.267 333.702 761.581 334.808 760.685 335.732C759.789 336.656 758.711 337.37 757.451 337.874C756.219 338.378 754.833 338.63 753.293 338.63ZM768.153 338V315.824H773.571L773.781 319.184C774.341 318.008 775.097 317.112 776.049 316.496C777.001 315.852 778.121 315.53 779.409 315.53C779.801 315.53 780.193 315.572 780.585 315.656C780.977 315.712 781.327 315.796 781.635 315.908L781.005 321.704C780.697 321.592 780.375 321.522 780.039 321.494C779.731 321.438 779.409 321.41 779.073 321.41C777.449 321.41 776.203 321.914 775.335 322.922C774.467 323.902 774.033 325.302 774.033 327.122V338H768.153ZM794.772 338.63C793.12 338.63 791.594 338.35 790.194 337.79C788.822 337.202 787.632 336.39 786.624 335.354C785.616 334.29 784.832 333.044 784.272 331.616C783.712 330.16 783.432 328.578 783.432 326.87C783.432 325.218 783.712 323.678 784.272 322.25C784.832 320.822 785.602 319.59 786.582 318.554C787.59 317.49 788.766 316.664 790.11 316.076C791.454 315.488 792.91 315.194 794.478 315.194C796.102 315.194 797.572 315.474 798.888 316.034C800.232 316.594 801.38 317.392 802.332 318.428C803.284 319.464 804.012 320.696 804.516 322.124C805.048 323.552 805.314 325.148 805.314 326.912V328.382H789.396C789.648 330.034 790.25 331.336 791.202 332.288C792.154 333.212 793.358 333.674 794.814 333.674C795.822 333.674 796.732 333.436 797.544 332.96C798.384 332.484 799.07 331.798 799.602 330.902L804.852 332.582C804.348 333.842 803.592 334.92 802.584 335.816C801.576 336.712 800.4 337.412 799.056 337.916C797.712 338.392 796.284 338.63 794.772 338.63ZM794.478 319.73C793.19 319.73 792.098 320.15 791.202 320.99C790.334 321.83 789.76 322.978 789.48 324.434H799.266C799.042 322.978 798.496 321.83 797.628 320.99C796.788 320.15 795.738 319.73 794.478 319.73ZM812.281 338.168C811.581 338.168 810.951 338 810.391 337.664C809.859 337.328 809.425 336.88 809.089 336.32C808.753 335.76 808.585 335.144 808.585 334.472C808.585 333.8 808.753 333.184 809.089 332.624C809.425 332.064 809.859 331.616 810.391 331.28C810.951 330.944 811.581 330.776 812.281 330.776C812.981 330.776 813.597 330.944 814.129 331.28C814.689 331.616 815.137 332.064 815.473 332.624C815.809 333.184 815.977 333.8 815.977 334.472C815.977 335.144 815.809 335.76 815.473 336.32C815.137 336.88 814.689 337.328 814.129 337.664C813.597 338 812.981 338.168 812.281 338.168ZM823.602 338.168C822.902 338.168 822.272 338 821.712 337.664C821.18 337.328 820.746 336.88 820.41 336.32C820.074 335.76 819.906 335.144 819.906 334.472C819.906 333.8 820.074 333.184 820.41 332.624C820.746 332.064 821.18 331.616 821.712 331.28C822.272 330.944 822.902 330.776 823.602 330.776C824.302 330.776 824.918 330.944 825.45 331.28C826.01 331.616 826.458 332.064 826.794 332.624C827.13 333.184 827.298 333.8 827.298 334.472C827.298 335.144 827.13 335.76 826.794 336.32C826.458 336.88 826.01 337.328 825.45 337.664C824.918 338 824.302 338.168 823.602 338.168ZM834.922 338.168C834.222 338.168 833.592 338 833.032 337.664C832.5 337.328 832.066 336.88 831.73 336.32C831.394 335.76 831.226 335.144 831.226 334.472C831.226 333.8 831.394 333.184 831.73 332.624C832.066 332.064 832.5 331.616 833.032 331.28C833.592 330.944 834.222 330.776 834.922 330.776C835.622 330.776 836.238 330.944 836.77 331.28C837.33 331.616 837.778 332.064 838.114 332.624C838.45 333.184 838.618 333.8 838.618 334.472C838.618 335.144 838.45 335.76 838.114 336.32C837.778 336.88 837.33 337.328 836.77 337.664C836.238 338 835.622 338.168 834.922 338.168ZM840.809 308.012C841.593 308.012 842.307 308.25 842.951 308.726C843.595 309.174 844.099 309.804 844.463 310.616C844.855 311.4 845.051 312.282 845.051 313.262C845.051 314.466 844.785 315.586 844.253 316.622C843.749 317.63 843.021 318.498 842.069 319.226C841.145 319.954 840.039 320.486 838.751 320.822L837.743 317.798C838.471 317.602 839.115 317.308 839.675 316.916C840.263 316.496 840.711 316.034 841.019 315.53C841.327 314.998 841.481 314.452 841.481 313.892C841.481 313.724 841.467 313.57 841.439 313.43C841.131 313.626 840.781 313.724 840.389 313.724C839.885 313.724 839.423 313.598 839.003 313.346C838.583 313.094 838.247 312.758 837.995 312.338C837.771 311.918 837.659 311.442 837.659 310.91C837.659 310.378 837.799 309.902 838.079 309.482C838.359 309.034 838.737 308.684 839.213 308.432C839.689 308.152 840.221 308.012 840.809 308.012ZM849.923 308.012C850.707 308.012 851.421 308.25 852.065 308.726C852.709 309.174 853.213 309.804 853.577 310.616C853.969 311.4 854.165 312.282 854.165 313.262C854.165 314.466 853.899 315.586 853.367 316.622C852.863 317.63 852.135 318.498 851.183 319.226C850.259 319.954 849.153 320.486 847.865 320.822L846.857 317.798C847.585 317.602 848.229 317.308 848.789 316.916C849.377 316.496 849.825 316.034 850.133 315.53C850.441 314.998 850.595 314.452 850.595 313.892C850.595 313.724 850.581 313.57 850.553 313.43C850.245 313.626 849.895 313.724 849.503 313.724C848.999 313.724 848.537 313.598 848.117 313.346C847.697 313.094 847.361 312.758 847.109 312.338C846.885 311.918 846.773 311.442 846.773 310.91C846.773 310.378 846.913 309.902 847.193 309.482C847.473 309.034 847.851 308.684 848.327 308.432C848.803 308.152 849.335 308.012 849.923 308.012Z" fill="#1A202C"/>
</g>
<defs>
<filter id="filter0_d" x="0" y="0" width="1100" height="941" filterUnits="userSpaceOnUse" color-interpolation-filters="sRGB">
<feFlood flood-opacity="0" result="BackgroundImageFix"/>
<feColorMatrix in="SourceAlpha" type="matrix" values="0 0 0 0 0 0 0 0 0 0 0 0 0 0 0 0 0 0 127 0"/>
<feOffset dy="16"/>
<feGaussianBlur stdDeviation="40"/>
<feColorMatrix type="matrix" values="0 0 0 0 0.101961 0 0 0 0 0.12549 0 0 0 0 0.172549 0 0 0 0.15 0"/>
<feBlend mode="normal" in2="BackgroundImageFix" result="effect1_dropShadow"/>
<feBlend mode="normal" in="SourceGraphic" in2="effect1_dropShadow" result="shape"/>
</filter>
</defs>
</svg>
